<svg width="792" height="612" viewBox="0 0 792 612" fill="none" xmlns="http://www.w3.org/2000/svg">
<g id="12 Your Investment Options / NYSERDA">
<g fragment="whatYouGet" />
<g id="What You Invest">
<g id="Upfront investment">
<g id="Info">
<g id="Table">
<g id="Column">
<g id="Header">
<mask id="path-75-inside-1_4443_17558" fill="white">
<path d="M32 93H236V117H32V93Z"/>
</mask>
<path d="M32 93H236V117H32V93Z" fill="white"/>
<text id="What you pay" fill="#002E5D" xml:space="preserve" style="white-space: pre" font-family="Poppins" font-size="16" font-weight="bold" letter-spacing="0.0112em"><tspan x="32" y="110.6">What you pay</tspan></text>
<path d="M236 116H32V118H236V116Z" fill="#F1F2F2" mask="url(#path-75-inside-1_4443_17558)"/>
</g>
<g id="Row">
<text id="Federal investment Tax Credit" fill="#002E5D" xml:space="preserve" style="white-space: pre" font-family="Poppins" font-size="14" letter-spacing="0.0112em"><tspan x="32" y="141.9">Federal Investment Tax Credit</tspan></text>
<path d="M236 148H32V150H236V148Z" fill="#F1F2F2" mask="url(#path-78-inside-2_4443_17558)"/>
</g>
<g id="Row_2">
<text id="NYSERDA" fill="#002E5D" xml:space="preserve" style="white-space: pre" font-family="Poppins" font-size="14" letter-spacing="0.0112em"><tspan x="32" y="172.4">NYSERDA</tspan></text>
<text id="1" fill="#002E5D" xml:space="preserve" style="white-space: pre" font-family="Poppins" font-size="10" letter-spacing="0.0112em"><tspan x="95" y="168">1</tspan></text>
</g>
<g id="Row_3">
<text id="Net Investment After Incentives" fill="#D71920" xml:space="preserve" style="white-space: pre" font-family="Poppins" font-size="14" letter-spacing="0.0112em"><tspan x="32" y="211.9">Net Investment After Incentives</tspan></text>
<path d="M32 190H236V188H32V190Z" fill="#002E5D" mask="url(#path-83-inside-3_4443_17558)"/>
</g>
</g>
<g id="Column_2">
<g id="Header_2">
<mask id="path-86-inside-4_4443_17558" fill="white">
<path d="M236 93H440V117H236V93Z"/>
</mask>
<path d="M236 93H440V117H236V93Z" fill="white"/>
<text id="Token_TotalPrice" fill="#002E5D" xml:space="preserve" style="white-space: pre" font-family="Poppins" font-size="16" font-weight="bold" letter-spacing="0.0112em"><tspan x="373" y="110.6">$45,320</tspan></text>
<path d="M440 116H236V118H440V116Z" fill="#F1F2F2" mask="url(#path-86-inside-4_4443_17558)"/>
</g>
<g id="Row_4">
<text id="Token_FedITC" fill="#002E5D" xml:space="preserve" style="white-space: pre" font-family="Poppins" font-size="14" letter-spacing="0.0112em"><tspan x="385" y="141.9">-$9,825</tspan></text>
<path d="M440 148H236V150H440V148Z" fill="#F1F2F2" mask="url(#path-89-inside-5_4443_17558)"/>
</g>
<g id="Row_5">
<text id="Token_OtherIncentives" fill="#002E5D" xml:space="preserve" style="white-space: pre" font-family="Poppins" font-size="14" letter-spacing="0.0112em"><tspan x="389" y="173.9">-$2,154</tspan></text>
</g>
<g id="Row_6">
<text id="Token_CostAfterIncent" fill="#D71920" xml:space="preserve" style="white-space: pre" font-family="Poppins" font-size="14" letter-spacing="0.0112em"><tspan x="389" y="211.9">$33,341</tspan></text>
<path d="M236 190H440V188H236V190Z" fill="#002E5D" mask="url(#path-93-inside-6_4443_17558)"/>
</g>
</g>
</g>
</g>
</g>
</g>
<text id="Heading_2" fill="#002E5D" xml:space="preserve" style="white-space: pre" font-family="Poppins" font-size="36" font-weight="600" letter-spacing="0.0112em"><tspan x="32" y="67.1">Your Investment Options</tspan></text>
<g id="1 Includes both the New York Solar Tax Credit estimated value and the Estimated NYSERDA rebate value of $717 - The NYSERDA rebate value is estimated based on NYSERDA&#226;&#128;&#153;s rebate schedule available here:&#226;&#128;&#168;https://www.nyserda.ny.gov/all-programs/ny-sun/contractors/dashboards-and-incentives. Actual rebate will be received by GAF Energy and deducted from Customer&#226;&#128;&#153;s final payment obligation set forth on Exhibit B of the Roofing and Solar Installation Agreement entered into with GAF Energy. While you may be able to apply the 30% Federal Tax Credit to your cash purchase or loan amount, GAF Energy does not provide tax or legal advice. You should consult with your tax advisor for more information. This proposal contains preliminary estimates and does not represent a binding agreement or obligation to the homeowner. This is not a guarantee, warranty, or representation regarding the production, performance, utility rate increases, workmanship, or any other data relating to Timberline Solar. This proposal is not an approval for installation or financing. &#226;&#128;&#168;2 Monthly payment amount assumes a partial prepayment equal to 30% of principal prior to month 18 of loan term.">
<text fill="#606366" xml:space="preserve" style="white-space: pre" font-family="Poppins" font-size="10" letter-spacing="0.0112em"><tspan x="34.0749" y="460"> Includes both the New York Solar Tax Credit estimated value and the Estimated NYSERDA rebate value of $717 - The NYSERDA rebate value is </tspan><tspan x="32" y="473">estimated based on NYSERDA&#x2019;s rebate schedule available here:&#x2028;</tspan><tspan x="32" y="486">https://www.nyserda.ny.gov/all-programs/ny-sun/contractors/dashboards-and-incentives. Actual rebate will be received by GAF Energy and </tspan><tspan x="32" y="499">deducted from Customer&#x2019;s final payment obligation set forth on Exhibit B of the Roofing and Solar Installation Agreement entered into with GAF </tspan><tspan x="32" y="512">Energy. While you may be able to apply the 30% Federal Tax Credit to your cash purchase or loan amount, GAF Energy does not provide tax or </tspan><tspan x="32" y="525">legal advice. You should consult with your tax advisor for more information. This proposal contains preliminary estimates and does not </tspan><tspan x="32" y="538">represent a binding agreement or obligation to the homeowner. This is not a guarantee, warranty, or representation regarding the production, </tspan><tspan x="32" y="551">performance, utility rate increases, workmanship, or any other data relating to Timberline Solar. This proposal is not an approval for installation </tspan><tspan x="32" y="564">or financing. &#x2028;</tspan><tspan x="35.4128" y="577"> Monthly payment amount assumes a partial prepayment equal to 30% of principal prior to month 18 of loan term.</tspan></text>
<text fill="#606366" xml:space="preserve" style="white-space: pre" font-family="Poppins" font-size="10" letter-spacing="0.0112em"><tspan x="32" y="460">&#xb9;</tspan><tspan x="32" y="577">&#xb2;</tspan></text>
</g>
<g id="Let&#39;s make it official">
<g id="Text">
<text id="Let&#226;&#128;&#153;s make it official" fill="#002E5D" xml:space="preserve" style="white-space: pre" font-family="Poppins" font-size="14" font-weight="600" letter-spacing="0.0112em"><tspan x="32" y="246.4">Let&#x2019;s make it official</tspan></text>
<text id="Choose between an upfront investment or apply for financing" fill="#002E5D" xml:space="preserve" style="white-space: pre" font-family="Poppins" font-size="12" font-weight="600" letter-spacing="0.0112em"><tspan x="32" y="266.7">Choose between an upfront investment or apply for financing</tspan></text>
</g>
<g id="Monthly Investment">
<rect x="32.5" y="281.5" width="407" height="118" fill="white"/>
<g id="Upfront purchase">
<g id="Illustration + title section">
<g id="Wallet Illustration">
<g id="ENERGY_Icon_Wallet_FullColor">
<path id="Vector_62" d="M59.9591 306.944L59.927 306.57H66.0809L69.0316 302.385L60.4455 296.329L59.208 298.083L59.1408 297.285L54.6282 295.879L53.5926 298.888L53.3509 298.377L49.1581 298.441L49.1337 306.944H48.375V322.625H70.8089V306.944H59.9591Z" fill="white"/>
<path id="Vector_63" d="M59.8939 305.14C59.7472 305.046 59.6355 304.905 59.5759 304.741C59.5162 304.577 59.5119 304.398 59.5635 304.232L59.1749 303.961L59.4809 303.536L59.8586 303.8C60.1141 303.548 60.4706 303.526 60.8193 303.748L60.8789 303.786L60.5516 304.247L60.4982 304.213C60.4686 304.189 60.4341 304.172 60.3972 304.163C60.3602 304.154 60.3217 304.153 60.2844 304.16C60.247 304.167 60.2118 304.183 60.181 304.205C60.1503 304.227 60.1248 304.256 60.1065 304.29C60.0855 304.322 60.0713 304.358 60.0649 304.396C60.0586 304.435 60.0601 304.473 60.0694 304.511C60.0788 304.548 60.0957 304.583 60.1192 304.614C60.1426 304.645 60.1722 304.67 60.206 304.689C60.3161 304.768 60.4339 304.782 60.645 304.594C60.8187 304.417 61.0453 304.302 61.2905 304.265L64.9203 299.116L60.4843 295.967L52.8359 306.808L59.3845 306.95L60.5852 305.249C60.4706 305.293 60.3464 305.306 60.2251 305.287C60.1037 305.268 59.9895 305.217 59.8939 305.14V305.14Z" fill="#B1B1B3"/>
<path id="Vector_64" d="M62.5255 302.503C61.9022 302.064 61.1298 301.89 60.3782 302.02C59.6266 302.15 58.9574 302.573 58.5178 303.196C58.0782 303.819 57.9043 304.592 58.0342 305.343C58.1642 306.095 58.5874 306.764 59.2108 307.204C59.2689 307.245 59.3301 307.283 59.3897 307.32H62.3481C62.7583 307.074 63.1005 306.729 63.3439 306.316C63.5872 305.904 63.7239 305.438 63.7415 304.96C63.7591 304.481 63.6572 304.006 63.4448 303.577C63.2325 303.148 62.9165 302.779 62.5255 302.503V302.503ZM62.2762 306.145L61.8968 305.878C61.7473 306.006 61.5591 306.081 61.362 306.091C61.1649 306.1 60.9704 306.044 60.8093 305.93L60.7466 305.891L61.0662 305.432L61.1197 305.462C61.2727 305.549 61.4976 305.604 61.6582 305.377C61.7791 305.206 61.7331 305.019 61.5343 304.88C61.3981 304.784 61.2514 304.766 60.9821 304.995C60.5783 305.339 60.2433 305.382 59.893 305.134C59.7463 305.04 59.6346 304.899 59.575 304.735C59.5153 304.571 59.511 304.392 59.5626 304.226L59.174 303.961L59.48 303.536L59.8577 303.8C60.1132 303.548 60.4697 303.527 60.8184 303.748L60.878 303.787L60.5507 304.247L60.4972 304.213C60.4677 304.189 60.4332 304.172 60.3963 304.163C60.3593 304.154 60.3208 304.153 60.2835 304.16C60.2461 304.167 60.2109 304.183 60.1801 304.205C60.1494 304.228 60.1239 304.256 60.1056 304.29C60.0846 304.322 60.0704 304.359 60.064 304.397C60.0577 304.435 60.0592 304.474 60.0685 304.511C60.0778 304.548 60.0948 304.584 60.1183 304.614C60.1417 304.645 60.1713 304.67 60.2051 304.689C60.3152 304.769 60.433 304.782 60.6441 304.594C61.0739 304.21 61.4562 304.16 61.8463 304.441C62.2364 304.723 62.3496 305.093 62.1936 305.466L62.5699 305.732L62.2762 306.145Z" fill="#D71920"/>
<path id="Vector_65" d="M50.4918 306.57H49.5144L49.5358 299.199L52.1637 299.153L52.4147 298.399L48.7893 298.461L48.7648 306.578H48V323H71.1835V306.57H66.9985L70.0762 302.204L60.2648 295.284L52.3105 306.57H51.2841L54.5959 296.652L57.6813 297.614L58.1401 296.97L54.1218 295.717M60.456 296.329L69.042 302.385L66.0914 306.57H53.233L60.456 296.329ZM70.4448 322.251H48.7541V307.32H70.4387L70.4448 322.251Z" fill="#101820"/>
<path id="Vector_66" d="M71.9977 312.209H63.6549C62.9825 312.211 62.3382 312.479 61.8627 312.954C61.3873 313.43 61.1192 314.074 61.1172 314.747V314.823C61.1192 315.496 61.3873 316.14 61.8627 316.615C62.3382 317.091 62.9825 317.359 63.6549 317.361H71.9977V312.209Z" fill="#2774AE"/>
<path id="Vector_67" d="M63.808 316.014C64.4872 316.014 65.0378 315.464 65.0378 314.785C65.0378 314.105 64.4872 313.555 63.808 313.555C63.1288 313.555 62.5781 314.105 62.5781 314.785C62.5781 315.464 63.1288 316.014 63.808 316.014Z" fill="white"/>
<path id="Vector_68" d="M63.8077 316.389C63.4903 316.389 63.1801 316.295 62.9162 316.118C62.6523 315.942 62.4467 315.692 62.3252 315.398C62.2038 315.105 62.1721 314.783 62.234 314.471C62.2959 314.16 62.4486 313.874 62.673 313.65C62.8974 313.425 63.1833 313.272 63.4946 313.211C63.8059 313.149 64.1286 313.18 64.4218 313.302C64.715 313.423 64.9655 313.629 65.1418 313.893C65.3181 314.157 65.4124 314.467 65.4124 314.784C65.4124 315.21 65.2433 315.618 64.9424 315.919C64.6415 316.22 64.2333 316.389 63.8077 316.389ZM63.8077 313.929C63.6386 313.929 63.4733 313.979 63.3327 314.073C63.192 314.167 63.0825 314.301 63.0178 314.457C62.9531 314.613 62.9361 314.785 62.9691 314.951C63.0021 315.117 63.0834 315.269 63.203 315.389C63.3226 315.509 63.475 315.59 63.6408 315.623C63.8067 315.656 63.9787 315.639 64.135 315.574C64.2912 315.51 64.4246 315.4 64.5186 315.259C64.6126 315.119 64.6628 314.953 64.6628 314.784C64.6624 314.558 64.5722 314.34 64.4119 314.18C64.2517 314.02 64.0344 313.93 63.8077 313.929Z" fill="#101820"/>
</g>
</g>
<g id="Amount">
<text id="Upfront" fill="#002E5D" xml:space="preserve" style="white-space: pre" font-family="Poppins" font-size="10" font-weight="600" letter-spacing="0.0112em"><tspan x="80" y="304">Upfront </tspan></text>
<text id="Purchase" fill="#002E5D" xml:space="preserve" style="white-space: pre" font-family="Poppins" font-size="10" font-weight="600" letter-spacing="0.0112em"><tspan x="80" y="319">Purchase</tspan></text>
</g>
</g>
<g id="Monthly price">
<text id="Token_TotalPrice_2" fill="#002E5D" xml:space="preserve" style="white-space: pre" font-family="Poppins" font-size="24" font-weight="600" letter-spacing="0.0112em"><tspan x="48" y="360.4">$45,320</tspan></text>
</g>
</g>
<rect id="Rectangle 365" x="163" y="298.5" width="1" height="84" fill="#D71920"/>
<g id="Upfront purchase_2">
<g id="Illustration + Amount">
<g id="ENERGY_Icon_Calendar_FullColor">
<path id="Vector_69" d="M181.656 300.888V302.348H202.54V315.936H204.001V300.894V300.888H181.656Z" fill="#2774AE"/>
<path id="Vector_70" d="M183.828 315.915H180V303.197H201.493V319.698H183.828V315.915Z" fill="white"/>
<path id="Vector_71" d="M201.496 303.304H180.461V306.499H201.496V303.304Z" fill="#B1B1B3"/>
<path id="Vector_72" d="M180 315.915H183.828V319.698L180 315.915Z" fill="#B1B1B3"/>
<path id="Vector_73" d="M185.275 307.962H183.906V309.331H185.275V307.962Z" fill="#D71920"/>
<path id="Vector_74" d="M188.463 307.962H187.094V309.331H188.463V307.962Z" fill="#D71920"/>
<path id="Vector_75" d="M191.642 307.962H190.273V309.331H191.642V307.962Z" fill="#D71920"/>
<path id="Vector_76" d="M194.83 307.962H193.461V309.331H194.83V307.962Z" fill="#D71920"/>
<path id="Vector_77" d="M198.017 307.962H196.648V309.331H198.017V307.962Z" fill="#D71920"/>
<path id="Vector_78" d="M185.275 310.846H183.906V312.214H185.275V310.846Z" fill="#D71920"/>
<path id="Vector_79" d="M188.463 310.846H187.094V312.214H188.463V310.846Z" fill="#D71920"/>
<path id="Vector_80" d="M191.642 310.846H190.273V312.214H191.642V310.846Z" fill="#D71920"/>
<path id="Vector_81" d="M194.83 310.846H193.461V312.214H194.83V310.846Z" fill="#D71920"/>
<path id="Vector_82" d="M198.017 310.846H196.648V312.214H198.017V310.846Z" fill="#D71920"/>
<path id="Vector_83" d="M185.275 313.729H183.906V315.097H185.275V313.729Z" fill="#D71920"/>
<path id="Vector_84" d="M188.377 313.729H187.008V315.097H188.377V313.729Z" fill="#D71920"/>
<path id="Vector_85" d="M191.642 313.729H190.273V315.097H191.642V313.729Z" fill="#D71920"/>
<path id="Vector_86" d="M194.916 313.729H193.547V315.097H194.916V313.729Z" fill="#D71920"/>
<path id="Vector_87" d="M198.017 313.729H196.648V315.097H198.017V313.729Z" fill="#D71920"/>
<path id="Vector_88" d="M195.279 302.926C195.205 302.694 195.187 302.447 195.225 302.207C195.264 301.966 195.358 301.737 195.501 301.54C195.643 301.342 195.83 301.18 196.046 301.067C196.262 300.954 196.502 300.893 196.745 300.889H198.247C197.941 300.6 197.558 300.407 197.144 300.334C196.73 300.261 196.303 300.311 195.918 300.478C195.532 300.645 195.203 300.921 194.973 301.273C194.742 301.624 194.62 302.035 194.62 302.456C194.62 302.616 194.638 302.777 194.673 302.934H189.452C189.377 302.698 189.358 302.449 189.397 302.205C189.437 301.962 189.533 301.731 189.678 301.531C189.824 301.332 190.014 301.169 190.234 301.057C190.454 300.945 190.697 300.887 190.944 300.886H192.417C192.111 300.599 191.728 300.407 191.314 300.335C190.901 300.263 190.475 300.313 190.09 300.48C189.705 300.646 189.377 300.922 189.147 301.273C188.916 301.624 188.794 302.035 188.794 302.455C188.794 302.615 188.812 302.776 188.847 302.932H183.83C183.757 302.699 183.739 302.451 183.778 302.209C183.817 301.967 183.913 301.737 184.057 301.539C184.201 301.341 184.39 301.179 184.608 301.067C184.826 300.955 185.067 300.895 185.313 300.894H186.798C186.493 300.605 186.109 300.412 185.695 300.339C185.281 300.266 184.855 300.316 184.469 300.483C184.083 300.65 183.755 300.926 183.524 301.277C183.294 301.629 183.171 302.04 183.172 302.461C183.172 302.621 183.19 302.781 183.225 302.938H180V315.016H180.585V303.512H183.452C183.619 303.81 183.855 304.064 184.14 304.252C184.426 304.441 184.752 304.559 185.092 304.596C185.149 304.648 185.221 304.683 185.298 304.695C185.375 304.707 185.454 304.697 185.525 304.665C185.596 304.634 185.657 304.582 185.699 304.517C185.741 304.452 185.764 304.375 185.764 304.298C185.764 304.22 185.741 304.143 185.699 304.078C185.657 304.013 185.596 303.961 185.525 303.93C185.454 303.898 185.375 303.888 185.298 303.9C185.221 303.912 185.149 303.947 185.092 303.999C184.735 303.946 184.408 303.772 184.165 303.506H189.07C189.239 303.804 189.476 304.058 189.762 304.247C190.048 304.435 190.375 304.553 190.716 304.59C190.774 304.642 190.845 304.677 190.922 304.689C190.999 304.701 191.078 304.691 191.149 304.659C191.22 304.628 191.281 304.576 191.323 304.511C191.366 304.446 191.388 304.369 191.388 304.292C191.388 304.214 191.366 304.137 191.323 304.072C191.281 304.007 191.22 303.955 191.149 303.924C191.078 303.892 190.999 303.882 190.922 303.894C190.845 303.906 190.774 303.941 190.716 303.993C190.36 303.94 190.032 303.766 189.789 303.5H194.896C195.064 303.798 195.301 304.053 195.587 304.241C195.873 304.43 196.2 304.548 196.541 304.584C196.599 304.636 196.671 304.671 196.747 304.683C196.824 304.695 196.903 304.685 196.974 304.653C197.045 304.622 197.106 304.57 197.148 304.505C197.191 304.44 197.213 304.363 197.213 304.286C197.213 304.208 197.191 304.131 197.148 304.066C197.106 304.001 197.045 303.949 196.974 303.918C196.903 303.886 196.824 303.876 196.747 303.888C196.671 303.9 196.599 303.935 196.541 303.987C196.185 303.934 195.857 303.76 195.614 303.494H201.347V319.113H184.816V319.698H201.933V302.926H195.279Z" fill="#101820"/>
</g>
<g id="Amount_2">
<text id="Financed" fill="#002E5D" xml:space="preserve" style="white-space: pre" font-family="Poppins" font-size="10" font-weight="600" letter-spacing="0.0112em"><tspan x="212" y="313.5">Financed</tspan></text>
<g id="Lender logo">
<g id="Lender logo_2">
<rect width="140" height="40" transform="translate(286 290)" fill="#F1F2F2"/>
<text id="LENDER LOGO&#226;&#128;&#168;PLACEHOLDER" fill="#606366" xml:space="preserve" style="white-space: pre" font-family="Poppins" font-size="12" font-weight="600" letter-spacing="0.0112em"><tspan x="315.42" y="307.2">LENDER LOGO&#x2028;</tspan><tspan x="313.726" y="321.2">PLACEHOLDER</tspan></text>
</g>
</g>
</g>
</g>
<g id="Info_2">
<g id="Monthly payment">
<text id="Token_MonthlyPrice" fill="#002E5D" xml:space="preserve" style="white-space: pre" font-family="Poppins" font-size="24" font-weight="600" letter-spacing="0.0112em"><tspan x="180" y="359.4">$179</tspan></text>
<g id="Monthly payment_2">
<text fill="#002E5D" xml:space="preserve" style="white-space: pre" font-family="Poppins" font-size="10" letter-spacing="0.0112em"><tspan x="180" y="380">Monthly payment</tspan></text>
<text fill="#002E5D" xml:space="preserve" style="white-space: pre" font-family="Poppins" font-size="10" letter-spacing="0em"><tspan x="269.58" y="380">&#xb2;</tspan></text>
</g>
</g>
<g id="Body">
<g id="APR">
<rect id="bullet" x="286" y="339.5" width="6" height="6" fill="#D71920"/>
<text id="Token_APR" fill="#002E5D" xml:space="preserve" style="white-space: pre" font-family="Poppins" font-size="10" letter-spacing="0.0112em"><tspan x="300" y="346">10.59% APR</tspan></text>
</g>
<g id="Term">
<rect id="bullet_2" x="286" y="356.5" width="6" height="6" fill="#D71920"/>
<text id="Token_Term" fill="#002E5D" xml:space="preserve" style="white-space: pre" font-family="Poppins" font-size="10" letter-spacing="0.0112em"><tspan x="300" y="363">25-Year Term</tspan></text>
</g>
<g id="No prepayment penalty">
<rect id="bullet_3" x="286" y="373.5" width="6" height="6" fill="#D71920"/>
<text id="No Prepayment Penalty" fill="#002E5D" xml:space="preserve" style="white-space: pre" font-family="Poppins" font-size="10" letter-spacing="0.0112em"><tspan x="300" y="380">No Prepayment Penalty</tspan></text>
</g>
</g>
</g>
</g>
<rect x="32.5" y="281.5" width="407" height="118" stroke="#101820"/>
</g>
</g>
<text id="Token_SystemSavings_Disclosure" fill="#606366" xml:space="preserve" style="white-space: pre" font-family="Poppins" font-size="10" letter-spacing="0.0112em"><tspan x="32" y="417">Utility Company: New Smyrna Beach Utilities; Current Rate plan: RS-4 Residential </tspan><tspan x="32" y="432">Annual; Utility Escalation Rate Used:  1.8%; Annual Utility Bill: $1,853</tspan></text>
</g>
<defs>
<clipPath id="clip0_4443_17558">
<rect width="264" height="228" fill="white" transform="translate(488 192)"/>
</clipPath>
<clipPath id="clip1_4443_17558">
<rect width="28" height="17.8483" fill="white" transform="translate(490 199)"/>
</clipPath>
</defs>
</svg>
