<svg width="792" height="612" viewBox="0 0 792 612" fill="none" xmlns="http://www.w3.org/2000/svg">
    <g id="2. The Cost of Doing Nothing">
        <g id="Title">
            <text id="The Cost of Doing Nothing" fill="#002E5D" xml:space="default" style="white-space: pre"
                font-family="Poppins" font-size="36" font-weight="600" letter-spacing="0.0112em">
                <tspan x="32" y="75.1">The Cost of Doing Nothing</tspan>
            </text>
        </g>
        <g id="Frame 1442">
            <g id="Subheading">
                <text id="Amount you&#226;&#128;&#153;ll pay over the next 25 years if you" fill="#002E5D"
                    xml:space="default" style="white-space: pre" font-family="Poppins" font-size="28" font-weight="600"
                    letter-spacing="0.0112em">
                    <tspan x="32" y="230.8">Amount you&#x2019;ll pay over the next 25 years if you</tspan>
                </text>
            </g>
            <g id="Subheading_2">
                <text id="continue to buy all of your power from the grid." fill="#002E5D" xml:space="default"
                    style="white-space: pre" font-family="Poppins" font-size="28" font-weight="600"
                    letter-spacing="0.0112em">
                    <tspan x="32" y="268.8">continue to buy all of your power from the grid.</tspan>
                </text>
            </g>
        </g>
        <g id="Info container">
            <rect width="728" height="222.8" transform="translate(33 297)" fill="#F1F2F2" />
            <g id="Row 1">
                <g id="Subheading_3">
                    <text
                        id="Not only are you required to pay your utility&#226;&#128;&#153;s rates, you&#226;&#128;&#153;re subject to unpredictable electricity price hikes that are outside of your control."
                        fill="#002E5D" xml:space="preserve" style="white-space: pre" font-family="Poppins"
                        font-size="16" letter-spacing="0.0112em">
                        <tspan x="73" y="339">Not only are you required to pay your utility&#x2019;s rates, you&#x2019;re subject to </tspan>
                        <tspan x="73" y="363">unpredictable electricity price hikes that are outside of your control.
                        </tspan>
                    </text>
                </g>
                <g id="ENERGY_Icon_Returns_FullColor">
                    <g id="ENERGY_Icon_Returns_FullColor_2">
                        <path id="Vector" d="M717.998 328.924H668.008V358.995H717.998V328.924Z" fill="white" />
                        <path id="Vector_2"
                            d="M693.006 369.163C693.924 369.163 694.668 368.419 694.668 367.501C694.668 366.583 693.924 365.839 693.006 365.839C692.088 365.839 691.344 366.583 691.344 367.501C691.344 368.419 692.088 369.163 693.006 369.163Z"
                            fill="white" />
                        <path id="Vector_3" d="M682.789 350.078H677.719V352.066H682.789V350.078Z" fill="#2774AE" />
                        <path id="Vector_4" d="M690.117 348.088H685.047V352.064H690.117V348.088Z" fill="#2774AE" />
                        <path id="Vector_5" d="M697.445 346.101H692.375V352.065H697.445V346.101Z" fill="#2774AE" />
                        <path id="Vector_6" d="M699.695 349.28V344.112H704.765V352.065H699.695V349.28Z"
                            fill="#2774AE" />
                        <path id="Vector_7" d="M712.094 342.124H707.023V352.064H712.094V342.124Z" fill="#2774AE" />
                        <path id="Vector_8" d="M720.36 358.971H665.648V362.25H720.36V358.971Z" fill="#B1B1B3" />
                        <path id="Vector_9" d="M720.36 325.644H665.648V328.923H720.36V325.644Z" fill="#B1B1B3" />
                        <path id="Vector_10"
                            d="M682.034 346.031C684.641 346.031 686.755 343.917 686.755 341.31C686.755 338.703 684.641 336.59 682.034 336.59C679.426 336.59 677.312 338.703 677.312 341.31C677.312 343.917 679.426 346.031 682.034 346.031Z"
                            fill="#D71920" />
                        <path id="Vector_11"
                            d="M721 329.568V325H665V329.568H667.367V358.326H665V362.894H692.353V365.285C691.82 365.44 691.362 365.782 691.061 366.248C690.761 366.714 690.638 367.273 690.717 367.822C690.795 368.371 691.069 368.873 691.488 369.237C691.907 369.6 692.443 369.8 692.997 369.8C693.552 369.8 694.088 369.6 694.507 369.237C694.926 368.873 695.2 368.371 695.278 367.822C695.357 367.273 695.234 366.714 694.934 366.248C694.633 365.782 694.174 365.44 693.642 365.285V362.889H720.995V358.326H718.628V329.568H721ZM694.015 367.502C694.016 367.703 693.956 367.9 693.845 368.068C693.733 368.236 693.574 368.367 693.388 368.444C693.202 368.521 692.997 368.542 692.799 368.502C692.602 368.463 692.42 368.366 692.278 368.224C692.135 368.081 692.038 367.9 691.999 367.702C691.96 367.504 691.98 367.3 692.058 367.113C692.135 366.927 692.266 366.768 692.434 366.657C692.601 366.545 692.798 366.486 693 366.486C693.269 366.487 693.527 366.594 693.717 366.785C693.907 366.975 694.015 367.233 694.015 367.502V367.502ZM666.289 328.279V326.289H719.711V328.279H666.289ZM719.711 359.615V361.603H666.289V359.612H667.359V359.636H718.646V359.612L719.711 359.615ZM717.344 358.326H668.64V329.568H717.349L717.344 358.326Z"
                            fill="#101820" />
                        <path id="Vector_12" d="M712.095 354.042H675.218V333.235H673.93V355.333H712.095V354.042Z"
                            fill="#101820" />
                        <path id="Vector_13"
                            d="M708.05 336.289L708.415 332.81L704.907 332.439L706.122 333.928C699.718 338.196 692.272 340.018 688.203 340.744V342.059C692.34 341.338 700.199 339.463 706.943 334.935L708.05 336.289Z"
                            fill="#101820" />
                        <path id="Vector_14"
                            d="M681.653 344.247V343.529C681.36 343.455 681.099 343.286 680.911 343.048C680.724 342.81 680.62 342.517 680.617 342.214V342.101H681.474V342.196C681.506 342.459 681.632 342.801 682.061 342.801C682.384 342.801 682.587 342.577 682.587 342.201C682.587 341.938 682.479 341.744 681.95 341.604C681.162 341.402 680.804 341.018 680.804 340.355C680.792 340.085 680.87 339.819 681.024 339.598C681.178 339.376 681.401 339.212 681.659 339.13V338.383H682.463V339.095C682.732 339.146 682.973 339.291 683.142 339.506C683.312 339.72 683.399 339.988 683.386 340.26V340.371H682.529V340.274C682.533 340.215 682.524 340.157 682.504 340.102C682.483 340.047 682.45 339.998 682.408 339.957C682.366 339.917 682.315 339.886 682.26 339.867C682.204 339.848 682.145 339.841 682.087 339.848C682.028 339.85 681.969 339.865 681.915 339.891C681.862 339.917 681.814 339.953 681.775 339.998C681.736 340.043 681.706 340.096 681.688 340.153C681.67 340.21 681.663 340.269 681.669 340.329C681.669 340.539 681.756 340.7 682.179 340.8C683.047 340.999 683.452 341.436 683.452 342.175C683.452 342.914 683.079 343.39 682.468 343.527V344.247H681.653Z"
                            fill="white" />
                    </g>
                </g>
            </g>
            <rect id="Rectangle 364" x="73" y="399.8" width="648" height="2" fill="#D71920" />
            <g id="Row 2">
                <g id="Item 1">
                    <g id="Asset 1" clip-path="url(#clip0_3973_17527)">
                        <g id="Layer 1">
                            <path id="Vector_15" d="M104.994 491.799H101.984V436.909H103.326L104.994 439.172V491.799Z"
                                fill="#D71920" />
                            <path id="Vector_16"
                                d="M80.3775 454.166H78.4297V447.31L78.8683 446.718H79.9411L80.3775 447.31V454.166Z"
                                fill="white" stroke="#000006" stroke-width="0.778836" stroke-miterlimit="10"
                                stroke-linecap="round" />
                            <path id="Vector_17"
                                d="M87.4088 454.166H85.4609V447.31L85.8995 446.718H86.9723L87.4088 447.31V454.166Z"
                                fill="white" stroke="#000006" stroke-width="0.778836" stroke-miterlimit="10"
                                stroke-linecap="round" />
                            <path id="Vector_18"
                                d="M114.432 454.166H112.484V447.31L112.921 446.718H113.994L114.432 447.31V454.166Z"
                                fill="white" stroke="#000006" stroke-width="0.778836" stroke-miterlimit="10"
                                stroke-linecap="round" />
                            <path id="Vector_19"
                                d="M121.463 454.166H119.516V447.31L119.954 446.718H121.025L121.463 447.31V454.166Z"
                                fill="white" stroke="#000006" stroke-width="0.778836" stroke-miterlimit="10"
                                stroke-linecap="round" />
                            <path id="Vector_20"
                                d="M95.0859 491.799V439.614L97.2724 436.554H102.615L104.799 439.614V491.799"
                                stroke="#231F20" stroke-width="1.36296" stroke-miterlimit="10" />
                            <path id="Vector_21" d="M125.253 449.795H73.7578V455.909H125.253V449.795Z" fill="#0F7BB6"
                                stroke="#231F20" stroke-width="1.36296" stroke-miterlimit="10" />
                            <g id="Group">
                                <path id="Vector_22"
                                    d="M94.208 474.868H88.4419C88.0856 474.868 87.7969 475.158 87.7969 475.515V482.935C87.7969 483.292 88.0856 483.582 88.4419 483.582H94.208C94.5642 483.582 94.8529 483.292 94.8529 482.935V475.515C94.8529 475.158 94.5642 474.868 94.208 474.868Z"
                                    fill="#A9ABAC" />
                                <path id="Vector_23"
                                    d="M94.208 474.868H88.4419C88.0856 474.868 87.7969 475.158 87.7969 475.515V482.935C87.7969 483.292 88.0856 483.582 88.4419 483.582H94.208C94.5642 483.582 94.8529 483.292 94.8529 482.935V475.515C94.8529 475.158 94.5642 474.868 94.208 474.868Z"
                                    stroke="#231F20" stroke-width="0.778836" stroke-miterlimit="10" />
                            </g>
                            <path id="Vector_24"
                                d="M91.3173 478.286C91.8766 478.286 92.3299 477.832 92.3299 477.271C92.3299 476.71 91.8766 476.256 91.3173 476.256C90.7581 476.256 90.3047 476.71 90.3047 477.271C90.3047 477.832 90.7581 478.286 91.3173 478.286Z"
                                fill="#D71920" stroke="#231F20" stroke-width="0.389418" stroke-miterlimit="10" />
                            <g id="Vector_25">
                                <path d="M80.8125 455.782C85.4993 460.481 90.1862 465.179 94.873 469.877Z"
                                    fill="#A9ABAC" />
                                <path d="M80.8125 455.782C85.4993 460.481 90.1862 465.179 94.873 469.877"
                                    stroke="#231F20" stroke-width="1.36296" stroke-miterlimit="10" />
                            </g>
                            <g id="Vector_26">
                                <path d="M118.865 455.909C114.178 460.607 109.492 465.306 104.805 470.004Z"
                                    fill="#A9ABAC" />
                                <path d="M118.865 455.909C114.178 460.607 109.492 465.306 104.805 470.004"
                                    stroke="#231F20" stroke-width="1.36296" stroke-miterlimit="10" />
                            </g>
                            <path id="Vector_27" d="M93.4207 481.142H89.5078V482.051H93.4207V481.142Z" fill="white"
                                stroke="#231F20" stroke-width="0.389418" stroke-miterlimit="10" />
                        </g>
                    </g>
                    <text id="Costly Grid Maintenance" fill="black" xml:space="preserve" style="white-space: pre"
                        font-family="Poppins" font-size="14" font-weight="600" letter-spacing="0.0112em">
                        <tspan x="134" y="458.2">Costly Grid </tspan>
                        <tspan x="134" y="479.2">Maintenance</tspan>
                    </text>
                </g>
                <g id="Item 2">
                    <g id="ENERGY_Icon_Contract_FullColor">
                        <path id="Vector_28"
                            d="M341.133 442.172H313.883V483.149H340.37L340.921 479.77C340.086 478.869 339.53 477.745 339.323 476.534C339.115 475.324 339.263 474.079 339.75 472.951C340.237 471.823 341.041 470.861 342.064 470.18C343.088 469.5 344.288 469.131 345.517 469.118V442.172H341.133Z"
                            fill="white" />
                        <path id="Vector_29"
                            d="M338.749 435.8H311.26H307.5V439.555V476.417H311.26V439.555H338.749V435.8Z"
                            fill="#2774AE" />
                        <path id="Vector_30"
                            d="M345.631 481.578L340.359 479.188L336.883 489.412L340.101 488.834L342.633 491.8L345.631 481.578Z"
                            fill="#D71920" />
                        <path id="Vector_31"
                            d="M344.758 481.578L350.029 479.188L353.506 489.412L350.284 488.834L347.752 491.8L344.758 481.578Z"
                            fill="#D71920" />
                        <path id="Vector_32"
                            d="M345.231 468.394H345.158C343.964 468.407 342.795 468.737 341.772 469.351C340.748 469.965 339.907 470.84 339.336 471.887C338.764 472.934 338.482 474.114 338.519 475.305C338.556 476.497 338.91 477.658 339.546 478.667C339.766 479.02 340.02 479.351 340.303 479.655C341.488 480.937 343.127 481.707 344.871 481.799H345.155H345.228C345.558 481.8 345.887 481.777 346.212 481.729C347.892 481.483 349.416 480.611 350.478 479.288C351.54 477.966 352.061 476.291 351.936 474.6C351.811 472.909 351.05 471.328 349.806 470.175C348.561 469.022 346.926 468.383 345.228 468.386L345.231 468.394Z"
                            fill="#B1B1B3" />
                        <path id="Vector_33" d="M340.342 447.716H319.148V449.104H340.342V447.716Z" fill="#101820" />
                        <path id="Vector_34" d="M340.342 452.272H319.148V453.66H340.342V452.272Z" fill="#101820" />
                        <path id="Vector_35" d="M340.342 456.827H319.148V458.215H340.342V456.827Z" fill="#101820" />
                        <path id="Vector_36" d="M340.342 461.381H319.148V462.769H340.342V461.381Z" fill="#101820" />
                        <path id="Vector_37" d="M340.342 465.938H319.148V467.326H340.342V465.938Z" fill="#101820" />
                        <path id="Vector_38"
                            d="M346.223 467.765V441.479H313.188V483.844H338.788L339.261 482.456H314.566V442.866H344.822V467.711C343.013 467.805 341.302 468.561 340.015 469.835C339.806 470.043 339.609 470.262 339.426 470.492H319.137V471.88H338.547C338.069 472.869 337.818 473.952 337.812 475.049H319.137V476.437H337.937C338.106 477.36 338.449 478.242 338.946 479.037C339.192 479.424 339.472 479.788 339.783 480.125C341.089 481.542 342.899 482.392 344.825 482.493C344.93 482.493 345.034 482.493 345.156 482.493H345.222C346.195 482.493 347.159 482.302 348.058 481.93C348.957 481.558 349.774 481.013 350.463 480.326C351.151 479.639 351.697 478.823 352.07 477.925C352.442 477.027 352.634 476.064 352.634 475.092C352.63 473.304 351.979 471.577 350.801 470.23C349.622 468.884 347.996 468.008 346.223 467.765V467.765ZM350.025 478.743C349.076 479.995 347.671 480.824 346.115 481.051C345.818 481.093 345.519 481.114 345.219 481.113H345.168C345.083 481.113 344.995 481.113 344.91 481.113C343.716 481.053 342.567 480.634 341.615 479.912V479.912C341.471 479.806 341.333 479.693 341.201 479.573V479.573C341.07 479.454 340.943 479.329 340.821 479.196C340.103 478.425 339.603 477.478 339.372 476.451V476.451C339.352 476.366 339.335 476.279 339.321 476.194C339.321 476.154 339.304 476.114 339.298 476.075C339.292 476.035 339.275 475.927 339.267 475.854C339.258 475.78 339.253 475.726 339.247 475.661C339.241 475.596 339.247 475.548 339.233 475.491C339.233 475.367 339.233 475.242 339.233 475.115C339.233 473.531 339.859 472.012 340.974 470.887C342.088 469.761 343.603 469.12 345.188 469.102H345.256C345.412 469.102 345.568 469.102 345.721 469.122H345.777C345.933 469.136 346.089 469.156 346.24 469.181C347.646 469.415 348.923 470.14 349.845 471.225C350.767 472.311 351.274 473.688 351.276 475.112C351.272 476.427 350.833 477.704 350.025 478.743V478.743Z"
                            fill="#101820" />
                    </g>
                    <text id="Unpredictable Regulations" fill="black" xml:space="preserve" style="white-space: pre"
                        font-family="Poppins" font-size="14" font-weight="600" letter-spacing="0.0112em">
                        <tspan x="361.5" y="458.2">Unpredictable </tspan>
                        <tspan x="361.5" y="479.2">Regulations</tspan>
                    </text>
                </g>
                <g id="Item 3">
                    <g id="ENERGY_Icon_PowerPlant_FullColor">
                        <path id="Vector_39" d="M571.541 466.524H548.484V491.131H571.541V466.524Z" fill="#D71920" />
                        <path id="Vector_40" d="M593.419 476.1H576.188V491.13H593.419V476.1Z" fill="#2774AE" />
                        <path id="Vector_41" d="M589.368 459.11L591.366 476.226H578.258L580.455 459.11" fill="white" />
                        <path id="Vector_42"
                            d="M594.342 442.847C594.342 441.156 593.679 439.535 592.5 438.339C591.321 437.143 589.721 436.472 588.053 436.472C586.386 436.472 584.786 437.143 583.607 438.339C582.427 439.535 581.765 441.156 581.765 442.847C581.765 442.94 581.765 443.03 581.765 443.121C580.864 443.372 580.078 443.935 579.545 444.713C579.011 445.49 578.763 446.433 578.843 447.377C578.923 448.321 579.327 449.206 579.985 449.879C580.642 450.553 581.511 450.971 582.441 451.062C582.391 451.452 582.42 451.848 582.526 452.226C582.633 452.604 582.814 452.956 583.06 453.26C583.306 453.564 583.611 453.814 583.956 453.994C584.301 454.174 584.678 454.28 585.065 454.306C585.452 454.332 585.84 454.277 586.205 454.145C586.571 454.013 586.905 453.807 587.189 453.538C587.472 453.27 587.698 452.945 587.853 452.585C588.008 452.224 588.088 451.835 588.088 451.442V451.442C588.269 451.501 588.457 451.532 588.646 451.532C588.964 451.534 589.276 451.452 589.554 451.295C589.831 451.138 590.063 450.911 590.228 450.636C590.392 450.36 590.484 450.047 590.494 449.725C590.503 449.403 590.43 449.084 590.282 448.799C591.474 448.341 592.501 447.527 593.226 446.464C593.951 445.401 594.34 444.14 594.342 442.847V442.847Z"
                            fill="#B1B1B3" />
                        <path id="Vector_43" d="M557.238 464.93V457.24H552.586V464.914" fill="white" />
                        <path id="Vector_44" d="M565.48 464.931V460.946H560.828V464.917" fill="white" />
                        <path id="Vector_45"
                            d="M581.765 451.627C581.816 452.482 582.169 453.289 582.76 453.9C583.351 454.512 584.14 454.886 584.981 454.955C585.823 455.024 586.66 454.782 587.34 454.275C588.02 453.767 588.496 453.028 588.682 452.193C589.341 452.186 589.97 451.916 590.434 451.441C590.898 450.966 591.158 450.325 591.159 449.657C591.159 449.495 591.142 449.332 591.11 449.173C592.216 448.625 593.159 447.787 593.841 446.748C594.523 445.708 594.921 444.504 594.993 443.257C595.065 442.011 594.809 440.767 594.251 439.654C593.693 438.541 592.854 437.598 591.818 436.922C590.783 436.246 589.589 435.861 588.358 435.806C587.128 435.752 585.905 436.03 584.816 436.613C583.726 437.195 582.809 438.06 582.158 439.12C581.507 440.18 581.145 441.396 581.11 442.645C580.189 443.015 579.408 443.675 578.882 444.527C578.355 445.378 578.111 446.378 578.185 447.381C578.258 448.383 578.645 449.336 579.29 450.1C579.934 450.863 580.802 451.399 581.768 451.627H581.765ZM581.943 443.768L582.453 443.628L582.431 443.096C582.431 443.011 582.431 442.929 582.431 442.847C582.431 441.806 582.711 440.786 583.241 439.895C583.772 439.004 584.533 438.278 585.441 437.794C586.35 437.31 587.371 437.087 588.396 437.149C589.42 437.211 590.409 437.556 591.253 438.147C592.098 438.738 592.768 439.551 593.19 440.5C593.612 441.448 593.769 442.496 593.646 443.529C593.523 444.562 593.124 445.541 592.492 446.361C591.86 447.18 591.018 447.809 590.059 448.179L589.369 448.452L589.709 449.119C589.795 449.287 589.84 449.475 589.841 449.665C589.84 449.982 589.715 450.286 589.494 450.511C589.273 450.735 588.973 450.861 588.66 450.862C588.538 450.862 588.417 450.843 588.302 450.805L587.442 450.532V451.474C587.44 452.06 587.208 452.621 586.798 453.033C586.388 453.446 585.833 453.676 585.256 453.674C584.678 453.672 584.125 453.437 583.718 453.022C583.311 452.606 583.084 452.044 583.086 451.458C583.087 451.36 583.095 451.262 583.11 451.166L583.199 450.477L582.517 450.411C581.733 450.345 580.997 450.001 580.439 449.438C579.881 448.875 579.537 448.13 579.468 447.335C579.4 446.54 579.61 445.746 580.063 445.093C580.516 444.44 581.182 443.971 581.943 443.768V443.768Z"
                            fill="#101820" />
                        <path id="Vector_46" d="M591.367 456.544H578.375V457.883H591.367V456.544Z" fill="#101820" />
                        <path id="Vector_47" d="M566.083 478.403H553.938V479.742H566.083V478.403Z" fill="#101820" />
                        <path id="Vector_48"
                            d="M553.243 457.91H556.574V464.931H557.895V456.571H551.922V464.915H553.243V457.91Z"
                            fill="#101820" />
                        <path id="Vector_49"
                            d="M561.485 461.613H564.816V464.93H566.137V460.276H560.164V464.917H561.485V461.613Z"
                            fill="#101820" />
                        <path id="Vector_50"
                            d="M594.07 490.461V475.431H591.949L590.046 459.11H588.714L590.601 475.308H579.003L581.081 459.11H579.749L577.655 475.431H575.528V490.461H572.205V465.866H547.828V490.461H542V491.8H600V490.461H594.07ZM570.89 482.599H560.022V483.938H570.89V490.461H549.154V475.551H560.022V474.212H549.154V467.194H570.89V482.599ZM592.766 490.461H576.863V476.77H592.766V490.461Z"
                            fill="#101820" />
                    </g>
                    <text id="Expensive Energy Sources" fill="black" xml:space="preserve" style="white-space: pre"
                        font-family="Poppins" font-size="14" font-weight="600" letter-spacing="0.0112em">
                        <tspan x="608" y="458.2">Expensive </tspan>
                        <tspan x="608" y="479.2">Energy Sources</tspan>
                    </text>
                </g>
            </g>
        </g>
        <g id="Wallet Illustration">
            <g id="ENERGY_Icon_Wallet_FullColor">
                <path id="Vector_51"
                    d="M55.9274 139.886L55.8631 139.137H68.1717L74.0735 130.766L56.9002 118.653L54.4251 122.163L54.2906 120.566L45.2651 117.754L43.1936 123.772L42.7102 122.75L34.324 122.879L34.2753 139.886H32.7578V171.249H77.6284V139.886H55.9274Z"
                    fill="white" />
                <path id="Vector_52"
                    d="M55.7887 136.278C55.4953 136.088 55.2719 135.808 55.1526 135.48C55.0332 135.152 55.0246 134.794 55.1278 134.46L54.3506 133.919L54.9625 133.068L55.7181 133.597C56.2291 133.093 56.942 133.05 57.6396 133.493L57.7588 133.57L57.1042 134.491L56.9972 134.424C56.9381 134.376 56.8691 134.341 56.7953 134.323C56.7214 134.304 56.6444 134.302 56.5697 134.317C56.495 134.332 56.4244 134.362 56.3629 134.407C56.3014 134.452 56.2505 134.51 56.2138 134.577C56.1718 134.641 56.1435 134.714 56.1308 134.79C56.118 134.866 56.1211 134.944 56.1397 135.019C56.1584 135.094 56.1923 135.164 56.2392 135.225C56.2862 135.287 56.3454 135.338 56.4128 135.375C56.6331 135.534 56.8687 135.562 57.2909 135.185C57.6383 134.831 58.0915 134.601 58.582 134.528L65.842 124.229L56.9694 117.93L41.6719 139.612L54.7698 139.897L57.1714 136.495C56.9421 136.583 56.6938 136.609 56.4511 136.571C56.2083 136.533 55.9799 136.432 55.7887 136.278V136.278Z"
                    fill="#B1B1B3" />
                <path id="Vector_53"
                    d="M61.0516 131.002C59.8049 130.123 58.2599 129.775 56.7567 130.035C55.2534 130.295 53.9148 131.142 53.0357 132.388C52.1565 133.635 51.8086 135.18 52.0685 136.683C52.3284 138.187 53.1749 139.525 54.4217 140.404C54.538 140.487 54.6603 140.563 54.7796 140.637H60.6967C61.5172 140.144 62.2017 139.454 62.6884 138.63C63.175 137.805 63.4485 136.872 63.4837 135.916C63.519 134.959 63.315 134.009 62.8903 133.151C62.4657 132.293 61.8337 131.555 61.0516 131.002V131.002ZM60.553 138.287L59.7941 137.752C59.4951 138.009 59.1186 138.159 58.7244 138.178C58.3302 138.197 57.9412 138.084 57.6189 137.856L57.4935 137.779L58.1329 136.861L58.2398 136.92C58.5458 137.094 58.9957 137.204 59.3169 136.751C59.5586 136.409 59.4667 136.035 59.0689 135.757C58.7966 135.564 58.5031 135.527 57.9646 135.986C57.1569 136.675 56.4869 136.76 55.7862 136.265C55.4929 136.075 55.2694 135.795 55.1501 135.467C55.0308 135.139 55.0221 134.781 55.1253 134.447L54.3482 133.918L54.9601 133.068L55.7157 133.597C56.2267 133.092 56.9396 133.049 57.6372 133.493L57.7564 133.569L57.1018 134.49L56.9948 134.423C56.9357 134.375 56.8667 134.341 56.7928 134.322C56.719 134.304 56.6419 134.302 56.5672 134.316C56.4925 134.331 56.422 134.362 56.3605 134.407C56.299 134.452 56.2481 134.509 56.2114 134.576C56.1694 134.641 56.1411 134.713 56.1283 134.79C56.1156 134.866 56.1186 134.944 56.1373 135.018C56.1559 135.093 56.1898 135.164 56.2368 135.225C56.2837 135.286 56.3429 135.337 56.4104 135.375C56.6307 135.534 56.8663 135.561 57.2885 135.185C58.1482 134.417 58.9129 134.316 59.6931 134.879C60.4733 135.442 60.6998 136.182 60.3877 136.929L61.1404 137.461L60.553 138.287Z"
                    fill="#D71920" />
                <path id="Vector_54"
                    d="M36.984 139.138H35.029L35.0718 124.394L40.3279 124.302L40.8299 122.794L33.5788 122.919L33.5298 139.153H32V172H78.3699V139.138H69.9992L76.155 130.406L56.5311 116.564L40.6216 139.138H38.5687L45.1927 119.3L51.3637 121.224L52.2815 119.936L44.2443 117.43M56.9135 118.654L74.0865 130.767L68.185 139.138H42.4666L56.9135 118.654ZM76.8924 170.501H33.5082V140.637H76.8801L76.8924 170.501Z"
                    fill="#101820" />
                <path id="Vector_55"
                    d="M80.0045 150.415H63.3179C61.9729 150.419 60.6844 150.955 59.7334 151.906C58.7824 152.857 58.2462 154.146 58.2422 155.491V155.644C58.2462 156.989 58.7824 158.277 59.7334 159.228C60.6844 160.179 61.9729 160.715 63.3179 160.719H80.0045V150.415Z"
                    fill="#2774AE" />
                <path id="Vector_56"
                    d="M63.6161 158.027C64.9746 158.027 66.076 156.926 66.076 155.567C66.076 154.209 64.9746 153.107 63.6161 153.107C62.2576 153.107 61.1562 154.209 61.1562 155.567C61.1562 156.926 62.2576 158.027 63.6161 158.027Z"
                    fill="white" />
                <path id="Vector_57"
                    d="M63.6156 158.777C62.9808 158.777 62.3603 158.589 61.8325 158.236C61.3047 157.884 60.8934 157.382 60.6505 156.796C60.4076 156.21 60.3441 155.564 60.4679 154.942C60.5918 154.319 60.8972 153.747 61.3461 153.298C61.7949 152.85 62.3668 152.544 62.9893 152.42C63.6119 152.296 64.2574 152.36 64.8439 152.603C65.4303 152.846 65.9313 153.257 66.284 153.785C66.6367 154.313 66.8251 154.933 66.8251 155.568C66.8251 156.419 66.487 157.235 65.8851 157.837C65.2832 158.439 64.4668 158.777 63.6156 158.777ZM63.6156 153.858C63.2773 153.858 62.9467 153.958 62.6655 154.146C62.3842 154.334 62.1651 154.601 62.0356 154.913C61.9062 155.226 61.8722 155.57 61.9382 155.901C62.0042 156.233 62.1669 156.538 62.4061 156.777C62.6453 157.016 62.9501 157.179 63.2819 157.245C63.6136 157.311 63.9577 157.277 64.2702 157.148C64.5827 157.018 64.8496 156.799 65.0375 156.518C65.2254 156.237 65.3258 155.906 65.3258 155.568C65.325 155.114 65.1447 154.68 64.8242 154.359C64.5036 154.039 64.0689 153.858 63.6156 153.858Z"
                    fill="#101820" />
            </g>
        </g>
        <g id="">
            <text id="Token_CostOfDoingNothing" fill="#D71920" xml:space="preserve" style="white-space: pre" font-family="Poppins"
                font-size="36" font-weight="600" letter-spacing="0.0112em">
                <tspan x="96" y="162.1">$27,665</tspan>
            </text>
            <text fill="#D71920" xml:space="preserve" style="white-space: pre" font-family="Poppins"
                font-size="20" letter-spacing="0.0112em">
                <tspan id="asterisk" x="241" y="149">*</tspan>
            </text>
        </g>
        <text id="*Projection based on historical data. Actual annual rate increase and total cost may vary."
            fill="#606366" xml:space="preserve" style="white-space: pre" font-family="Poppins" font-size="10"
            letter-spacing="0.0112em">
            <tspan x="32" y="584">*Projection based on historical data. Actual annual rate increase and total cost may vary.</tspan>
        </text>
    </g>
    <defs>
        <clipPath id="clip0_3973_17527">
            <rect width="53" height="56" fill="white" transform="translate(73 435.8)" />
        </clipPath>
    </defs>
</svg>