<svg width="792" height="612" viewBox="0 0 792 612" fill="none" xmlns="http://www.w3.org/2000/svg">
<g id="15. Energy Storage Options">
<rect width="792" height="612" fill="white"/>
<text id="Your Energy Storage Options" fill="#002E5D" xml:space="preserve" style="white-space: pre" font-family="Poppins" font-size="36" font-weight="600" letter-spacing="0.0112em"><tspan x="32" y="67.1">Your Energy Storage Options</tspan></text>
<g id="Frame 1397">
<g id="Table">
<g id="Header">
<g id="Cells - Variants">
<g id="Cell - Master component">
<g id="Label container">
<text id="Label" fill="#002E5D" xml:space="preserve" style="white-space: pre" font-family="Poppins" font-size="12" font-weight="600" letter-spacing="0.0112em"><tspan x="537" y="351.7">Essentials Backup</tspan></text>
</g>
</g>
</g>
<g id="Cells - Variants_2">
<g id="Cell - Master component_2">
<g id="Label container_2">
<text id="Label_2" fill="#002E5D" xml:space="preserve" style="white-space: pre" font-family="Poppins" font-size="12" font-weight="600" letter-spacing="0.0112em"><tspan x="682" y="351.7">Max Backup</tspan></text>
</g>
</g>
</g>
<path d="M772 362H32V364H772V362Z" fill="#002E5D" mask="url(#path-2-inside-1_4468_24671)"/>
</g>
<g id="Top Row">
<g id="Cells - Variants_3">
<g id="Cell - Master component_3">
<mask id="path-11-inside-4_4468_24671" fill="white">
<path d="M32 363H523V411H32V363Z"/>
</mask>
<path d="M32 363H523V411H32V363Z" fill="white"/>
<g id="Highlight + Icon + Label">
<g id="Icon + Label">
<g id="Label container_3">
<g id="Label_3">
<text fill="#002E5D" xml:space="preserve" style="white-space: pre" font-family="Poppins" font-size="12" letter-spacing="0.0112em"><tspan x="346.835" y="384.7">&#x2028;</tspan></text>
<text fill="#002E5D" xml:space="preserve" style="white-space: pre" font-family="Poppins" font-size="10" letter-spacing="0.0112em"><tspan x="48" y="399.7">Includes system design, energy monitoring, and 10-year/10,000 cycle warranty</tspan></text>
<text fill="#002E5D" xml:space="preserve" style="white-space: pre" font-family="Poppins" font-size="12" font-weight="600" letter-spacing="0.0112em"><tspan x="48" y="384.7">sonnen Battery System and Standard Installation</tspan></text>
</g>
</g>
</g>
</g>
<path d="M523 410H32V412H523V410Z" fill="#F1F2F2" mask="url(#path-11-inside-4_4468_24671)"/>
</g>
<path d="M32 364H523V362H32V364Z" fill="#F1F2F2" mask="url(#path-9-inside-3_4468_24671)"/>
</g>
<g id="Cells - Variants_4">
<g id="Cell - Master component_4">
<mask id="path-16-inside-6_4468_24671" fill="white">
<path d="M523 363H665V411H523V363Z"/>
</mask>
<path d="M523 363H665V411H523V363Z" fill="white"/>
<g id="Highlight + Icon + Label_2">
<g id="Icon + Label_2">
<g id="Label_4">
<text id="Token_EssentialsBackupPackageRooferPrice" fill="#002E5D" xml:space="preserve" style="white-space: pre" font-family="Poppins" font-size="12" letter-spacing="0.0112em"><tspan x="601" y="388.2">$25,000</tspan></text>
</g>
</g>
</g>
<path d="M665 410H523V412H665V410Z" fill="#F1F2F2" mask="url(#path-16-inside-6_4468_24671)"/>
</g>
<path d="M523 364H665V362H523V364Z" fill="#F1F2F2" mask="url(#path-14-inside-5_4468_24671)"/>
</g>
<g id="Cells - Variants_5">
<g id="Cell - Master component_5">
<mask id="path-19-inside-7_4468_24671" fill="white">
<path d="M665 363H772V411H665V363Z"/>
</mask>
<path d="M665 363H772V411H665V363Z" fill="white"/>
<g id="Highlight + Icon + Label_3">
<g id="Icon + Label_3">
<g id="Label_5">
<text id="Token_MaxBackupPackageRooferPrice" fill="#002E5D" xml:space="preserve" style="white-space: pre" font-family="Poppins" font-size="12" letter-spacing="0.0112em"><tspan x="707" y="388.2">$60,000</tspan></text>
</g>
</g>
</g>
<path d="M772 410H665V412H772V410Z" fill="#F1F2F2" mask="url(#path-19-inside-7_4468_24671)"/>
</g>
</g>
<path d="M32 364H772V362H32V364Z" fill="#2774AE" mask="url(#path-7-inside-2_4468_24671)"/>
</g>
<g id="Middle row">
<g id="Cells - Variants_6">
<g id="Cell - Master component_6">
<mask id="path-24-inside-9_4468_24671" fill="white">
<path d="M32 411H523V459H32V411Z"/>
</mask>
<path d="M32 411H523V459H32V411Z" fill="white"/>
<g id="Highlight + Icon + Label_4">
<g id="Icon + Label_4">
<g id="Label container_6">
<g id="Label_6">
<text fill="#002E5D" xml:space="preserve" style="white-space: pre" font-family="Poppins" font-size="10" letter-spacing="0.0112em"><tspan x="48" y="447.7">30% Federal Investment Tax Credit (ITC)*</tspan></text>
<text fill="#002E5D" xml:space="preserve" style="white-space: pre" font-family="Poppins" font-size="12" letter-spacing="0.0112em"><tspan x="253.131" y="432.7">&#x2028;</tspan></text>
<text fill="#002E5D" xml:space="preserve" style="white-space: pre" font-family="Poppins" font-size="12" font-weight="600" letter-spacing="0.0112em"><tspan x="48" y="432.7">Estimated Rebates and Incentives</tspan></text>
</g>
</g>
</g>
</g>
<path d="M523 458H32V460H523V458Z" fill="#F1F2F2" mask="url(#path-24-inside-9_4468_24671)"/>
</g>
<path d="M523 458H32V460H523V458Z" fill="#F1F2F2" mask="url(#path-22-inside-8_4468_24671)"/>
</g>
<g id="Cells - Variants_7">
<g id="Cell - Master component_7">
<mask id="path-29-inside-11_4468_24671" fill="white">
<path d="M523 411H665V459H523V411Z"/>
</mask>
<path d="M523 411H665V459H523V411Z" fill="white"/>
<g id="Highlight + Icon + Label_5">
<g id="Icon + Label_5">
<g id="Label_7">
<text id="Token_EssentialsBackupPackageRooferPrice_Incentive" fill="#002E5D" xml:space="preserve" style="white-space: pre" font-family="Poppins" font-size="12" letter-spacing="0.0112em"><tspan x="609" y="436.2">$7,500</tspan></text>
</g>
</g>
</g>
<path d="M665 458H523V460H665V458Z" fill="#F1F2F2" mask="url(#path-29-inside-11_4468_24671)"/>
</g>
<path d="M665 458H523V460H665V458Z" fill="#F1F2F2" mask="url(#path-27-inside-10_4468_24671)"/>
</g>
<g id="Cells - Variants_8">
<g id="Cell - Master component_8">
<mask id="path-34-inside-13_4468_24671" fill="white">
<path d="M665 411H772V459H665V411Z"/>
</mask>
<path d="M665 411H772V459H665V411Z" fill="white"/>
<g id="Highlight + Icon + Label_6">
<g id="Icon + Label_6">
<g id="Label_8">
<text id="Token_MaxBackupPackageRooferPrice_Incentive" fill="#002E5D" xml:space="preserve" style="white-space: pre" font-family="Poppins" font-size="12" letter-spacing="0.0112em"><tspan x="711" y="436.2">$18,000</tspan></text>
</g>
</g>
</g>
<path d="M772 458H665V460H772V458Z" fill="#F1F2F2" mask="url(#path-34-inside-13_4468_24671)"/>
</g>
<path d="M772 458H665V460H772V458Z" fill="#F1F2F2" mask="url(#path-32-inside-12_4468_24671)"/>
</g>
</g>
<g id="Bottom row">
<mask id="path-37-inside-14_4468_24671" fill="white">
<path d="M32 459H772V491H32V459Z"/>
</mask>
<path d="M32 459H772V491H32V459Z" fill="white"/>
<g id="Cells - Variants_9">
<g id="Cell - Master component_9">
<mask id="path-41-inside-16_4468_24671" fill="white">
<path d="M32 459H523V491H32V459Z"/>
</mask>
<path d="M32 459H523V491H32V459Z" fill="white"/>
<g id="Highlight + Icon + Label_7">
<g id="Icon + Label_7">
<g id="Label container_9">
<text id="Label_9" fill="#002E5D" xml:space="preserve" style="white-space: pre" font-family="Poppins" font-size="12" font-weight="600" letter-spacing="0.0112em"><tspan x="48" y="480.2">Total estimated system price with rebate and tax credit</tspan></text>
</g>
</g>
</g>
<path d="M32 460H523V458H32V460Z" fill="#002E5D" mask="url(#path-41-inside-16_4468_24671)"/>
</g>
<path d="M32 460H523V458H32V460Z" fill="#002E5D" mask="url(#path-39-inside-15_4468_24671)"/>
</g>
<g id="Cells - Variants_10">
<g id="Cell - Master component_10">
<mask id="path-46-inside-18_4468_24671" fill="white">
<path d="M523 459H665V491H523V459Z"/>
</mask>
<path d="M523 459H665V491H523V459Z" fill="white"/>
<g id="Highlight + Icon + Label_8">
<g id="Icon + Label_8">
<g id="Label_10">
<text id="Token_EssentialsBackupPackageRooferPrice_Total" fill="#002E5D" xml:space="preserve" style="white-space: pre" font-family="Poppins" font-size="12" font-weight="600" letter-spacing="0.0112em"><tspan x="603" y="479.7">$17,500</tspan></text>
</g>
</g>
</g>
<path d="M523 460H665V458H523V460Z" fill="#002E5D" mask="url(#path-46-inside-18_4468_24671)"/>
</g>
<path d="M523 460H665V458H523V460Z" fill="#002E5D" mask="url(#path-44-inside-17_4468_24671)"/>
</g>
<g id="Cells - Variants_11">
<g id="Cell - Master component_11">
<mask id="path-51-inside-20_4468_24671" fill="white">
<path d="M665 459H772V491H665V459Z"/>
</mask>
<path d="M665 459H772V491H665V459Z" fill="white"/>
<g id="Highlight + Icon + Label_9">
<g id="Icon + Label_9">
<g id="Label container_11">
<text id="Token_MaxBackupPackageRooferPrice_Total" fill="#002E5D" xml:space="preserve" style="white-space: pre" font-family="Poppins" font-size="12" font-weight="600" letter-spacing="0.0112em"><tspan x="706" y="479.7">$42,000</tspan></text>
</g>
</g>
</g>
<path d="M665 460H772V458H665V460Z" fill="#002E5D" mask="url(#path-51-inside-20_4468_24671)"/>
</g>
<path d="M665 460H772V458H665V460Z" fill="#002E5D" mask="url(#path-49-inside-19_4468_24671)"/>
</g>
<path d="M32 460H772V458H32V460Z" fill="#002E5D" mask="url(#path-37-inside-14_4468_24671)"/>
</g>
</g>
</g>
<g id="Frame 1393">
<rect width="792" height="108" transform="translate(0 504)" fill="#F1F2F2"/>
<text id="Fine Print" fill="#606366" xml:space="preserve" style="white-space: pre" font-family="Poppins" font-size="10" letter-spacing="0.0112em"><tspan x="32" y="531">*GAF Energy does not provide tax or legal advice. Consult with your own tax advisor for more information.</tspan></text>
<text id="Fine Print_2" fill="#606366" xml:space="preserve" style="white-space: pre" font-family="Poppins" font-size="10" letter-spacing="0.0112em"><tspan x="32" y="554">The data provided in this proposal is a preliminary estimate and does not represent a binding agreement, obligation, or guarantee of site </tspan><tspan x="32" y="569">eligibility. Battery product availability and installation schedules vary. Please consult with your roofing contractor for more information.</tspan></text>
<g id="Full battery warranty info">
<g id="Disclosures">
<text fill="#606366" xml:space="preserve" style="white-space: pre" font-family="Poppins" font-size="10" letter-spacing="0.0112em"><tspan x="32" y="592">For full battery warranty details visit: </tspan></text>
<text fill="#606366" xml:space="preserve" style="white-space: pre" font-family="Poppins" font-size="10" font-weight="600" letter-spacing="0.0112em"><tspan x="218.613" y="592">https://sonnenusa.com/en/warranty</tspan></text>
</g>
</g>
</g>
<g id="Frame 1401">
<mask id="path-57-inside-21_4468_24671" fill="white">
<path d="M32 93H392V317H32V93Z"/>
</mask>
<path d="M32 93H392V317H32V93Z" fill="#F2F5F7"/>
<g id="Frame 1391">
<g id="Frame 1400">
<g id="Frame 1387">
<text id="Essentials Backup Package" fill="#002E5D" xml:space="preserve" style="white-space: pre" font-family="Poppins" font-size="16" font-weight="bold" letter-spacing="0.0112em"><tspan x="48" y="126.6">Essentials Backup Package</tspan></text>
<text id="10 kWh sonnen Battery System,&#226;&#128;&#168;Indoor/Outdoor" fill="#002E5D" xml:space="preserve" style="white-space: pre" font-family="Poppins" font-size="14" letter-spacing="0.0112em"><tspan x="48" y="148.4">10 kWh sonnen Battery System,&#x2028;</tspan><tspan x="48" y="169.4">Indoor/Outdoor</tspan></text>
</g>
</g>
<g id="Items">
<g id="Essential back up bullets">
<g id="Frame 1299">
<g id="ENERGY_Icon_SunPowered_FullColor">
<path id="Vector" d="M65.0655 201.766C64.3195 201.765 63.5902 201.986 62.9699 202.401C62.3495 202.815 61.866 203.404 61.5803 204.093C61.2947 204.782 61.2199 205.541 61.3653 206.272C61.5107 207.004 61.8698 207.676 62.3973 208.204C62.9247 208.731 63.5967 209.091 64.3283 209.236C65.06 209.382 65.8184 209.307 66.5076 209.022C67.1968 208.736 67.7859 208.253 68.2004 207.633C68.6149 207.012 68.8361 206.283 68.8361 205.537C68.8361 204.537 68.4389 203.578 67.7318 202.871C67.0247 202.163 66.0656 201.766 65.0655 201.766Z" fill="white"/>
<path id="Vector_2" d="M53.2949 202.141H48.2383V205.575H53.2949V202.141Z" fill="#B1B1B3"/>
<path id="Vector_3" d="M53.5366 205.82H48V201.9H53.5366V205.82ZM48.481 205.339H53.0556V202.384H48.481V205.339Z" fill="#101820"/>
<path id="Vector_4" d="M65.0655 202.247C65.7163 202.247 66.3525 202.44 66.8936 202.801C67.4347 203.163 67.8565 203.677 68.1055 204.278C68.3546 204.879 68.4198 205.541 68.2928 206.179C68.1659 206.817 67.8525 207.404 67.3923 207.864C66.9321 208.324 66.3458 208.638 65.7075 208.765C65.0692 208.891 64.4075 208.826 63.8063 208.577C63.205 208.328 62.6911 207.906 62.3295 207.365C61.9679 206.824 61.775 206.188 61.775 205.537C61.7757 204.665 62.1227 203.828 62.7396 203.211C63.3565 202.594 64.193 202.247 65.0655 202.247ZM65.0655 201.766C64.3195 201.765 63.5902 201.986 62.9699 202.401C62.3495 202.815 61.866 203.404 61.5803 204.093C61.2947 204.782 61.2199 205.541 61.3653 206.272C61.5107 207.004 61.8698 207.676 62.3973 208.204C62.9247 208.731 63.5967 209.091 64.3283 209.236C65.06 209.382 65.8184 209.307 66.5076 209.022C67.1968 208.736 67.7859 208.253 68.2004 207.633C68.6149 207.012 68.8361 206.283 68.8361 205.537C68.8361 204.537 68.4389 203.578 67.7318 202.871C67.0247 202.163 66.0656 201.766 65.0655 201.766Z" fill="#D71920"/>
<path id="Vector_5" d="M65.274 198.645H64.793V201.125H65.274V198.645Z" fill="#101820"/>
<path id="Vector_6" d="M65.2986 215.353H50.5039V213.104H50.9849V214.872H64.8176V209.949H65.2986V215.353Z" fill="#101820"/>
<path id="Vector_7" d="M60.6955 205.299H58.2148V205.78H60.6955V205.299Z" fill="#101820"/>
<path id="Vector_8" d="M72.0002 205.299H69.5195V205.78H72.0002V205.299Z" fill="#101820"/>
<path id="Vector_9" d="M60.4261 200.492L60.0859 200.832L61.84 202.586L62.1802 202.246L60.4261 200.492Z" fill="#101820"/>
<path id="Vector_10" d="M68.3714 208.486L68.0312 208.826L69.7853 210.58L70.1255 210.24L68.3714 208.486Z" fill="#101820"/>
<path id="Vector_11" d="M61.7971 208.49L60.043 210.244L60.3831 210.584L62.1372 208.83L61.7971 208.49Z" fill="#101820"/>
<path id="Vector_12" d="M69.6643 200.494L67.9102 202.248L68.2503 202.588L70.0044 200.834L69.6643 200.494Z" fill="#101820"/>
<path id="Vector_13" d="M50.1216 203.146H49.6406V204.578H50.1216V203.146Z" fill="#101820"/>
<path id="Vector_14" d="M51.8365 203.146H51.3555V204.578H51.8365V203.146Z" fill="#101820"/>
<path id="Vector_15" d="M50.1255 206.865H49.6445V208.297H50.1255V206.865Z" fill="#101820"/>
<path id="Vector_16" d="M51.8443 206.865H51.3633V208.297H51.8443V206.865Z" fill="#101820"/>
<path id="Vector_17" d="M53.2704 208.569V208.301H48.2148V209.658V209.889C48.2456 210.254 48.3548 210.607 48.5351 210.925C48.7154 211.244 48.9625 211.519 49.2593 211.733V212.531H52.2279V211.733C52.5252 211.518 52.7724 211.242 52.9526 210.923C53.1327 210.604 53.2415 210.249 53.2714 209.884V208.569H53.2704Z" fill="#2774AE"/>
</g>
<text id="Lights/Wall Outlets" fill="#002E5D" xml:space="preserve" style="white-space: pre" font-family="Poppins" font-size="12" letter-spacing="0.0112em"><tspan x="76" y="211.2">Lights/Wall Outlets</tspan></text>
</g>
<g id="Frame 1300">
<g id="filled/wifi">
<g id="Subtract">
<path d="M50 244.105L51.425 245.515C53.6197 243.343 56.6515 242 60 242C63.3485 242 66.3803 243.343 68.575 245.515L70 244.105C67.4381 241.57 63.901 240 60 240C56.099 240 52.5619 241.57 50 244.105Z" fill="#2774AE"/>
<path d="M67.145 246.93C65.3158 245.12 62.7893 244 60 244C57.2107 244 54.6842 245.12 52.855 246.93L54.285 248.345C55.7487 246.897 57.7699 246 60 246C62.2301 246 64.2513 246.897 65.715 248.345L67.145 246.93Z" fill="#2774AE"/>
<path d="M64.285 249.76C63.1868 248.673 61.6709 248 60 248C58.3291 248 56.8132 248.673 55.715 249.76L57.14 251.17C57.871 250.447 58.8816 250 60 250C61.1184 250 62.129 250.447 62.86 251.17L64.285 249.76Z" fill="#2774AE"/>
<path d="M61.5389 252.477C61.1026 252.176 60.5721 252 60 252C59.4279 252 58.8974 252.176 58.4611 252.477L60 254L61.5389 252.477Z" fill="#2774AE"/>
</g>
</g>
<text id="Internet/WiFi" fill="#002E5D" xml:space="preserve" style="white-space: pre" font-family="Poppins" font-size="12" letter-spacing="0.0112em"><tspan x="76" y="251.2">Internet/WiFi</tspan></text>
</g>
</g>
<g id="Column 2">
<g id="Frame 1301">
<g id="ENERGY_Icon_Microwave_FullColor">
<path id="Vector_18" d="M238.715 199.867H215.281V214.131H238.715V199.867Z" fill="#A9ABAC"/>
<path id="Vector_19" d="M239 214.413H215V199.586H239V214.413ZM215.565 213.848H238.435V200.151H215.565V213.848Z" fill="black"/>
<path id="Vector_20" d="M233.389 199.867H232.824V214.131H233.389V199.867Z" fill="black"/>
<path id="Vector_21" d="M230.201 201.834H218.159C217.758 201.834 217.434 202.159 217.434 202.559V211.402C217.434 211.802 217.758 212.127 218.159 212.127H230.201C230.601 212.127 230.926 211.802 230.926 211.402V202.559C230.926 202.159 230.601 201.834 230.201 201.834Z" fill="white"/>
<path id="Vector_22" d="M230.206 212.409H218.164C217.897 212.409 217.641 212.302 217.452 212.113C217.263 211.925 217.157 211.669 217.156 211.401V202.558C217.157 202.291 217.263 202.035 217.452 201.846C217.641 201.658 217.897 201.551 218.164 201.551H230.206C230.473 201.551 230.729 201.658 230.918 201.846C231.107 202.035 231.213 202.291 231.214 202.558V211.401C231.213 211.669 231.107 211.925 230.918 212.113C230.729 212.302 230.473 212.409 230.206 212.409ZM218.164 202.116C218.047 202.116 217.934 202.163 217.851 202.246C217.768 202.329 217.722 202.441 217.721 202.558V211.401C217.722 211.519 217.768 211.631 217.851 211.714C217.934 211.797 218.047 211.844 218.164 211.844H230.206C230.323 211.844 230.436 211.797 230.519 211.714C230.601 211.631 230.648 211.519 230.648 211.401V202.558C230.648 202.441 230.601 202.329 230.519 202.246C230.436 202.163 230.323 202.116 230.206 202.116H218.164Z" fill="white"/>
<path id="Vector_23" d="M234.427 203.352C234.717 203.352 234.952 203.117 234.952 202.828C234.952 202.538 234.717 202.303 234.427 202.303C234.137 202.303 233.902 202.538 233.902 202.828C233.902 203.117 234.137 203.352 234.427 203.352Z" fill="#0F7BB6"/>
<path id="Vector_24" d="M235.939 203.352C236.229 203.352 236.464 203.117 236.464 202.828C236.464 202.538 236.229 202.303 235.939 202.303C235.649 202.303 235.414 202.538 235.414 202.828C235.414 203.117 235.649 203.352 235.939 203.352Z" fill="#0F7BB6"/>
<path id="Vector_25" d="M237.458 203.352C237.748 203.352 237.983 203.117 237.983 202.828C237.983 202.538 237.748 202.303 237.458 202.303C237.169 202.303 236.934 202.538 236.934 202.828C236.934 203.117 237.169 203.352 237.458 203.352Z" fill="#0F7BB6"/>
<path id="Vector_26" d="M234.427 204.804C234.717 204.804 234.952 204.569 234.952 204.279C234.952 203.989 234.717 203.754 234.427 203.754C234.137 203.754 233.902 203.989 233.902 204.279C233.902 204.569 234.137 204.804 234.427 204.804Z" fill="#0F7BB6"/>
<path id="Vector_27" d="M235.939 204.804C236.229 204.804 236.464 204.569 236.464 204.279C236.464 203.989 236.229 203.754 235.939 203.754C235.649 203.754 235.414 203.989 235.414 204.279C235.414 204.569 235.649 204.804 235.939 204.804Z" fill="#0F7BB6"/>
<path id="Vector_28" d="M237.458 204.804C237.748 204.804 237.983 204.569 237.983 204.279C237.983 203.989 237.748 203.754 237.458 203.754C237.169 203.754 236.934 203.989 236.934 204.279C236.934 204.569 237.169 204.804 237.458 204.804Z" fill="#0F7BB6"/>
<path id="Vector_29" d="M234.427 206.257C234.717 206.257 234.952 206.022 234.952 205.732C234.952 205.442 234.717 205.207 234.427 205.207C234.137 205.207 233.902 205.442 233.902 205.732C233.902 206.022 234.137 206.257 234.427 206.257Z" fill="#0F7BB6"/>
<path id="Vector_30" d="M235.939 206.257C236.229 206.257 236.464 206.022 236.464 205.732C236.464 205.442 236.229 205.207 235.939 205.207C235.649 205.207 235.414 205.442 235.414 205.732C235.414 206.022 235.649 206.257 235.939 206.257Z" fill="#0F7BB6"/>
<path id="Vector_31" d="M237.458 206.257C237.748 206.257 237.983 206.022 237.983 205.732C237.983 205.442 237.748 205.207 237.458 205.207C237.169 205.207 236.934 205.442 236.934 205.732C236.934 206.022 237.169 206.257 237.458 206.257Z" fill="#0F7BB6"/>
<path id="Vector_32" d="M226.233 209.468C226.191 209.468 226.149 209.459 226.112 209.441C226.074 209.423 226.04 209.397 226.013 209.365C225.771 209.066 225.629 208.614 225.629 208.125C225.629 207.52 225.767 207.132 226.105 206.786C226.322 206.564 226.419 206.272 226.419 205.843C226.419 205.452 226.293 205.098 226.177 204.963C226.151 204.935 226.13 204.903 226.117 204.867C226.103 204.831 226.097 204.793 226.099 204.755C226.1 204.717 226.11 204.68 226.126 204.645C226.142 204.611 226.166 204.58 226.194 204.555C226.223 204.53 226.256 204.51 226.293 204.499C226.329 204.487 226.367 204.482 226.405 204.485C226.443 204.489 226.48 204.5 226.514 204.518C226.547 204.535 226.577 204.56 226.601 204.59C226.835 204.856 226.986 205.348 226.986 205.843C226.986 206.416 226.831 206.854 226.511 207.182C226.317 207.38 226.196 207.607 226.196 208.125C226.196 208.544 226.329 208.851 226.452 209.006C226.486 209.048 226.508 209.098 226.514 209.151C226.521 209.204 226.512 209.258 226.49 209.306C226.467 209.355 226.431 209.395 226.385 209.424C226.34 209.453 226.288 209.468 226.234 209.468H226.233Z" fill="#D71920"/>
<path id="Vector_33" d="M224.119 209.467C224.077 209.467 224.036 209.458 223.998 209.44C223.96 209.422 223.927 209.396 223.9 209.363C223.658 209.065 223.516 208.613 223.516 208.123C223.516 207.518 223.654 207.131 223.991 206.785C224.209 206.562 224.306 206.271 224.306 205.841C224.306 205.451 224.18 205.096 224.064 204.961C224.039 204.933 224.021 204.901 224.009 204.866C223.997 204.831 223.992 204.794 223.994 204.757C223.997 204.72 224.006 204.683 224.023 204.65C224.039 204.617 224.062 204.587 224.09 204.562C224.118 204.538 224.15 204.519 224.185 204.507C224.22 204.495 224.257 204.49 224.294 204.493C224.332 204.495 224.368 204.505 224.401 204.521C224.434 204.538 224.464 204.56 224.489 204.588C224.723 204.855 224.874 205.346 224.874 205.841C224.874 206.415 224.718 206.852 224.398 207.18C224.204 207.379 224.083 207.606 224.083 208.123C224.083 208.542 224.216 208.85 224.34 209.005C224.374 209.046 224.395 209.097 224.402 209.15C224.409 209.203 224.4 209.257 224.377 209.305C224.354 209.354 224.318 209.394 224.273 209.423C224.227 209.452 224.175 209.467 224.121 209.467H224.119Z" fill="#D71920"/>
<path id="Vector_34" d="M222.009 209.467C221.968 209.467 221.926 209.458 221.888 209.44C221.851 209.422 221.817 209.396 221.791 209.363C221.548 209.065 221.406 208.613 221.406 208.123C221.406 207.518 221.544 207.131 221.882 206.785C222.099 206.562 222.197 206.271 222.197 205.841C222.197 205.451 222.071 205.096 221.954 204.961C221.93 204.933 221.911 204.901 221.899 204.866C221.887 204.831 221.882 204.794 221.885 204.757C221.887 204.72 221.897 204.683 221.913 204.65C221.93 204.617 221.952 204.587 221.98 204.562C222.008 204.538 222.041 204.519 222.076 204.507C222.111 204.495 222.148 204.49 222.185 204.493C222.222 204.495 222.258 204.505 222.292 204.521C222.325 204.538 222.355 204.56 222.379 204.588C222.613 204.855 222.764 205.346 222.764 205.841C222.764 206.415 222.609 206.852 222.288 207.18C222.094 207.379 221.974 207.606 221.974 208.123C221.974 208.542 222.106 208.85 222.231 209.005C222.264 209.046 222.285 209.097 222.292 209.15C222.298 209.203 222.289 209.256 222.267 209.305C222.244 209.353 222.208 209.394 222.163 209.423C222.118 209.451 222.065 209.467 222.012 209.467H222.009Z" fill="#D71920"/>
</g>
<text id="Small Appliances" fill="#002E5D" xml:space="preserve" style="white-space: pre" font-family="Poppins" font-size="12" letter-spacing="0.0112em"><tspan x="243" y="211.2">Small Appliances</tspan></text>
</g>
<g id="Frame 1302">
<g id="ENERGY_Icon_Refridgerator_FullColor">
<path id="Vector_35" d="M233.805 258.083H215.285V234.785H224.545H233.805V258.083Z" fill="#0F7BB6"/>
<path id="Vector_36" d="M235 259.499H215V234.496H235V259.499ZM215.606 258.893H234.394V235.103H215.606V258.893Z" fill="black"/>
<path id="Vector_37" d="M224.837 234.785H224.258V251.29H224.837V234.785Z" fill="black"/>
<path id="Vector_38" d="M222.993 248.78C222.916 248.78 222.842 248.749 222.788 248.695C222.734 248.641 222.703 248.567 222.703 248.49V243.692C222.703 243.615 222.734 243.541 222.788 243.487C222.842 243.433 222.916 243.402 222.993 243.402C223.069 243.402 223.143 243.433 223.197 243.487C223.252 243.541 223.282 243.615 223.282 243.692V248.49C223.282 248.567 223.252 248.641 223.197 248.695C223.143 248.749 223.069 248.78 222.993 248.78Z" fill="black"/>
<path id="Vector_39" d="M226.118 248.78C226.041 248.78 225.967 248.749 225.913 248.695C225.859 248.641 225.828 248.567 225.828 248.49V243.692C225.828 243.615 225.859 243.541 225.913 243.487C225.967 243.433 226.041 243.402 226.118 243.402C226.194 243.402 226.268 243.433 226.322 243.487C226.377 243.541 226.407 243.615 226.407 243.692V248.49C226.407 248.567 226.377 248.641 226.322 248.695C226.268 248.749 226.194 248.78 226.118 248.78Z" fill="black"/>
<path id="Vector_40" d="M219.79 258.084H217.238V259.21H219.79V258.084Z" fill="black"/>
<path id="Vector_41" d="M220.084 259.502H216.953V257.797H220.084V259.502ZM217.532 258.923H219.505V258.376H217.532V258.923Z" fill="black"/>
<path id="Vector_42" d="M231.895 258.084H229.344V259.21H231.895V258.084Z" fill="black"/>
<path id="Vector_43" d="M232.185 259.502H229.055V257.797H232.185V259.502ZM229.634 258.923H231.606V258.376H229.634V258.923Z" fill="black"/>
<path id="Vector_44" d="M233.806 251.002H215.285V251.581H233.806V251.002Z" fill="black"/>
<path id="Vector_45" d="M226.402 253.206H222.817C222.74 253.206 222.666 253.176 222.612 253.121C222.558 253.067 222.527 252.993 222.527 252.917C222.527 252.84 222.558 252.766 222.612 252.712C222.666 252.657 222.74 252.627 222.817 252.627H226.402C226.479 252.627 226.553 252.657 226.607 252.712C226.662 252.766 226.692 252.84 226.692 252.917C226.692 252.993 226.662 253.067 226.607 253.121C226.553 253.176 226.479 253.206 226.402 253.206Z" fill="black"/>
</g>
<text id="Refrigerator/Freezer" fill="#002E5D" xml:space="preserve" style="white-space: pre" font-family="Poppins" font-size="12" letter-spacing="0.0112em"><tspan x="243" y="251.2">Refrigerator/Freezer</tspan></text>
</g>
</g>
</g>
</g>
<path d="M32 98H392V88H32V98Z" fill="#002E5D" mask="url(#path-57-inside-21_4468_24671)"/>
</g>
<g id="Frame 1402">
<mask id="path-111-inside-22_4468_24671" fill="white">
<path d="M412 93H772V317H412V93Z"/>
</mask>
<path d="M412 93H772V317H412V93Z" fill="#F2F5F7"/>
<g id="Max Backup Pckage">
<g id="Frame 1387_2">
<text id="Max Backup Package" fill="#002E5D" xml:space="preserve" style="white-space: pre" font-family="Poppins" font-size="16" font-weight="bold" letter-spacing="0.0112em"><tspan x="428" y="126.6">Max Backup Package</tspan></text>
<text id="60 kWh sonnen Battery System, Indoor only, Three Units + AC Connection Module" fill="#002E5D" xml:space="preserve" style="white-space: pre" font-family="Poppins" font-size="14" letter-spacing="0.0112em"><tspan x="428" y="148.4">60 kWh sonnen Battery System, Indoor only, </tspan><tspan x="428" y="169.4">Three Units + AC Connection Module</tspan></text>
</g>
<g id="Elements">
<g id="Items_2">
<g id="Essential back up bullets_2">
<g id="Frame 1299_2">
<g id="ENERGY_Icon_LightBulb_FullColor">
<path id="Vector_46" d="M440.066 197.562C442.089 197.562 444.028 198.366 445.458 199.796C446.888 201.226 447.691 203.165 447.691 205.188C447.691 208.159 445.464 209.93 444.173 212.649C443.568 213.924 443.51 217.968 443.51 217.968V218.227H436.595C436.595 218.227 436.539 213.932 435.933 212.657C434.636 209.933 432.414 208.167 432.414 205.195C432.414 203.173 433.217 201.234 434.647 199.804C436.077 198.374 438.017 197.57 440.039 197.57L440.066 197.562Z" fill="white"/>
<path id="Vector_47" d="M442.19 218.291C442.19 218.853 441.967 219.392 441.569 219.789C441.172 220.186 440.633 220.409 440.071 220.409C439.51 220.409 438.971 220.186 438.574 219.789C438.176 219.392 437.953 218.853 437.953 218.291" fill="#B1B1B3"/>
<path id="Vector_48" d="M443.802 214.08H436.234C436.533 215.629 436.568 218.382 436.568 218.382H443.482V218.131C443.482 218.131 443.509 215.559 443.802 214.08Z" fill="#B1B1B3"/>
<path id="Vector_49" d="M442.582 206.676C443.663 206.042 445.316 206.852 445.316 206.852C445.316 206.852 445.214 208.689 444.133 209.323C443.052 209.957 441.398 209.147 441.398 209.147C441.398 209.147 441.5 207.31 442.582 206.676Z" fill="#D71920"/>
<path id="Vector_50" d="M438.912 202.37C440.52 203.33 440.651 206.077 440.651 206.077C440.651 206.077 438.174 207.267 436.565 206.307C434.957 205.347 434.824 202.603 434.824 202.603C434.824 202.603 437.303 201.418 438.912 202.37Z" fill="#2774AE"/>
<path id="Vector_51" d="M440.409 193.266H439.773V196.557H440.409V193.266Z" fill="#101820"/>
<path id="Vector_52" d="M431.291 204.859H428V205.495H431.291V204.859Z" fill="#101820"/>
<path id="Vector_53" d="M452.002 204.859H448.711V205.495H452.002V204.859Z" fill="#101820"/>
<path id="Vector_54" d="M431.602 196.595L431.152 197.045L433.479 199.372L433.929 198.923L431.602 196.595Z" fill="#101820"/>
<path id="Vector_55" d="M448.46 196.646L446.133 198.973L446.582 199.422L448.909 197.095L448.46 196.646Z" fill="#101820"/>
<path id="Vector_56" d="M440.072 197.242H440.048C437.942 197.245 435.924 198.082 434.435 199.571C432.946 201.06 432.108 203.079 432.105 205.185C432.105 207.24 433.1 208.719 434.155 210.286C434.674 211.064 435.224 211.876 435.655 212.783C436.127 213.776 436.271 217.045 436.286 218.221V218.535H437.647C437.706 219.137 437.987 219.695 438.435 220.101C438.884 220.508 439.467 220.733 440.072 220.733C440.677 220.733 441.26 220.508 441.708 220.101C442.156 219.695 442.437 219.137 442.496 218.535H443.836L443.828 217.964C443.828 217.924 443.891 213.981 444.46 212.783C444.891 211.875 445.434 211.068 445.961 210.286C447.014 208.719 448.009 207.24 448.009 205.185C448.007 203.08 447.17 201.062 445.682 199.573C444.194 198.084 442.177 197.246 440.072 197.242ZM440.072 220.091C439.637 220.09 439.217 219.932 438.89 219.646C438.562 219.36 438.349 218.965 438.289 218.535H441.854C441.796 218.965 441.584 219.361 441.257 219.647C440.931 219.934 440.512 220.094 440.077 220.096L440.072 220.091ZM436.91 217.899C436.91 217.726 436.899 217.493 436.888 217.218H442.412V216.582H436.862C436.851 216.366 436.836 216.137 436.818 215.903H440.321V215.267H436.77C436.748 215.036 436.724 214.804 436.696 214.577H443.424C443.247 215.993 443.21 217.56 443.203 217.899H436.91ZM445.433 209.932C444.895 210.732 444.337 211.561 443.885 212.51C443.699 212.968 443.571 213.448 443.505 213.937H440.37V213.872C440.37 213.326 440.37 212.269 440.37 211.499V211.288C440.37 210.463 440.78 209.991 441.514 209.541C442.028 209.75 442.575 209.865 443.129 209.88C443.534 209.89 443.935 209.791 444.289 209.594C445.504 208.882 445.625 206.949 445.629 206.87L445.641 206.66L445.453 206.568C445.379 206.532 443.636 205.691 442.417 206.403C441.312 207.052 441.112 208.71 441.082 209.065C440.874 209.198 440.678 209.349 440.497 209.516C440.558 209.157 440.633 208.821 440.707 208.492C440.932 207.486 441.143 206.534 440.854 205.189C440.675 204.245 440.22 202.781 439.07 202.096C437.335 201.059 434.789 202.262 434.683 202.314L434.494 202.405L434.504 202.615C434.504 202.735 434.662 205.544 436.398 206.58C436.912 206.869 437.495 207.013 438.084 206.999C438.863 206.979 439.632 206.824 440.357 206.539C440.331 207.153 440.241 207.761 440.086 208.355C439.85 209.276 439.73 210.222 439.729 211.172C439.729 211.275 439.729 211.39 439.729 211.512V211.901C439.729 212.604 439.729 213.42 439.729 213.878V213.945H436.603C436.54 213.455 436.415 212.976 436.229 212.518C435.778 211.569 435.221 210.74 434.682 209.938C433.684 208.455 432.736 207.053 432.736 205.193C432.738 203.255 433.509 201.398 434.878 200.028C436.248 198.658 438.106 197.888 440.043 197.886H440.066C442.004 197.888 443.861 198.658 445.231 200.028C446.601 201.398 447.372 203.255 447.374 205.193C447.379 207.045 446.437 208.448 445.438 209.932H445.433ZM440.313 205.874C439.718 206.116 437.92 206.746 436.725 206.033C435.53 205.321 435.228 203.439 435.159 202.801C435.753 202.558 437.552 201.93 438.747 202.642C439.942 203.355 440.249 205.236 440.318 205.874H440.313ZM444.674 206.945C443.908 207.594 443.063 208.022 442.305 208.4C442.129 208.488 441.953 208.576 441.787 208.659C441.902 208.078 442.176 207.277 442.745 206.945C443.333 206.605 444.153 206.777 444.679 206.945H444.674ZM444.864 207.611C444.722 208.148 444.452 208.767 443.97 209.049C443.465 209.345 442.788 209.262 442.276 209.126C442.377 209.075 442.481 209.022 442.59 208.969C443.316 208.61 444.112 208.211 444.869 207.611H444.864Z" fill="#101820"/>
</g>
<text id="Essential Backup Circuits" fill="#002E5D" xml:space="preserve" style="white-space: pre" font-family="Poppins" font-size="12" letter-spacing="0.0112em"><tspan x="460" y="211.2">Essential Backup Circuits</tspan></text>
</g>
<g id="Frame 1300_2">
<g id="filled-air-conditioning 1" clip-path="url(#clip0_4468_24671)">
<g id="Layer 2">
<path id="Vector_57" d="M428.25 247.35V238.25H451.75V247.35H428.25Z" fill="#B1B3B3" stroke="#101820" stroke-width="0.5"/>
<g id="Frame 1401_2">
<mask id="path-128-inside-23_4468_24671" fill="white">
<path d="M430 247.598H450V249.998H430V247.598Z"/>
</mask>
<path d="M430 247.598H450V249.998H430V247.598Z" fill="#B1B3B3"/>
<path d="M450 249.998V250.498H450.5V249.998H450ZM430 249.998H429.5V250.498H430V249.998ZM449.5 247.598V249.998H450.5V247.598H449.5ZM450 249.498H430V250.498H450V249.498ZM430.5 249.998V247.598H429.5V249.998H430.5Z" fill="#101820" mask="url(#path-128-inside-23_4468_24671)"/>
</g>
<path id="Vector_58" d="M450 245.201H430V246.201H450V245.201Z" fill="white"/>
<path id="Vector_59" d="M437.2 240H430V241H437.2V240Z" fill="#D71920"/>
<path id="Vector_60" d="M446 240H445V241H446V240Z" fill="#D71920"/>
<path id="Vector_61" d="M448 240H447V241H448V240Z" fill="#D71920"/>
<path id="Vector_62" d="M450 240H449V241H450V240Z" fill="#D71920"/>
<path id="Vector_63" d="M448 248H432V249H448V248Z" fill="white"/>
<path id="Vector_64" d="M433.926 256C433.926 256 433.854 256 433.818 255.976C433.782 255.964 433.758 255.928 433.734 255.904C433.518 255.616 433.398 255.184 433.398 254.704C433.398 254.116 433.518 253.744 433.818 253.408C434.01 253.192 434.094 252.916 434.094 252.496C434.094 252.124 433.986 251.776 433.878 251.644C433.854 251.62 433.842 251.584 433.83 251.548C433.83 251.512 433.818 251.476 433.818 251.44C433.818 251.404 433.818 251.367 433.842 251.331C433.854 251.295 433.878 251.272 433.902 251.248C433.926 251.224 433.95 251.212 433.986 251.2C434.022 251.2 434.046 251.188 434.082 251.188C434.118 251.188 434.142 251.188 434.178 251.212C434.202 251.224 434.238 251.248 434.25 251.272C434.454 251.524 434.586 252.004 434.586 252.484C434.586 253.036 434.454 253.456 434.166 253.78C433.998 253.972 433.89 254.188 433.89 254.692C433.89 255.1 434.01 255.388 434.118 255.544C434.154 255.58 434.166 255.628 434.178 255.688C434.178 255.736 434.178 255.796 434.154 255.844C434.13 255.892 434.106 255.928 434.058 255.952C434.022 255.976 433.974 256 433.926 256Z" fill="#2774AE"/>
<path id="Vector_65" d="M436.325 256C436.325 256 436.253 256 436.217 255.976C436.181 255.964 436.157 255.928 436.133 255.904C435.917 255.616 435.797 255.184 435.797 254.704C435.797 254.116 435.917 253.744 436.217 253.408C436.409 253.192 436.493 252.916 436.493 252.496C436.493 252.124 436.385 251.776 436.277 251.644C436.253 251.62 436.241 251.584 436.229 251.548C436.229 251.512 436.217 251.476 436.217 251.44C436.217 251.404 436.217 251.367 436.241 251.331C436.253 251.295 436.277 251.272 436.301 251.248C436.325 251.224 436.349 251.212 436.385 251.2C436.421 251.2 436.445 251.188 436.481 251.188C436.517 251.188 436.541 251.188 436.577 251.212C436.601 251.224 436.637 251.248 436.649 251.272C436.853 251.524 436.985 252.004 436.985 252.484C436.985 253.036 436.853 253.456 436.565 253.78C436.397 253.972 436.289 254.188 436.289 254.692C436.289 255.1 436.409 255.388 436.517 255.544C436.553 255.58 436.565 255.628 436.577 255.688C436.577 255.736 436.577 255.796 436.553 255.844C436.529 255.892 436.505 255.928 436.457 255.952C436.421 255.976 436.373 256 436.325 256Z" fill="#2774AE"/>
<path id="Vector_66" d="M438.731 256C438.731 256 438.659 256 438.623 255.976C438.587 255.964 438.563 255.928 438.539 255.904C438.323 255.616 438.203 255.184 438.203 254.704C438.203 254.116 438.323 253.744 438.623 253.408C438.815 253.192 438.899 252.916 438.899 252.496C438.899 252.124 438.791 251.776 438.683 251.644C438.659 251.62 438.647 251.584 438.635 251.548C438.635 251.512 438.623 251.476 438.623 251.44C438.623 251.404 438.623 251.367 438.647 251.331C438.659 251.295 438.683 251.272 438.707 251.248C438.731 251.224 438.755 251.212 438.791 251.2C438.827 251.2 438.851 251.188 438.887 251.188C438.923 251.188 438.947 251.188 438.983 251.212C439.007 251.224 439.043 251.248 439.055 251.272C439.259 251.524 439.391 252.004 439.391 252.484C439.391 253.036 439.259 253.456 438.971 253.78C438.803 253.972 438.695 254.188 438.695 254.692C438.695 255.1 438.815 255.388 438.923 255.544C438.959 255.58 438.971 255.628 438.983 255.688C438.983 255.736 438.983 255.796 438.959 255.844C438.935 255.892 438.911 255.928 438.863 255.952C438.827 255.976 438.779 256 438.731 256Z" fill="#2774AE"/>
<path id="Vector_67" d="M441.13 256C441.13 256 441.058 256 441.022 255.976C440.986 255.964 440.962 255.928 440.938 255.904C440.722 255.616 440.602 255.184 440.602 254.704C440.602 254.116 440.722 253.744 441.022 253.408C441.214 253.192 441.298 252.916 441.298 252.496C441.298 252.124 441.19 251.776 441.082 251.644C441.058 251.62 441.046 251.584 441.034 251.548C441.034 251.512 441.022 251.476 441.022 251.44C441.022 251.404 441.022 251.367 441.046 251.331C441.058 251.295 441.082 251.272 441.106 251.248C441.13 251.224 441.154 251.212 441.19 251.2C441.226 251.2 441.25 251.188 441.286 251.188C441.322 251.188 441.346 251.188 441.382 251.212C441.406 251.224 441.442 251.248 441.454 251.272C441.658 251.524 441.79 252.004 441.79 252.484C441.79 253.036 441.658 253.456 441.37 253.78C441.202 253.972 441.094 254.188 441.094 254.692C441.094 255.1 441.214 255.388 441.322 255.544C441.358 255.58 441.37 255.628 441.382 255.688C441.382 255.736 441.382 255.796 441.358 255.844C441.334 255.892 441.31 255.928 441.262 255.952C441.226 255.976 441.178 256 441.13 256Z" fill="#2774AE"/>
<path id="Vector_68" d="M443.528 256C443.528 256 443.456 256 443.42 255.976C443.384 255.964 443.36 255.928 443.336 255.904C443.12 255.616 443 255.184 443 254.704C443 254.116 443.12 253.744 443.42 253.408C443.612 253.192 443.696 252.916 443.696 252.496C443.696 252.124 443.588 251.776 443.48 251.644C443.456 251.62 443.444 251.584 443.432 251.548C443.432 251.512 443.42 251.476 443.42 251.44C443.42 251.404 443.42 251.367 443.444 251.331C443.456 251.295 443.48 251.272 443.504 251.248C443.528 251.224 443.552 251.212 443.588 251.2C443.624 251.2 443.648 251.188 443.684 251.188C443.72 251.188 443.744 251.188 443.78 251.212C443.804 251.224 443.84 251.248 443.852 251.272C444.056 251.524 444.188 252.004 444.188 252.484C444.188 253.036 444.056 253.456 443.768 253.78C443.6 253.972 443.492 254.188 443.492 254.692C443.492 255.1 443.612 255.388 443.72 255.544C443.756 255.58 443.768 255.628 443.78 255.688C443.78 255.736 443.78 255.796 443.756 255.844C443.732 255.892 443.708 255.928 443.66 255.952C443.624 255.976 443.576 256 443.528 256Z" fill="#2774AE"/>
<path id="Vector_69" d="M445.934 256C445.934 256 445.862 256 445.826 255.976C445.79 255.964 445.766 255.928 445.742 255.904C445.526 255.616 445.406 255.184 445.406 254.704C445.406 254.116 445.526 253.744 445.826 253.408C446.018 253.192 446.102 252.916 446.102 252.496C446.102 252.124 445.994 251.776 445.886 251.644C445.862 251.62 445.85 251.584 445.838 251.548C445.838 251.512 445.826 251.476 445.826 251.44C445.826 251.404 445.826 251.367 445.85 251.331C445.862 251.295 445.886 251.272 445.91 251.248C445.934 251.224 445.958 251.212 445.994 251.2C446.03 251.2 446.054 251.188 446.09 251.188C446.126 251.188 446.15 251.188 446.186 251.212C446.21 251.224 446.246 251.248 446.258 251.272C446.462 251.524 446.594 252.004 446.594 252.484C446.594 253.036 446.462 253.456 446.174 253.78C446.006 253.972 445.898 254.188 445.898 254.692C445.898 255.1 446.018 255.388 446.126 255.544C446.162 255.58 446.174 255.628 446.186 255.688C446.186 255.736 446.186 255.796 446.162 255.844C446.138 255.892 446.114 255.928 446.066 255.952C446.03 255.976 445.982 256 445.934 256Z" fill="#2774AE"/>
</g>
</g>
<text id="Air Conditioning" fill="#002E5D" xml:space="preserve" style="white-space: pre" font-family="Poppins" font-size="12" letter-spacing="0.0112em"><tspan x="460" y="251.2">Air Conditioning</tspan></text>
</g>
</g>
<g id="Column 2_2">
<g id="Frame 1301_2">
<g id="ENERGY_Icon_SpaceHeater_FullColor">
<path id="Vector_70" d="M655.633 197.098H648.195C647.219 197.101 646.284 197.49 645.594 198.18C644.904 198.87 644.515 199.805 644.512 200.781V216.905H647.86V215.793H655.955V216.905H659.325V200.783C659.322 199.805 658.932 198.869 658.24 198.178C657.548 197.487 656.611 197.099 655.633 197.098Z" fill="#A9ABAC"/>
<path id="Vector_71" d="M659.61 217.196H655.654V216.085H648.145V217.196H644.215V200.783C644.216 199.728 644.635 198.717 645.381 197.971C646.127 197.225 647.138 196.806 648.193 196.805H655.632C656.687 196.806 657.698 197.225 658.444 197.971C659.19 198.717 659.609 199.728 659.61 200.783V217.196ZM656.24 216.61H659.024V200.783C659.023 199.884 658.666 199.021 658.03 198.385C657.394 197.749 656.531 197.391 655.632 197.391H648.193C647.294 197.391 646.431 197.749 645.795 198.385C645.159 199.021 644.802 199.884 644.801 200.783V216.61H647.563V215.5H656.24V216.61Z" fill="black"/>
<path id="Vector_72" d="M651.912 210.642C655.08 210.642 657.648 208.074 657.648 204.906C657.648 201.738 655.08 199.17 651.912 199.17C648.744 199.17 646.176 201.738 646.176 204.906C646.176 208.074 648.744 210.642 651.912 210.642Z" fill="white"/>
<path id="Vector_73" d="M651.913 210.934C650.721 210.934 649.556 210.581 648.565 209.918C647.574 209.256 646.802 208.315 646.345 207.214C645.889 206.112 645.77 204.901 646.003 203.732C646.235 202.563 646.809 201.489 647.652 200.646C648.495 199.803 649.569 199.229 650.738 198.997C651.907 198.764 653.118 198.883 654.22 199.34C655.321 199.796 656.262 200.568 656.924 201.559C657.586 202.55 657.94 203.715 657.94 204.907C657.937 206.505 657.301 208.036 656.172 209.166C655.042 210.296 653.511 210.931 651.913 210.934ZM651.913 199.462C650.837 199.462 649.785 199.781 648.891 200.379C647.996 200.976 647.299 201.826 646.887 202.82C646.475 203.814 646.367 204.908 646.577 205.964C646.787 207.019 647.305 207.989 648.066 208.75C648.827 209.51 649.796 210.029 650.852 210.238C651.907 210.448 653.001 210.341 653.995 209.929C654.989 209.517 655.839 208.82 656.437 207.925C657.035 207.03 657.354 205.978 657.354 204.902C657.351 203.46 656.777 202.078 655.758 201.058C654.738 200.038 653.355 199.464 651.913 199.462Z" fill="black"/>
<g id="Group">
<path id="Vector_74" d="M657.923 200.35H645.742V200.936H657.923V200.35Z" fill="#0F7BB6"/>
<path id="Vector_75" d="M657.923 202.062H645.742V202.648H657.923V202.062Z" fill="#0F7BB6"/>
<path id="Vector_76" d="M657.923 203.775H645.742V204.361H657.923V203.775Z" fill="#0F7BB6"/>
<path id="Vector_77" d="M657.923 205.486H645.742V206.072H657.923V205.486Z" fill="#0F7BB6"/>
<path id="Vector_78" d="M657.923 207.197H645.742V207.783H657.923V207.197Z" fill="#0F7BB6"/>
<path id="Vector_79" d="M657.923 208.908H645.742V209.494H657.923V208.908Z" fill="#0F7BB6"/>
</g>
<path id="Vector_80" d="M643.347 202.265C642.99 202.265 642.586 202.105 642.235 201.825C641.794 201.475 641.592 201.149 641.535 200.7C641.502 200.428 641.353 200.198 641.053 199.961C640.78 199.743 640.467 199.635 640.308 199.642C640.269 199.643 640.231 199.638 640.194 199.625C640.158 199.612 640.125 199.592 640.096 199.566C640.068 199.54 640.045 199.509 640.028 199.474C640.012 199.439 640.002 199.401 640 199.363C639.998 199.324 640.004 199.286 640.017 199.25C640.03 199.213 640.05 199.18 640.076 199.152C640.102 199.123 640.133 199.1 640.168 199.083C640.203 199.067 640.241 199.058 640.279 199.056C640.614 199.04 641.058 199.215 641.418 199.502C641.837 199.837 642.064 200.202 642.117 200.627C642.148 200.878 642.238 201.078 642.6 201.366C642.889 201.596 643.173 201.678 643.348 201.678C643.351 201.678 643.355 201.678 643.359 201.678C643.437 201.678 643.512 201.709 643.566 201.764C643.621 201.819 643.652 201.893 643.652 201.971C643.652 202.049 643.621 202.123 643.566 202.178C643.512 202.233 643.437 202.264 643.359 202.264L643.347 202.265Z" fill="#D71920"/>
<path id="Vector_81" d="M643.347 205.231C642.99 205.231 642.586 205.072 642.235 204.792C641.794 204.441 641.592 204.116 641.535 203.667C641.502 203.394 641.353 203.165 641.053 202.927C640.78 202.709 640.467 202.6 640.308 202.608C640.269 202.61 640.231 202.604 640.194 202.591C640.158 202.578 640.125 202.558 640.096 202.532C640.068 202.507 640.045 202.475 640.028 202.441C640.012 202.406 640.002 202.368 640 202.329C639.998 202.291 640.004 202.253 640.017 202.216C640.03 202.18 640.05 202.147 640.076 202.118C640.102 202.09 640.133 202.066 640.168 202.05C640.203 202.034 640.241 202.024 640.279 202.022C640.61 202.008 641.058 202.181 641.418 202.468C641.837 202.803 642.064 203.168 642.117 203.593C642.148 203.844 642.238 204.045 642.6 204.333C642.892 204.566 643.186 204.651 643.353 204.645C643.392 204.644 643.43 204.651 643.466 204.666C643.502 204.68 643.534 204.701 643.562 204.728C643.589 204.755 643.611 204.787 643.626 204.822C643.642 204.857 643.65 204.895 643.65 204.934C643.651 204.972 643.644 205.011 643.629 205.046C643.615 205.082 643.594 205.115 643.567 205.142C643.54 205.17 643.508 205.192 643.473 205.207C643.437 205.222 643.399 205.23 643.361 205.231L643.347 205.231Z" fill="#D71920"/>
<path id="Vector_82" d="M643.347 208.198C642.99 208.198 642.586 208.038 642.235 207.759C641.794 207.408 641.592 207.083 641.535 206.634C641.502 206.361 641.353 206.132 641.053 205.894C640.78 205.676 640.467 205.566 640.308 205.575C640.23 205.579 640.154 205.552 640.096 205.499C640.039 205.447 640.004 205.374 640 205.296C639.997 205.219 640.024 205.143 640.076 205.085C640.128 205.027 640.201 204.993 640.279 204.989C640.614 204.974 641.058 205.148 641.418 205.435C641.837 205.77 642.064 206.135 642.117 206.56C642.148 206.811 642.238 207.011 642.6 207.3C642.889 207.53 643.173 207.612 643.348 207.612H643.363C643.44 207.612 643.515 207.642 643.57 207.697C643.625 207.752 643.656 207.827 643.656 207.905C643.656 207.982 643.625 208.057 643.57 208.112C643.515 208.167 643.44 208.197 643.363 208.197L643.347 208.198Z" fill="#D71920"/>
<path id="Vector_83" d="M660.653 202.266H660.637C660.559 202.266 660.484 202.235 660.43 202.18C660.375 202.125 660.344 202.051 660.344 201.973C660.344 201.895 660.375 201.821 660.43 201.766C660.484 201.711 660.559 201.68 660.637 201.68H660.648C660.823 201.68 661.107 201.596 661.396 201.368C661.758 201.08 661.848 200.878 661.879 200.629C661.932 200.203 662.161 199.836 662.578 199.504C662.939 199.217 663.386 199.042 663.717 199.058C663.755 199.059 663.793 199.069 663.828 199.085C663.863 199.102 663.894 199.125 663.92 199.153C663.946 199.182 663.966 199.215 663.979 199.252C663.992 199.288 663.998 199.326 663.996 199.365C663.994 199.403 663.984 199.441 663.968 199.476C663.951 199.511 663.928 199.542 663.9 199.568C663.871 199.594 663.838 199.614 663.802 199.627C663.765 199.64 663.727 199.645 663.688 199.643C663.532 199.636 663.216 199.745 662.943 199.962C662.643 200.201 662.494 200.429 662.461 200.702C662.404 201.151 662.202 201.477 661.761 201.827C661.413 202.106 661.009 202.266 660.653 202.266Z" fill="#D71920"/>
<path id="Vector_84" d="M660.653 205.233H660.637C660.559 205.233 660.484 205.202 660.43 205.147C660.375 205.092 660.344 205.017 660.344 204.94C660.344 204.862 660.375 204.788 660.43 204.733C660.484 204.678 660.559 204.647 660.637 204.647H660.648C660.924 204.626 661.186 204.517 661.396 204.335C661.758 204.047 661.848 203.845 661.879 203.596C661.932 203.17 662.161 202.803 662.578 202.471C662.939 202.183 663.385 202.009 663.717 202.024C663.795 202.028 663.868 202.063 663.92 202.12C663.972 202.178 663.999 202.254 663.996 202.332C663.992 202.409 663.957 202.482 663.9 202.535C663.842 202.587 663.766 202.614 663.688 202.61C663.531 202.603 663.216 202.712 662.943 202.929C662.643 203.168 662.495 203.396 662.461 203.669C662.404 204.118 662.202 204.443 661.761 204.794C661.413 205.073 661.009 205.233 660.653 205.233Z" fill="#D71920"/>
<path id="Vector_85" d="M660.653 208.2H660.637C660.559 208.199 660.485 208.167 660.431 208.111C660.377 208.055 660.347 207.981 660.348 207.903C660.349 207.825 660.381 207.751 660.436 207.697C660.492 207.643 660.567 207.613 660.644 207.614C660.819 207.614 661.107 207.535 661.398 207.302C661.76 207.013 661.85 206.812 661.881 206.562C661.934 206.137 662.163 205.77 662.58 205.437C662.94 205.15 663.387 204.975 663.719 204.991C663.757 204.993 663.795 205.003 663.83 205.019C663.865 205.035 663.896 205.059 663.922 205.087C663.948 205.116 663.968 205.149 663.981 205.185C663.994 205.221 663.999 205.26 663.998 205.298C663.996 205.337 663.986 205.375 663.97 205.409C663.953 205.444 663.93 205.476 663.902 205.501C663.873 205.527 663.84 205.547 663.804 205.56C663.767 205.573 663.729 205.579 663.69 205.577C663.532 205.569 663.218 205.678 662.945 205.896C662.645 206.135 662.496 206.363 662.462 206.636C662.406 207.085 662.204 207.41 661.763 207.761C661.414 208.04 661.009 208.2 660.653 208.2Z" fill="#D71920"/>
<path id="Vector_86" d="M647.853 214.394C648.659 214.394 649.312 213.741 649.312 212.935C649.312 212.13 648.659 211.477 647.853 211.477C647.048 211.477 646.395 212.13 646.395 212.935C646.395 213.741 647.048 214.394 647.853 214.394Z" fill="#0F7BB6"/>
<path id="Vector_87" d="M647.853 214.683C647.507 214.683 647.168 214.581 646.88 214.388C646.592 214.196 646.368 213.922 646.235 213.602C646.102 213.282 646.068 212.93 646.135 212.59C646.203 212.25 646.37 211.938 646.615 211.693C646.86 211.448 647.172 211.281 647.512 211.213C647.852 211.146 648.204 211.18 648.524 211.313C648.844 211.446 649.118 211.67 649.31 211.958C649.503 212.246 649.605 212.585 649.605 212.932C649.604 213.396 649.419 213.84 649.091 214.169C648.762 214.497 648.318 214.682 647.853 214.683ZM647.853 211.766C647.623 211.766 647.397 211.834 647.206 211.962C647.014 212.09 646.864 212.272 646.776 212.485C646.688 212.698 646.665 212.933 646.71 213.159C646.755 213.385 646.866 213.593 647.029 213.756C647.192 213.919 647.4 214.03 647.626 214.075C647.852 214.12 648.087 214.097 648.3 214.009C648.513 213.921 648.695 213.771 648.823 213.579C648.951 213.388 649.019 213.162 649.019 212.932C649.019 212.623 648.895 212.327 648.677 212.109C648.458 211.89 648.162 211.768 647.853 211.767V211.766Z" fill="black"/>
<path id="Vector_88" d="M655.951 214.394C656.757 214.394 657.41 213.741 657.41 212.935C657.41 212.13 656.757 211.477 655.951 211.477C655.145 211.477 654.492 212.13 654.492 212.935C654.492 213.741 655.145 214.394 655.951 214.394Z" fill="#0F7BB6"/>
<path id="Vector_89" d="M655.95 214.683C655.604 214.683 655.265 214.58 654.977 214.388C654.689 214.195 654.465 213.922 654.332 213.601C654.2 213.281 654.165 212.929 654.233 212.589C654.301 212.25 654.468 211.937 654.713 211.693C654.958 211.448 655.27 211.281 655.61 211.213C655.949 211.146 656.302 211.181 656.622 211.313C656.942 211.446 657.215 211.67 657.408 211.958C657.6 212.246 657.703 212.585 657.703 212.932C657.701 213.396 657.516 213.841 657.188 214.169C656.859 214.497 656.415 214.682 655.95 214.683ZM655.95 211.766C655.72 211.766 655.494 211.834 655.303 211.963C655.111 212.091 654.962 212.273 654.874 212.486C654.786 212.699 654.763 212.933 654.808 213.16C654.853 213.386 654.964 213.593 655.127 213.756C655.29 213.919 655.498 214.03 655.724 214.075C655.95 214.12 656.184 214.097 656.397 214.009C656.611 213.92 656.793 213.771 656.921 213.579C657.049 213.388 657.117 213.162 657.117 212.932C657.116 212.623 656.993 212.327 656.774 212.108C656.555 211.89 656.259 211.767 655.95 211.767V211.766Z" fill="black"/>
</g>
<text id="Space Heater" fill="#002E5D" xml:space="preserve" style="white-space: pre" font-family="Poppins" font-size="12" letter-spacing="0.0112em"><tspan x="672" y="211.2">Space Heater</tspan></text>
</g>
<g id="Frame 1302_2">
<g id="Frame 478">
<g id="ENERGY_Icon_ClothesWasher_FullColor">
<path id="Vector_90" fill-rule="evenodd" clip-rule="evenodd" d="M663.648 238.071V233.181C663.647 232.952 663.555 232.733 663.393 232.571C663.231 232.409 663.012 232.317 662.783 232.316H641.259C641.029 232.316 640.809 232.407 640.646 232.57C640.483 232.732 640.391 232.952 640.391 233.181V238.071H663.648Z" fill="white"/>
<path id="Vector_91" fill-rule="evenodd" clip-rule="evenodd" d="M640.328 238.021V260.822C640.329 261.051 640.42 261.271 640.582 261.433C640.744 261.595 640.964 261.687 641.193 261.687H662.719C662.948 261.686 663.168 261.595 663.33 261.433C663.492 261.271 663.583 261.051 663.584 260.822V238.021H640.328Z" fill="#A9ABAC"/>
<path id="Vector_92" d="M662.763 262.057H641.237C640.909 262.056 640.595 261.926 640.363 261.694C640.131 261.462 640.001 261.148 640 260.82V233.181C640 232.853 640.131 232.539 640.362 232.307C640.594 232.075 640.909 231.944 641.237 231.943H662.763C663.091 231.944 663.406 232.075 663.638 232.307C663.869 232.539 664 232.853 664 233.181V260.82C663.999 261.148 663.869 261.462 663.637 261.694C663.405 261.926 663.091 262.056 662.763 262.057ZM641.237 232.686C641.106 232.687 640.98 232.739 640.887 232.832C640.795 232.924 640.743 233.05 640.743 233.181V260.82C640.743 260.951 640.795 261.077 640.888 261.169C640.98 261.262 641.106 261.314 641.237 261.314H662.763C662.894 261.314 663.02 261.262 663.112 261.169C663.205 261.077 663.257 260.951 663.257 260.82V233.181C663.257 233.05 663.205 232.925 663.112 232.832C663.02 232.74 662.894 232.688 662.763 232.687L641.237 232.686Z" fill="black"/>
<path id="Vector_93" d="M663.629 238.442H640.371C640.273 238.442 640.178 238.403 640.109 238.333C640.039 238.264 640 238.169 640 238.071C640 237.972 640.039 237.878 640.109 237.808C640.178 237.738 640.273 237.699 640.371 237.699H663.629C663.727 237.699 663.822 237.738 663.891 237.808C663.961 237.878 664 237.972 664 238.071C664 238.169 663.961 238.264 663.891 238.333C663.822 238.403 663.727 238.442 663.629 238.442Z" fill="black"/>
<path id="Vector_94" d="M658.277 234.804H656.539C656.441 234.804 656.346 234.764 656.277 234.695C656.207 234.625 656.168 234.531 656.168 234.432C656.168 234.334 656.207 234.239 656.277 234.169C656.346 234.1 656.441 234.061 656.539 234.061H658.274C658.372 234.061 658.467 234.1 658.536 234.169C658.606 234.239 658.645 234.334 658.645 234.432C658.645 234.531 658.606 234.625 658.536 234.695C658.467 234.764 658.372 234.804 658.274 234.804H658.277Z" fill="black"/>
<path id="Vector_95" d="M661.344 234.804H659.61C659.511 234.804 659.417 234.764 659.347 234.695C659.277 234.625 659.238 234.531 659.238 234.432C659.238 234.334 659.277 234.239 659.347 234.169C659.417 234.1 659.511 234.061 659.61 234.061H661.344C661.443 234.061 661.537 234.1 661.607 234.169C661.676 234.239 661.716 234.334 661.716 234.432C661.716 234.531 661.676 234.625 661.607 234.695C661.537 234.764 661.443 234.804 661.344 234.804Z" fill="black"/>
<path id="Vector_96" d="M651.954 258.363C656.642 258.363 660.443 254.562 660.443 249.874C660.443 245.185 656.642 241.385 651.954 241.385C647.265 241.385 643.465 245.185 643.465 249.874C643.465 254.562 647.265 258.363 651.954 258.363Z" fill="white"/>
<path id="Vector_97" d="M651.958 258.736C650.206 258.736 648.493 258.217 647.035 257.243C645.578 256.27 644.443 254.886 643.772 253.267C643.101 251.648 642.926 249.866 643.268 248.147C643.61 246.429 644.454 244.85 645.693 243.611C646.932 242.372 648.511 241.528 650.23 241.186C651.948 240.844 653.73 241.019 655.349 241.69C656.968 242.361 658.352 243.496 659.325 244.953C660.299 246.411 660.819 248.124 660.819 249.876C660.816 252.225 659.881 254.477 658.22 256.138C656.559 257.799 654.307 258.734 651.958 258.736ZM651.958 241.754C650.353 241.754 648.783 242.23 647.448 243.122C646.113 244.014 645.073 245.282 644.459 246.765C643.844 248.249 643.683 249.881 643.997 251.455C644.31 253.03 645.083 254.476 646.218 255.612C647.353 256.747 648.8 257.52 650.374 257.833C651.949 258.147 653.581 257.986 655.065 257.371C656.548 256.757 657.816 255.717 658.708 254.382C659.599 253.047 660.076 251.477 660.076 249.872C660.072 247.72 659.215 245.658 657.694 244.137C656.172 242.617 654.109 241.761 651.958 241.759V241.754Z" fill="black"/>
<path id="Vector_98" d="M652.384 249.295C651.256 249.165 650.146 248.879 649.017 248.764C647.887 248.649 646.699 248.721 645.726 249.261L645.61 249.291C645.593 249.484 645.582 249.678 645.582 249.875C645.581 250.784 645.771 251.682 646.141 252.512C646.51 253.342 647.05 254.085 647.726 254.692C648.402 255.299 649.198 255.757 650.062 256.036C650.927 256.314 651.841 256.408 652.744 256.31C653.647 256.212 654.519 255.925 655.304 255.467C656.088 255.01 656.768 254.392 657.298 253.654C657.828 252.916 658.196 252.075 658.379 251.185C658.562 250.296 658.556 249.377 658.36 248.49L658.053 248.589C656.247 249.275 654.303 249.517 652.384 249.295Z" fill="#0F7BB6"/>
<path id="Vector_99" d="M652.384 249.295C651.256 249.165 650.146 248.879 649.017 248.764C647.887 248.649 646.699 248.721 645.726 249.261L645.61 249.291C645.593 249.484 645.582 249.678 645.582 249.875C645.581 250.784 645.771 251.682 646.141 252.512C646.51 253.342 647.05 254.085 647.726 254.692C648.402 255.299 649.198 255.757 650.062 256.036C650.927 256.314 651.841 256.408 652.744 256.31C653.647 256.212 654.519 255.925 655.304 255.467C656.088 255.01 656.768 254.392 657.298 253.654C657.828 252.916 658.196 252.075 658.379 251.185C658.562 250.296 658.556 249.377 658.36 248.49L658.053 248.589C656.247 249.275 654.303 249.517 652.384 249.295Z" fill="#0F7BB6"/>
<path id="Vector_100" d="M651.956 256.71C650.605 256.71 649.283 256.309 648.159 255.558C647.035 254.807 646.159 253.739 645.641 252.49C645.124 251.241 644.989 249.867 645.252 248.541C645.516 247.215 646.167 245.997 647.123 245.041C648.079 244.085 649.297 243.434 650.623 243.17C651.949 242.907 653.323 243.042 654.572 243.559C655.821 244.077 656.889 244.953 657.64 246.077C658.391 247.201 658.792 248.522 658.792 249.874C658.789 251.687 658.069 253.424 656.787 254.705C655.506 255.987 653.769 256.707 651.956 256.71ZM651.956 243.782C650.751 243.782 649.574 244.139 648.572 244.809C647.57 245.478 646.789 246.43 646.328 247.543C645.867 248.656 645.746 249.881 645.981 251.063C646.216 252.245 646.796 253.33 647.648 254.182C648.5 255.034 649.586 255.615 650.768 255.85C651.95 256.085 653.175 255.964 654.288 255.503C655.401 255.042 656.353 254.261 657.022 253.259C657.691 252.257 658.049 251.079 658.049 249.874C658.047 248.259 657.404 246.711 656.262 245.569C655.12 244.426 653.572 243.784 651.956 243.782Z" fill="black"/>
<path id="Vector_101" d="M650.495 234.434H642.676V235.99H650.495V234.434Z" fill="#D71920"/>
<path id="Vector_102" d="M650.871 236.364H642.309V234.061H650.871V236.364ZM643.052 235.621H650.128V234.804H643.052V235.621Z" fill="#D71920"/>
<path id="Vector_103" d="M653.681 249.744C653.203 249.743 652.726 249.716 652.251 249.662C651.7 249.598 651.152 249.498 650.621 249.401C650.052 249.295 649.465 249.188 648.889 249.131C647.621 249.003 646.589 249.154 645.816 249.583C645.773 249.609 645.726 249.626 645.676 249.632C645.627 249.639 645.577 249.636 645.529 249.623C645.481 249.61 645.436 249.588 645.396 249.557C645.357 249.526 645.325 249.488 645.3 249.444C645.276 249.401 645.261 249.353 645.256 249.303C645.251 249.254 645.256 249.204 645.27 249.156C645.285 249.108 645.309 249.064 645.341 249.026C645.373 248.988 645.412 248.956 645.456 248.934C646.363 248.43 647.543 248.248 648.964 248.392C649.569 248.454 650.172 248.563 650.754 248.67C651.274 248.765 651.815 248.863 652.336 248.923C654.196 249.139 656.08 248.905 657.83 248.24C657.875 248.222 657.924 248.214 657.973 248.215C658.022 248.216 658.07 248.227 658.114 248.247C658.159 248.267 658.199 248.295 658.233 248.331C658.266 248.366 658.293 248.408 658.31 248.453C658.328 248.499 658.336 248.548 658.335 248.596C658.333 248.645 658.323 248.693 658.303 248.738C658.283 248.782 658.254 248.823 658.219 248.856C658.184 248.89 658.142 248.916 658.096 248.934C656.686 249.471 655.19 249.745 653.681 249.744Z" fill="black"/>
</g>
</g>
<text id="Washer/Dryer" fill="#002E5D" xml:space="preserve" style="white-space: pre" font-family="Poppins" font-size="12" letter-spacing="0.0112em"><tspan x="672" y="251.2">Washer/Dryer</tspan></text>
</g>
</g>
</g>
<g id="Frame 1301_3">
<g id="ENERGY_Icon_WaterHeater_FullColor">
<path id="Vector_104" d="M434.775 298.337H428.297V296.54H434.775C435.394 296.539 435.987 296.293 436.425 295.855C436.863 295.418 437.109 294.824 437.11 294.205V289.023H438.907V294.206C438.906 295.302 438.47 296.352 437.695 297.126C436.921 297.901 435.87 298.336 434.775 298.337Z" fill="#A9ABAC"/>
<path id="Vector_105" d="M434.778 298.637H428V296.241H434.777C435.317 296.241 435.836 296.027 436.218 295.646C436.6 295.265 436.815 294.747 436.816 294.207V288.725H439.213V294.207C439.212 295.382 438.744 296.509 437.912 297.34C437.081 298.171 435.954 298.637 434.778 298.637ZM428.6 298.038H434.778C435.795 298.038 436.77 297.635 437.489 296.916C438.208 296.198 438.613 295.224 438.614 294.207V289.324H437.416V294.207C437.415 294.905 437.137 295.575 436.643 296.069C436.149 296.562 435.479 296.84 434.781 296.841H428.599L428.6 298.038Z" fill="black"/>
<path id="Vector_106" d="M445.224 298.337H451.702V296.54H445.224C444.605 296.539 444.012 296.293 443.574 295.855C443.136 295.418 442.89 294.824 442.889 294.205V289.023H441.098V294.206C441.099 295.301 441.534 296.35 442.308 297.124C443.081 297.898 444.13 298.335 445.224 298.337Z" fill="#A9ABAC"/>
<path id="Vector_107" d="M451.997 298.637H445.219C444.045 298.636 442.919 298.169 442.088 297.338C441.258 296.508 440.79 295.382 440.789 294.207V288.725H443.186V294.207C443.186 294.747 443.401 295.264 443.783 295.645C444.164 296.027 444.682 296.241 445.221 296.242H451.999L451.997 298.637ZM441.388 289.324V294.207C441.389 295.223 441.793 296.197 442.512 296.915C443.23 297.633 444.204 298.037 445.219 298.038H451.398V296.84H445.219C444.521 296.839 443.851 296.562 443.358 296.068C442.864 295.574 442.586 294.905 442.585 294.206V289.324H441.388Z" fill="black"/>
<path id="Vector_108" d="M445.878 273.656H434.123C433.272 273.656 432.582 274.346 432.582 275.197V290.067C432.582 290.918 433.272 291.608 434.123 291.608H445.878C446.729 291.608 447.419 290.918 447.419 290.067V275.197C447.419 274.346 446.729 273.656 445.878 273.656Z" fill="white"/>
<path id="Vector_109" d="M445.876 291.909H434.12C433.878 291.909 433.638 291.861 433.415 291.768C433.191 291.676 432.988 291.54 432.817 291.369C432.645 291.198 432.51 290.994 432.417 290.77C432.325 290.547 432.277 290.307 432.277 290.065V275.198C432.278 274.71 432.472 274.242 432.817 273.897C433.162 273.552 433.63 273.358 434.118 273.357H445.876C446.364 273.358 446.831 273.552 447.176 273.897C447.521 274.242 447.716 274.71 447.716 275.198V290.065C447.716 290.307 447.669 290.546 447.577 290.77C447.484 290.993 447.349 291.197 447.178 291.368C447.007 291.539 446.804 291.675 446.581 291.768C446.357 291.86 446.118 291.908 445.876 291.909ZM434.12 273.957C433.791 273.956 433.475 274.087 433.241 274.32C433.008 274.552 432.877 274.868 432.877 275.198V290.065C432.877 290.394 433.008 290.709 433.241 290.942C433.473 291.175 433.789 291.306 434.118 291.306H445.876C446.205 291.306 446.52 291.175 446.753 290.942C446.986 290.709 447.117 290.394 447.117 290.065V275.198C447.117 274.869 446.986 274.553 446.753 274.321C446.52 274.088 446.205 273.957 445.876 273.957H434.12Z" fill="black"/>
<path id="Vector_110" d="M440 280.772C441.251 280.772 442.266 279.757 442.266 278.506C442.266 277.255 441.251 276.24 440 276.24C438.749 276.24 437.734 277.255 437.734 278.506C437.734 279.757 438.749 280.772 440 280.772Z" fill="#0F7BB6"/>
<path id="Vector_111" d="M439.998 281.071C439.49 281.071 438.993 280.921 438.571 280.639C438.149 280.356 437.82 279.955 437.625 279.486C437.431 279.017 437.38 278.501 437.479 278.002C437.578 277.504 437.823 277.047 438.182 276.688C438.541 276.329 438.998 276.084 439.497 275.985C439.995 275.886 440.511 275.937 440.98 276.131C441.449 276.325 441.851 276.655 442.133 277.077C442.415 277.499 442.565 277.996 442.565 278.503C442.565 279.184 442.295 279.838 441.813 280.319C441.332 280.801 440.679 281.071 439.998 281.071ZM439.998 276.54C439.608 276.54 439.228 276.655 438.904 276.872C438.58 277.088 438.328 277.395 438.179 277.755C438.03 278.115 437.991 278.511 438.067 278.893C438.143 279.275 438.33 279.625 438.605 279.901C438.881 280.176 439.232 280.363 439.613 280.439C439.995 280.515 440.391 280.476 440.751 280.327C441.111 280.178 441.418 279.926 441.634 279.602C441.851 279.279 441.966 278.898 441.966 278.509C441.966 277.986 441.759 277.486 441.39 277.116C441.02 276.747 440.52 276.54 439.998 276.54Z" fill="black"/>
<path id="Vector_112" d="M444.767 291.607H435.234V293.986H444.767V291.607Z" fill="#A9ABAC"/>
<path id="Vector_113" d="M445.066 294.288H434.934V291.311H445.066V294.288ZM435.534 293.689H444.467V291.91H435.533L435.534 293.689Z" fill="black"/>
<path id="Vector_114" d="M437.943 290.813C437.943 290.813 437.049 290.628 437.108 289.081C437.156 287.848 438.074 287.782 438.215 287.112C438.415 286.157 437.861 284.887 437.861 284.887C437.861 284.887 440.284 285.736 440.506 287.705C441.047 287.335 441.23 286.712 440.997 285.89C441.66 286.284 442.688 287.293 442.671 289.244C442.661 290.491 442.046 290.962 442.046 290.962" fill="#D71920"/>
<path id="Vector_115" d="M442.233 291.195L441.87 290.72C441.887 290.706 442.369 290.302 442.377 289.237C442.381 288.801 442.311 287.478 441.4 286.57C441.404 286.841 441.341 287.11 441.216 287.35C441.09 287.591 440.907 287.796 440.682 287.948C440.639 287.977 440.589 287.995 440.538 288C440.486 288.004 440.435 287.995 440.388 287.974C440.34 287.952 440.3 287.919 440.269 287.877C440.239 287.835 440.22 287.786 440.214 287.735C440.082 286.566 439.059 285.821 438.378 285.449C438.513 285.933 438.635 286.594 438.513 287.17C438.438 287.532 438.208 287.749 437.985 287.959C437.704 288.225 437.437 288.473 437.413 289.091C437.366 290.339 437.99 290.512 438.013 290.519L437.885 291.105C437.838 291.095 436.742 290.848 436.812 289.068C436.844 288.212 437.265 287.813 437.571 287.527C437.772 287.337 437.889 287.22 437.924 287.05C438.102 286.201 437.593 285.017 437.588 285.005C437.565 284.952 437.558 284.893 437.567 284.835C437.577 284.778 437.604 284.724 437.643 284.682C437.683 284.639 437.734 284.609 437.791 284.595C437.848 284.581 437.907 284.584 437.962 284.603C438.058 284.637 440.102 285.373 440.676 287.085C440.827 286.798 440.839 286.424 440.711 285.972C440.693 285.915 440.694 285.853 440.713 285.796C440.731 285.738 440.766 285.688 440.814 285.651C440.862 285.614 440.919 285.592 440.98 285.588C441.04 285.585 441.1 285.599 441.151 285.63C441.584 285.887 442.993 286.905 442.973 289.244C442.964 290.619 442.262 291.172 442.233 291.195Z" fill="black"/>
<path id="Vector_116" d="M449.268 299.569V298.699C449.484 298.566 449.662 298.381 449.786 298.16C449.91 297.939 449.975 297.69 449.975 297.437C449.975 297.184 449.91 296.935 449.786 296.714C449.662 296.494 449.484 296.308 449.268 296.176V295.306C449.268 294.878 448.798 294.535 448.372 294.535C447.947 294.535 447.476 294.884 447.476 295.306V296.176C447.26 296.308 447.082 296.494 446.958 296.714C446.834 296.935 446.77 297.184 446.77 297.437C446.77 297.69 446.834 297.939 446.958 298.16C447.082 298.381 447.26 298.566 447.476 298.699V299.569C447.476 299.997 447.947 300.339 448.372 300.339C448.798 300.339 449.268 299.993 449.268 299.569Z" fill="#0F7BB6"/>
<path id="Vector_117" d="M448.369 300.642C447.804 300.642 447.171 300.183 447.171 299.568V298.856C446.951 298.69 446.774 298.476 446.651 298.23C446.529 297.983 446.465 297.712 446.465 297.437C446.465 297.162 446.529 296.891 446.651 296.645C446.774 296.398 446.951 296.184 447.171 296.018V295.305C447.171 294.691 447.802 294.232 448.369 294.232C448.937 294.232 449.567 294.691 449.567 295.305V296.018C449.787 296.184 449.965 296.398 450.087 296.645C450.21 296.891 450.273 297.162 450.273 297.437C450.273 297.712 450.21 297.983 450.087 298.23C449.965 298.476 449.787 298.69 449.567 298.856V299.568C449.567 300.183 448.936 300.642 448.369 300.642ZM448.369 294.832C448.079 294.832 447.77 295.075 447.77 295.305V296.343L447.627 296.429C447.455 296.534 447.313 296.682 447.214 296.858C447.115 297.034 447.064 297.233 447.064 297.435C447.064 297.636 447.115 297.835 447.214 298.011C447.313 298.187 447.455 298.335 447.627 298.44L447.77 298.526V299.564C447.77 299.794 448.076 300.038 448.369 300.038C448.662 300.038 448.968 299.794 448.968 299.564V298.53L449.111 298.445C449.283 298.339 449.425 298.191 449.524 298.015C449.623 297.839 449.675 297.641 449.675 297.439C449.675 297.237 449.623 297.039 449.524 296.862C449.425 296.686 449.283 296.539 449.111 296.433L448.968 296.347V295.305C448.968 295.075 448.661 294.832 448.369 294.832Z" fill="black"/>
<path id="Vector_118" d="M444.26 290.355H435.539V291.224H444.26V290.355Z" fill="white"/>
<path id="Vector_119" d="M439.999 278.805C439.954 278.806 439.909 278.795 439.868 278.775C439.827 278.756 439.792 278.727 439.764 278.691L439.228 278.006C439.179 277.943 439.157 277.864 439.166 277.785C439.176 277.706 439.216 277.634 439.279 277.585C439.341 277.536 439.421 277.514 439.5 277.524C439.579 277.533 439.65 277.574 439.7 277.636L440.235 278.321C440.259 278.352 440.277 278.387 440.288 278.425C440.298 278.463 440.301 278.503 440.297 278.542C440.292 278.581 440.279 278.618 440.26 278.653C440.241 278.687 440.215 278.717 440.184 278.741C440.131 278.783 440.066 278.806 439.999 278.805Z" fill="black"/>
</g>
<text id="Electric Water Heater" fill="#002E5D" xml:space="preserve" style="white-space: pre" font-family="Poppins" font-size="12" letter-spacing="0.0112em"><tspan x="460" y="291.2">Electric Water Heater</tspan></text>
</g>
</g>
</g>
<path d="M412 98H772V88H412V98Z" fill="#D71920" mask="url(#path-111-inside-22_4468_24671)"/>
</g>
</g>
<defs>
<clipPath id="clip0_4468_24671">
<rect width="24" height="18" fill="white" transform="translate(428 238)"/>
</clipPath>
</defs>
</svg>
