<svg width="792" height="612" viewBox="0 0 792 612" fill="none" xmlns="http://www.w3.org/2000/svg">
  <g id="12 Your Investment Options / NYSERDA / No savings">
    <g  fragment="whatYouGet"></g>
    <g
      id="https://www.nyserda.ny.gov/all-programs/ny-sun/contractors/dashboards-and-incentives. Actual rebate will be received by GAF Energy and deducted from Customer&#226;&#128;&#153;s final payment obligation set forth on Exhibit B of the Roofing and Solar Installation Agreement entered into with GAF Energy. While you may be able to apply the 30% Federal Tax Credit to your cash purchase or loan amount, GAF Energy does not provide tax or legal advice. You should consult with your tax advisor for more information. This proposal contains preliminary estimates and does not represent a binding agreement or obligation to the homeowner. This is not a guarantee, warranty, or representation regarding the production, performance, utility rate increases, workmanship, or any other data relating to Timberline Solar. This proposal is not an approval for installation or financing. &#226;&#128;&#168;2 Monthly payment amount assumes a partial prepayment equal to 30% of principal prior to month 18 of loan term.">
      <text fill="#606366" xml:space="preserve" style="white-space: pre" font-family="Poppins"
        font-size="10" letter-spacing="0.0112em"><tspan x="32" y="486">https://www.nyserda.ny.gov/all-programs/ny-sun/contractors/dashboards-and-incentives. Actual rebate will be received by GAF Energy and </tspan><tspan x="32" y="499">deducted from Customer&#x2019;s final payment obligation set forth on Exhibit B of the Roofing and Solar Installation Agreement entered into with GAF </tspan><tspan x="32" y="512">Energy. While you may be able to apply the 30% Federal Tax Credit to your cash purchase or loan amount, GAF Energy does not provide tax or </tspan><tspan x="32" y="525">legal advice. You should consult with your tax advisor for more information. This proposal contains preliminary estimates and does not </tspan><tspan x="32" y="538">represent a binding agreement or obligation to the homeowner. This is not a guarantee, warranty, or representation regarding the production, </tspan><tspan x="32" y="551">performance, utility rate increases, workmanship, or any other data relating to Timberline Solar. This proposal is not an approval for installation </tspan><tspan x="32" y="564">or financing. &#x2028;</tspan><tspan x="35.4128" y="577"> Monthly payment amount assumes a partial prepayment equal to 30% of principal prior to month 18 of loan term.</tspan></text>
      <text fill="#606366" xml:space="preserve" style="white-space: pre" font-family="Poppins"
        font-size="10" letter-spacing="0.0112em"><tspan x="32" y="577">&#xb2;</tspan></text>
    </g>
    <g>
      <text id="Token_NYSERDA_Disclosure" fill="#606366" xml:space="preserve" style="white-space: pre" font-family="Poppins"
        font-size="10" letter-spacing="0.0112em"><tspan x="34.0749" y="460"> Includes both the New York Solar Tax Credit estimated value and the Estimated NYSERDA rebate value of $717 - The NYSERDA rebate value is </tspan></text>
      <text fill="#606366" xml:space="preserve" style="white-space: pre" font-family="Poppins"
        font-size="10" letter-spacing="0.0112em"><tspan x="32" y="473">estimated based on NYSERDA&#x2019;s rebate schedule available here:</tspan></text>
      <text fill="#606366" xml:space="preserve" style="white-space: pre" font-family="Poppins"
        font-size="10" letter-spacing="0.0112em"><tspan x="32" y="460">&#xb9;</tspan></text>
    </g>
    <g id="Let&#39;s make it official">
      <g id="Text">
        <text id="Let&#226;&#128;&#153;s make it official" fill="#002E5D" xml:space="preserve"
          style="white-space: pre" font-family="Poppins" font-size="14" font-weight="600"
          letter-spacing="0.0112em"><tspan x="32" y="274.4">Let&#x2019;s make it official</tspan></text>
        <text id="Choose between an upfront investment or apply for financing" fill="#002E5D"
          xml:space="preserve" style="white-space: pre" font-family="Poppins" font-size="12"
          font-weight="600" letter-spacing="0.0112em"><tspan x="32" y="294.7">Choose between an upfront investment or apply for financing</tspan></text>
      </g>
      <g id="Monthly Investment">
        <rect x="32.5" y="317.5" width="407" height="118" fill="white" />
        <g id="Upfront purchase">
          <g id="Illustration + title section">
            <g id="Wallet Illustration">
              <g id="ENERGY_Icon_Wallet_FullColor">
                <path id="Vector_61"
                  d="M59.963 342.943L59.9309 342.568H66.0848L69.0355 338.383L60.4494 332.327L59.2119 334.081L59.1447 333.283L54.6322 331.877L53.5965 334.886L53.3548 334.375L49.162 334.439L49.1376 342.943H48.3789V358.623H70.8128V342.943H59.963Z"
                  fill="white" />
                <path id="Vector_62"
                  d="M59.8939 341.138C59.7472 341.044 59.6355 340.904 59.5759 340.739C59.5162 340.575 59.5119 340.396 59.5635 340.23L59.1749 339.959L59.4809 339.534L59.8586 339.798C60.1141 339.546 60.4706 339.524 60.8193 339.746L60.8789 339.784L60.5516 340.245L60.4982 340.211C60.4686 340.187 60.4341 340.17 60.3972 340.161C60.3602 340.152 60.3217 340.151 60.2844 340.158C60.247 340.165 60.2118 340.181 60.181 340.203C60.1503 340.226 60.1248 340.254 60.1065 340.288C60.0855 340.32 60.0713 340.356 60.0649 340.395C60.0586 340.433 60.0601 340.472 60.0694 340.509C60.0788 340.546 60.0957 340.582 60.1192 340.612C60.1426 340.643 60.1722 340.668 60.206 340.687C60.3161 340.767 60.4339 340.78 60.645 340.592C60.8187 340.415 61.0453 340.3 61.2905 340.263L64.9203 335.114L60.4843 331.965L52.8359 342.806L59.3845 342.948L60.5852 341.247C60.4706 341.291 60.3464 341.304 60.2251 341.285C60.1037 341.266 59.9895 341.215 59.8939 341.138V341.138Z"
                  fill="#B1B1B3" />
                <path id="Vector_63"
                  d="M62.5255 338.502C61.9022 338.063 61.1298 337.889 60.3782 338.019C59.6266 338.149 58.9574 338.572 58.5178 339.195C58.0782 339.818 57.9043 340.591 58.0342 341.342C58.1642 342.094 58.5874 342.763 59.2108 343.203C59.2689 343.244 59.3301 343.282 59.3897 343.319H62.3481C62.7583 343.073 63.1005 342.728 63.3439 342.315C63.5872 341.903 63.7239 341.437 63.7415 340.959C63.7591 340.48 63.6572 340.005 63.4448 339.576C63.2325 339.147 62.9165 338.778 62.5255 338.502V338.502ZM62.2762 342.144L61.8968 341.877C61.7473 342.005 61.5591 342.08 61.362 342.09C61.1649 342.099 60.9704 342.043 60.8093 341.929L60.7466 341.89L61.0662 341.431L61.1197 341.461C61.2727 341.548 61.4976 341.603 61.6582 341.376C61.7791 341.205 61.7331 341.018 61.5343 340.879C61.3981 340.783 61.2514 340.765 60.9821 340.994C60.5783 341.338 60.2433 341.381 59.893 341.133C59.7463 341.039 59.6346 340.898 59.575 340.734C59.5153 340.57 59.511 340.391 59.5626 340.225L59.174 339.96L59.48 339.535L59.8577 339.799C60.1132 339.547 60.4697 339.526 60.8184 339.747L60.878 339.786L60.5507 340.246L60.4972 340.212C60.4677 340.188 60.4332 340.171 60.3963 340.162C60.3593 340.153 60.3208 340.152 60.2835 340.159C60.2461 340.166 60.2109 340.182 60.1801 340.204C60.1494 340.227 60.1239 340.255 60.1056 340.289C60.0846 340.321 60.0704 340.358 60.064 340.396C60.0577 340.434 60.0592 340.473 60.0685 340.51C60.0778 340.547 60.0948 340.583 60.1183 340.613C60.1417 340.644 60.1713 340.669 60.2051 340.688C60.3152 340.768 60.433 340.781 60.6441 340.593C61.0739 340.209 61.4562 340.159 61.8463 340.44C62.2364 340.722 62.3496 341.092 62.1936 341.465L62.5699 341.731L62.2762 342.144Z"
                  fill="#D71920" />
                <path id="Vector_64"
                  d="M50.4918 342.569H49.5144L49.5358 335.198L52.1637 335.152L52.4147 334.398L48.7893 334.46L48.7648 342.577H48V358.999H71.1835V342.569H66.9985L70.0762 338.203L60.2648 331.283L52.3105 342.569H51.2841L54.5959 332.651L57.6813 333.613L58.1401 332.969L54.1218 331.716M60.456 332.328L69.042 338.384L66.0914 342.569H53.233L60.456 332.328ZM70.4448 358.25H48.7541V343.319H70.4387L70.4448 358.25Z"
                  fill="#101820" />
                <path id="Vector_65"
                  d="M72.0016 348.207H63.6588C62.9864 348.209 62.3421 348.477 61.8667 348.953C61.3912 349.428 61.1231 350.072 61.1211 350.745V350.821C61.1231 351.494 61.3912 352.138 61.8667 352.613C62.3421 353.089 62.9864 353.357 63.6588 353.359H72.0016V348.207Z"
                  fill="#2774AE" />
                <path id="Vector_66"
                  d="M63.808 352.012C64.4872 352.012 65.0378 351.462 65.0378 350.783C65.0378 350.103 64.4872 349.553 63.808 349.553C63.1288 349.553 62.5781 350.103 62.5781 350.783C62.5781 351.462 63.1288 352.012 63.808 352.012Z"
                  fill="white" />
                <path id="Vector_67"
                  d="M63.8077 352.387C63.4903 352.387 63.1801 352.293 62.9162 352.117C62.6523 351.94 62.4467 351.69 62.3252 351.396C62.2038 351.103 62.1721 350.781 62.234 350.469C62.2959 350.158 62.4486 349.872 62.673 349.648C62.8974 349.423 63.1833 349.27 63.4946 349.209C63.8059 349.147 64.1286 349.178 64.4218 349.3C64.715 349.421 64.9655 349.627 65.1418 349.891C65.3181 350.155 65.4124 350.465 65.4124 350.782C65.4124 351.208 65.2433 351.616 64.9424 351.917C64.6415 352.218 64.2333 352.387 63.8077 352.387ZM63.8077 349.927C63.6386 349.927 63.4733 349.977 63.3327 350.071C63.192 350.165 63.0825 350.299 63.0178 350.455C62.9531 350.611 62.9361 350.783 62.9691 350.949C63.0021 351.115 63.0834 351.267 63.203 351.387C63.3226 351.507 63.475 351.588 63.6408 351.621C63.8067 351.654 63.9787 351.637 64.135 351.572C64.2912 351.508 64.4246 351.398 64.5186 351.257C64.6126 351.117 64.6628 350.951 64.6628 350.782C64.6624 350.556 64.5722 350.338 64.4119 350.178C64.2517 350.018 64.0344 349.928 63.8077 349.927Z"
                  fill="#101820" />
              </g>
            </g>
            <g id="Amount">
              <text id="Upfront" fill="#002E5D" xml:space="preserve" style="white-space: pre"
                font-family="Poppins" font-size="10" font-weight="600" letter-spacing="0.0112em"><tspan x="80" y="340">Upfront </tspan></text>
              <text id="Purchase" fill="#002E5D" xml:space="preserve" style="white-space: pre"
                font-family="Poppins" font-size="10" font-weight="600" letter-spacing="0.0112em"><tspan x="80" y="355">Purchase</tspan></text>
            </g>
          </g>
          <g id="Monthly price">
            <text id="Token_TotalPrice" fill="#002E5D" xml:space="preserve" style="white-space: pre"
              font-family="Poppins" font-size="24" font-weight="600" letter-spacing="0.0112em"><tspan x="48" y="396.4">$45,320</tspan></text>
          </g>
        </g>
        <rect id="Rectangle 365" x="163" y="334.5" width="1" height="84" fill="#D71920" />
        <g id="Upfront purchase_2">
          <g id="Illustration + Amount">
            <g id="ENERGY_Icon_Calendar_FullColor">
              <path id="Vector_68"
                d="M181.656 336.889V338.349H202.54V351.937H204.001V336.895V336.889H181.656Z"
                fill="#2774AE" />
              <path id="Vector_69" d="M183.828 351.917H180V339.199H201.493V355.7H183.828V351.917Z"
                fill="white" />
              <path id="Vector_70" d="M201.493 339.305H180.457V342.5H201.493V339.305Z"
                fill="#B1B1B3" />
              <path id="Vector_71" d="M180 351.916H183.828V355.699L180 351.916Z" fill="#B1B1B3" />
              <path id="Vector_72" d="M185.275 343.963H183.906V345.332H185.275V343.963Z"
                fill="#D71920" />
              <path id="Vector_73" d="M188.459 343.963H187.09V345.332H188.459V343.963Z"
                fill="#D71920" />
              <path id="Vector_74" d="M191.646 343.963H190.277V345.332H191.646V343.963Z"
                fill="#D71920" />
              <path id="Vector_75" d="M194.83 343.963H193.461V345.332H194.83V343.963Z"
                fill="#D71920" />
              <path id="Vector_76" d="M198.017 343.963H196.648V345.332H198.017V343.963Z"
                fill="#D71920" />
              <path id="Vector_77" d="M185.275 346.846H183.906V348.214H185.275V346.846Z"
                fill="#D71920" />
              <path id="Vector_78" d="M188.459 346.846H187.09V348.214H188.459V346.846Z"
                fill="#D71920" />
              <path id="Vector_79" d="M191.646 346.846H190.277V348.214H191.646V346.846Z"
                fill="#D71920" />
              <path id="Vector_80" d="M194.83 346.846H193.461V348.214H194.83V346.846Z"
                fill="#D71920" />
              <path id="Vector_81" d="M198.017 346.846H196.648V348.214H198.017V346.846Z"
                fill="#D71920" />
              <path id="Vector_82" d="M185.275 349.729H183.906V351.097H185.275V349.729Z"
                fill="#D71920" />
              <path id="Vector_83" d="M188.373 349.729H187.004V351.097H188.373V349.729Z"
                fill="#D71920" />
              <path id="Vector_84" d="M191.646 349.729H190.277V351.097H191.646V349.729Z"
                fill="#D71920" />
              <path id="Vector_85" d="M194.916 349.729H193.547V351.097H194.916V349.729Z"
                fill="#D71920" />
              <path id="Vector_86" d="M198.017 349.729H196.648V351.097H198.017V349.729Z"
                fill="#D71920" />
              <path id="Vector_87"
                d="M195.282 338.927C195.209 338.695 195.191 338.448 195.229 338.208C195.268 337.967 195.362 337.738 195.505 337.541C195.647 337.343 195.834 337.181 196.05 337.068C196.266 336.955 196.505 336.894 196.749 336.89H198.251C197.945 336.601 197.561 336.408 197.148 336.335C196.734 336.262 196.307 336.312 195.921 336.479C195.536 336.646 195.207 336.922 194.977 337.274C194.746 337.625 194.624 338.036 194.624 338.457C194.624 338.617 194.642 338.778 194.677 338.935H189.456C189.381 338.699 189.362 338.45 189.401 338.206C189.441 337.962 189.537 337.731 189.682 337.532C189.828 337.332 190.018 337.17 190.238 337.058C190.458 336.946 190.701 336.888 190.948 336.887H192.421C192.115 336.6 191.732 336.408 191.318 336.336C190.905 336.264 190.479 336.314 190.094 336.481C189.709 336.647 189.381 336.923 189.151 337.274C188.92 337.625 188.798 338.036 188.798 338.456C188.798 338.616 188.816 338.776 188.851 338.933H183.834C183.76 338.7 183.743 338.452 183.782 338.21C183.821 337.968 183.917 337.738 184.061 337.54C184.205 337.342 184.394 337.18 184.612 337.068C184.83 336.956 185.071 336.896 185.317 336.894H186.802C186.497 336.606 186.113 336.413 185.699 336.34C185.285 336.267 184.859 336.317 184.473 336.484C184.087 336.651 183.759 336.927 183.528 337.278C183.298 337.63 183.175 338.041 183.176 338.462C183.176 338.622 183.194 338.782 183.229 338.939H180.004V351.017H180.589V339.513H183.456C183.623 339.811 183.859 340.065 184.144 340.253C184.43 340.442 184.756 340.56 185.096 340.597C185.153 340.649 185.225 340.684 185.302 340.696C185.379 340.708 185.458 340.698 185.529 340.666C185.6 340.635 185.66 340.583 185.703 340.518C185.745 340.453 185.768 340.376 185.768 340.299C185.768 340.221 185.745 340.144 185.703 340.079C185.66 340.014 185.6 339.962 185.529 339.931C185.458 339.899 185.379 339.889 185.302 339.901C185.225 339.913 185.153 339.948 185.096 340C184.739 339.947 184.412 339.773 184.169 339.507H189.074C189.243 339.805 189.48 340.059 189.766 340.248C190.052 340.436 190.379 340.554 190.72 340.591C190.778 340.643 190.849 340.678 190.926 340.69C191.003 340.702 191.082 340.692 191.153 340.66C191.224 340.629 191.285 340.577 191.327 340.512C191.37 340.447 191.392 340.37 191.392 340.293C191.392 340.215 191.37 340.138 191.327 340.073C191.285 340.008 191.224 339.956 191.153 339.925C191.082 339.893 191.003 339.883 190.926 339.895C190.849 339.907 190.778 339.942 190.72 339.994C190.363 339.941 190.036 339.767 189.793 339.501H194.9C195.068 339.799 195.305 340.054 195.591 340.242C195.877 340.431 196.204 340.549 196.545 340.585C196.603 340.637 196.674 340.672 196.751 340.684C196.828 340.696 196.907 340.686 196.978 340.654C197.049 340.623 197.11 340.571 197.152 340.506C197.195 340.441 197.217 340.364 197.217 340.287C197.217 340.209 197.195 340.132 197.152 340.067C197.11 340.002 197.049 339.95 196.978 339.919C196.907 339.887 196.828 339.877 196.751 339.889C196.674 339.901 196.603 339.936 196.545 339.988C196.189 339.935 195.861 339.761 195.618 339.495H201.351V355.114H184.82V355.699H201.936V338.927H195.282Z"
                fill="#101820" />
            </g>
            <g id="Amount_2">
              <text id="Financed" fill="#002E5D" xml:space="preserve" style="white-space: pre"
                font-family="Poppins" font-size="10" font-weight="600" letter-spacing="0.0112em"><tspan x="212" y="349.5">Financed</tspan></text>
              <g id="Lender logo">
                <g id="Lender logo_2">
                  <rect width="140" height="40" transform="translate(286 326)" fill="#F1F2F2" />
                  <text id="LENDER LOGO&#226;&#128;&#168;PLACEHOLDER" fill="#606366"
                    xml:space="preserve" style="white-space: pre" font-family="Poppins"
                    font-size="12" font-weight="600" letter-spacing="0.0112em"><tspan x="315.42" y="343.2">LENDER LOGO&#x2028;</tspan><tspan x="313.726" y="357.2">PLACEHOLDER</tspan></text>
                </g>
              </g>
            </g>
          </g>
          <g id="Info">
            <g id="Monthly payment">
              <text id="Token_MonthlyPrice" fill="#002E5D" xml:space="preserve"
                style="white-space: pre" font-family="Poppins" font-size="24" font-weight="600"
                letter-spacing="0.0112em"><tspan x="180" y="395.4">$179</tspan></text>
              <g id="Monthly payment_2">
                <text fill="#002E5D" xml:space="preserve" style="white-space: pre"
                  font-family="Poppins" font-size="10" letter-spacing="0.0112em"><tspan x="180" y="416">Monthly payment</tspan></text>
                <text fill="#002E5D" xml:space="preserve" style="white-space: pre"
                  font-family="Poppins" font-size="10" letter-spacing="0em"><tspan x="269.58" y="416">&#xb2;</tspan></text>
              </g>
            </g>
            <g id="Body">
              <g id="APR">
                <rect id="bullet" x="286" y="375.5" width="6" height="6" fill="#D71920" />
                <text id="Token_APR" fill="#002E5D" xml:space="preserve" style="white-space: pre"
                  font-family="Poppins" font-size="10" letter-spacing="0.0112em"><tspan x="300" y="382">10.59% APR</tspan></text>
              </g>
              <g id="Term">
                <rect id="bullet_2" x="286" y="392.5" width="6" height="6" fill="#D71920" />
                <text id="Token_Term" fill="#002E5D" xml:space="preserve" style="white-space: pre"
                  font-family="Poppins" font-size="10" letter-spacing="0.0112em"><tspan x="300" y="399">25-Year Term</tspan></text>
              </g>
              <g id="No prepayment penalty">
                <rect id="bullet_3" x="286" y="409.5" width="6" height="6" fill="#D71920" />
                <text id="No Prepayment Penalty" fill="#002E5D" xml:space="preserve"
                  style="white-space: pre" font-family="Poppins" font-size="10"
                  letter-spacing="0.0112em"><tspan x="300" y="416">No Prepayment Penalty</tspan></text>
              </g>
            </g>
          </g>
        </g>
        <rect x="32.5" y="317.5" width="407" height="118" stroke="#101820" />
      </g>
    </g>
    <g id="What You Invest">
      <g id="Upfront investment">
        <g id="Info_2">
          <g id="Table">
            <g id="Column">
              <g id="Header">
                <mask id="path-115-inside-1_4898_94044" fill="white">
                  <path d="M32 93H236V117H32V93Z" />
                </mask>
                <path d="M32 93H236V117H32V93Z" fill="white" />
                <text id="What you pay" fill="#002E5D" xml:space="preserve" style="white-space: pre"
                  font-family="Poppins" font-size="16" font-weight="bold" letter-spacing="0.0112em"><tspan x="32" y="110.6">What you pay</tspan></text>
                <path d="M236 116H32V118H236V116Z" fill="#F1F2F2"
                  mask="url(#path-115-inside-1_4898_94044)" />
              </g>
              <g id="Row">
                <text id="Federal investment Tax Credit" fill="#002E5D" xml:space="preserve"
                  style="white-space: pre" font-family="Poppins" font-size="14"
                  letter-spacing="0.0112em"><tspan x="32" y="141.9">Federal Investment Tax Credit</tspan></text>
                <path d="M236 148H32V150H236V148Z" fill="#F1F2F2"
                  mask="url(#path-118-inside-2_4898_94044)" />
              </g>
              <g id="Row_2">
                <text id="NYSERDA" fill="#002E5D" xml:space="preserve" style="white-space: pre"
                  font-family="Poppins" font-size="14" letter-spacing="0.0112em"><tspan x="32" y="172.4">NYSERDA</tspan></text>
                <text id="1" fill="#002E5D" xml:space="preserve" style="white-space: pre"
                  font-family="Poppins" font-size="10" letter-spacing="0.0112em"><tspan x="95" y="168">1</tspan></text>
              </g>
              <g id="Row_3">
                <text id="Net Investment After Incentives" fill="#D71920" xml:space="preserve"
                  style="white-space: pre" font-family="Poppins" font-size="14"
                  letter-spacing="0.0112em"><tspan x="32" y="211.9">Net Investment After Incentives</tspan></text>
                <path d="M32 190H236V188H32V190Z" fill="#002E5D"
                  mask="url(#path-123-inside-3_4898_94044)" />
              </g>
            </g>
            <g id="Column_2">
              <g id="Header_2">
                <mask id="path-126-inside-4_4898_94044" fill="white">
                  <path d="M236 93H440V117H236V93Z" />
                </mask>
                <path d="M236 93H440V117H236V93Z" fill="white" />
                <text id="Token_TotalPrice_2" fill="#002E5D" xml:space="preserve"
                  style="white-space: pre" font-family="Poppins" font-size="16" font-weight="bold"
                  letter-spacing="0.0112em"><tspan x="373" y="110.6">$45,320</tspan></text>
                <path d="M440 116H236V118H440V116Z" fill="#F1F2F2"
                  mask="url(#path-126-inside-4_4898_94044)" />
              </g>
              <g id="Row_4">
                <text id="Token_FedITC" fill="#002E5D" xml:space="preserve" style="white-space: pre"
                  font-family="Poppins" font-size="14" letter-spacing="0.0112em"><tspan x="385" y="141.9">-$9,825</tspan></text>
                <path d="M440 148H236V150H440V148Z" fill="#F1F2F2"
                  mask="url(#path-129-inside-5_4898_94044)" />
              </g>
              <g id="Row_5">
                <text id="Token_OtherIncentives" fill="#002E5D" xml:space="preserve"
                  style="white-space: pre" font-family="Poppins" font-size="14"
                  letter-spacing="0.0112em"><tspan x="389" y="173.9">-$2,154</tspan></text>
              </g>
              <g id="Row_6">
                <text id="Token_CostAfterIncent" fill="#D71920" xml:space="preserve"
                  style="white-space: pre" font-family="Poppins" font-size="14"
                  letter-spacing="0.0112em"><tspan x="389" y="211.9">$33,341</tspan></text>
                <path d="M236 190H440V188H236V190Z" fill="#002E5D"
                  mask="url(#path-133-inside-6_4898_94044)" />
              </g>
            </g>
          </g>
        </g>
      </g>
    </g>
    <text id="Heading_2" fill="#002E5D" xml:space="preserve" style="white-space: pre"
      font-family="Poppins" font-size="36" font-weight="600" letter-spacing="0.0112em"><tspan x="32" y="67.1">Your Investment Options</tspan></text>
  </g>
  <defs>
    <clipPath id="clip0_4898_94044">
      <rect width="264" height="237" fill="white" transform="translate(488 165)" />
    </clipPath>
    <clipPath id="clip1_4898_94044">
      <rect width="28" height="17.8483" fill="white" transform="translate(490 172)" />
    </clipPath>
  </defs>
</svg>