<svg width="792" height="612" viewBox="0 0 792 612" fill="none" xmlns="http://www.w3.org/2000/svg">
  <g id="12 Your Investment Options / NYSERDA / No savings">
    <g fragment="whatYouGet" />
    <g
      id="https://www.nyserda.ny.gov/all-programs/ny-sun/contractors/dashboards-and-incentives. Actual rebate will be received by GAF Energy and deducted from Customer&#226;&#128;&#153;s final payment obligation set forth on Exhibit B of the Roofing and Solar Installation Agreement entered into with GAF Energy. While you may be able to apply the 30% Federal Tax Credit to your cash purchase or loan amount, GAF Energy does not provide tax or legal advice. You should consult with your tax advisor for more information. This proposal contains preliminary estimates and does not represent a binding agreement or obligation to the homeowner. This is not a guarantee, warranty, or representation regarding the production, performance, utility rate increases, workmanship, or any other data relating to Timberline Solar. This proposal is not an approval for installation or financing. &#226;&#128;&#168;2 Monthly payment amount assumes a partial prepayment equal to 30% of principal prior to month 18 of loan term.">
      <text fill="#606366" xml:space="preserve" style="white-space: pre" font-family="Poppins"
        font-size="10" letter-spacing="0.0112em"><tspan x="32" y="486">https://www.nyserda.ny.gov/all-programs/ny-sun/contractors/dashboards-and-incentives. Actual rebate will be received by GAF Energy and </tspan><tspan x="32" y="499">deducted from Customer&#x2019;s final payment obligation set forth on Exhibit B of the Roofing and Solar Installation Agreement entered into with GAF </tspan><tspan x="32" y="512">Energy. While you may be able to apply the 30% Federal Tax Credit to your cash purchase or loan amount, GAF Energy does not provide tax or </tspan><tspan x="32" y="525">legal advice. You should consult with your tax advisor for more information. This proposal contains preliminary estimates and does not </tspan><tspan x="32" y="538">represent a binding agreement or obligation to the homeowner. This is not a guarantee, warranty, or representation regarding the production, </tspan><tspan x="32" y="551">performance, utility rate increases, workmanship, or any other data relating to Timberline Solar. This proposal is not an approval for installation </tspan><tspan x="32" y="564">or financing. &#x2028;</tspan><tspan x="35.4128" y="577"> Monthly payment amount assumes a partial prepayment equal to 30% of principal prior to month 18 of loan term.</tspan></text>
      <text fill="#606366" xml:space="preserve" style="white-space: pre" font-family="Poppins"
        font-size="10" letter-spacing="0.0112em"><tspan x="32" y="577">&#xb2;</tspan></text>
    </g>
    <g>
      <text id="Token_NYSERDA_Disclosure" fill="#606366" xml:space="preserve" style="white-space: pre" font-family="Poppins"
        font-size="10" letter-spacing="0.0112em"><tspan x="34.0749" y="460"> Includes both the New York Solar Tax Credit estimated value and the Estimated NYSERDA rebate value of $717 - The NYSERDA rebate value is </tspan></text>
      <text fill="#606366" xml:space="preserve" style="white-space: pre" font-family="Poppins"
        font-size="10" letter-spacing="0.0112em"><tspan x="32" y="473">estimated based on NYSERDA&#x2019;s rebate schedule available here:</tspan></text>
      <text fill="#606366" xml:space="preserve" style="white-space: pre" font-family="Poppins"
        font-size="10" letter-spacing="0.0112em"><tspan x="32" y="460">&#xb9;</tspan></text>
    </g>
    <g id="Let&#39;s make it official">
      <g id="Text">
        <text id="Let&#226;&#128;&#153;s make it official" fill="#002E5D" xml:space="preserve" style="white-space: pre" font-family="Poppins" font-size="14" font-weight="600" letter-spacing="0.0112em"><tspan x="32" y="246.4">Let&#x2019;s make it official</tspan></text>
        <text id="Choose between an upfront investment or apply for financing" fill="#002E5D" xml:space="preserve" style="white-space: pre" font-family="Poppins" font-size="12" font-weight="600" letter-spacing="0.0112em"><tspan x="32" y="266.7">Choose between an upfront investment or apply for financing</tspan></text>
      </g>
      <g id="Monthly Investment">
        <rect x="32.5" y="281.5" width="407" height="118" fill="white"/>
        <g id="Upfront purchase">
          <g id="Illustration + title section">
            <g id="Wallet Illustration">
              <g id="ENERGY_Icon_Wallet_FullColor">
                <path id="Vector_62" d="M59.963 306.943L59.9309 306.568H66.0848L69.0355 302.383L60.4494 296.327L59.2119 298.081L59.1447 297.283L54.6322 295.877L53.5965 298.886L53.3548 298.375L49.162 298.439L49.1376 306.943H48.3789V322.623H70.8128V306.943H59.963Z" fill="white"/>
                <path id="Vector_63" d="M59.8939 305.138C59.7472 305.044 59.6355 304.904 59.5759 304.739C59.5162 304.575 59.5119 304.396 59.5635 304.23L59.1749 303.959L59.4809 303.534L59.8586 303.798C60.1141 303.546 60.4706 303.524 60.8193 303.746L60.8789 303.784L60.5516 304.245L60.4982 304.211C60.4686 304.187 60.4341 304.17 60.3972 304.161C60.3602 304.152 60.3217 304.151 60.2844 304.158C60.247 304.165 60.2118 304.181 60.181 304.203C60.1503 304.226 60.1248 304.254 60.1065 304.288C60.0855 304.32 60.0713 304.356 60.0649 304.395C60.0586 304.433 60.0601 304.472 60.0694 304.509C60.0788 304.546 60.0957 304.582 60.1192 304.612C60.1426 304.643 60.1722 304.668 60.206 304.687C60.3161 304.767 60.4339 304.78 60.645 304.592C60.8187 304.415 61.0453 304.3 61.2905 304.263L64.9203 299.114L60.4843 295.965L52.8359 306.806L59.3845 306.948L60.5852 305.247C60.4706 305.291 60.3464 305.304 60.2251 305.285C60.1037 305.266 59.9895 305.215 59.8939 305.138Z" fill="#B1B1B3"/>
                <path id="Vector_64" d="M62.5255 302.502C61.9022 302.063 61.1298 301.889 60.3782 302.019C59.6266 302.149 58.9574 302.572 58.5178 303.195C58.0782 303.818 57.9043 304.591 58.0342 305.342C58.1642 306.094 58.5874 306.763 59.2108 307.203C59.2689 307.244 59.3301 307.282 59.3897 307.319H62.3481C62.7583 307.073 63.1005 306.728 63.3439 306.315C63.5872 305.903 63.7239 305.437 63.7415 304.959C63.7591 304.48 63.6572 304.005 63.4448 303.576C63.2325 303.147 62.9165 302.778 62.5255 302.502ZM62.2762 306.144L61.8968 305.877C61.7473 306.005 61.5591 306.08 61.362 306.09C61.1649 306.099 60.9704 306.043 60.8093 305.929L60.7466 305.89L61.0662 305.431L61.1197 305.461C61.2727 305.548 61.4976 305.603 61.6582 305.376C61.7791 305.205 61.7331 305.018 61.5343 304.879C61.3981 304.783 61.2514 304.765 60.9821 304.994C60.5783 305.338 60.2433 305.381 59.893 305.133C59.7463 305.039 59.6346 304.898 59.575 304.734C59.5153 304.57 59.511 304.391 59.5626 304.225L59.174 303.96L59.48 303.535L59.8577 303.799C60.1132 303.547 60.4697 303.526 60.8184 303.747L60.878 303.786L60.5507 304.246L60.4972 304.212C60.4677 304.188 60.4332 304.171 60.3963 304.162C60.3593 304.153 60.3208 304.152 60.2835 304.159C60.2461 304.166 60.2109 304.182 60.1801 304.204C60.1494 304.227 60.1239 304.255 60.1056 304.289C60.0846 304.321 60.0704 304.358 60.064 304.396C60.0577 304.434 60.0592 304.473 60.0685 304.51C60.0778 304.547 60.0948 304.583 60.1183 304.613C60.1417 304.644 60.1713 304.669 60.2051 304.688C60.3152 304.768 60.433 304.781 60.6441 304.593C61.0739 304.209 61.4562 304.159 61.8463 304.44C62.2364 304.722 62.3496 305.092 62.1936 305.465L62.5699 305.731L62.2762 306.144Z" fill="#D71920"/>
                <path id="Vector_65" d="M50.4918 306.569H49.5144L49.5358 299.198L52.1637 299.152L52.4147 298.398L48.7893 298.46L48.7648 306.577H48V322.999H71.1835V306.569H66.9985L70.0762 302.203L60.2648 295.283L52.3105 306.569H51.2841L54.5959 296.651L57.6812 297.613L58.1401 296.969L54.1218 295.716M60.456 296.328L69.042 302.384L66.0914 306.569H53.233L60.456 296.328ZM70.4448 322.25H48.7541V307.319H70.4387L70.4448 322.25Z" fill="#101820"/>
                <path id="Vector_66" d="M72.0016 312.207H63.6588C62.9864 312.209 62.3421 312.477 61.8667 312.953C61.3912 313.428 61.1231 314.072 61.1211 314.745V314.821C61.1231 315.494 61.3912 316.138 61.8667 316.613C62.3421 317.089 62.9864 317.357 63.6588 317.359H72.0016V312.207Z" fill="#2774AE"/>
                <path id="Vector_67" d="M63.808 316.012C64.4872 316.012 65.0378 315.462 65.0378 314.783C65.0378 314.103 64.4872 313.553 63.808 313.553C63.1288 313.553 62.5781 314.103 62.5781 314.783C62.5781 315.462 63.1288 316.012 63.808 316.012Z" fill="white"/>
                <path id="Vector_68" d="M63.8077 316.387C63.4903 316.387 63.1801 316.293 62.9162 316.117C62.6523 315.94 62.4467 315.69 62.3252 315.396C62.2038 315.103 62.1721 314.781 62.234 314.469C62.2959 314.158 62.4486 313.872 62.673 313.648C62.8974 313.423 63.1833 313.27 63.4946 313.209C63.8059 313.147 64.1286 313.178 64.4218 313.3C64.715 313.421 64.9655 313.627 65.1418 313.891C65.3181 314.155 65.4124 314.465 65.4124 314.782C65.4124 315.208 65.2433 315.616 64.9424 315.917C64.6415 316.218 64.2333 316.387 63.8077 316.387ZM63.8077 313.927C63.6386 313.927 63.4733 313.977 63.3327 314.071C63.192 314.165 63.0825 314.299 63.0178 314.455C62.9531 314.611 62.9361 314.783 62.9691 314.949C63.0021 315.115 63.0834 315.267 63.203 315.387C63.3226 315.507 63.475 315.588 63.6408 315.621C63.8067 315.654 63.9787 315.637 64.135 315.572C64.2912 315.508 64.4246 315.398 64.5186 315.257C64.6126 315.117 64.6628 314.951 64.6628 314.782C64.6624 314.556 64.5722 314.338 64.4119 314.178C64.2517 314.018 64.0344 313.928 63.8077 313.927Z" fill="#101820"/>
              </g>
            </g>
            <g id="Amount">
              <text id="Upfront" fill="#002E5D" xml:space="preserve" style="white-space: pre" font-family="Poppins" font-size="10" font-weight="600" letter-spacing="0.0112em"><tspan x="80" y="304">Upfront </tspan></text>
              <text id="Purchase" fill="#002E5D" xml:space="preserve" style="white-space: pre" font-family="Poppins" font-size="10" font-weight="600" letter-spacing="0.0112em"><tspan x="80" y="319">Purchase</tspan></text>
            </g>
          </g>
          <g id="Monthly price">
            <text id="Token_TotalPrice" fill="#002E5D" xml:space="preserve" style="white-space: pre" font-family="Poppins" font-size="24" font-weight="600" letter-spacing="0.0112em"><tspan x="48" y="360.4">$45,320</tspan></text>
          </g>
        </g>
        <rect id="Rectangle 365" x="163" y="298.5" width="1" height="84" fill="#D71920"/>
        <g id="Upfront purchase_2">
          <g id="Illustration + Amount">
            <g id="ENERGY_Icon_Calendar_FullColor">
              <path id="Vector_69" d="M181.656 300.889V302.349H202.54V315.937H204.001V300.895V300.889H181.656Z" fill="#2774AE"/>
              <path id="Vector_70" d="M183.828 315.917H180V303.199H201.493V319.7H183.828V315.917Z" fill="white"/>
              <path id="Vector_71" d="M201.493 303.305H180.457V306.5H201.493V303.305Z" fill="#B1B1B3"/>
              <path id="Vector_72" d="M180 315.916H183.828V319.699L180 315.916Z" fill="#B1B1B3"/>
              <path id="Vector_73" d="M185.275 307.963H183.906V309.332H185.275V307.963Z" fill="#D71920"/>
              <path id="Vector_74" d="M188.459 307.963H187.09V309.332H188.459V307.963Z" fill="#D71920"/>
              <path id="Vector_75" d="M191.646 307.963H190.277V309.332H191.646V307.963Z" fill="#D71920"/>
              <path id="Vector_76" d="M194.83 307.963H193.461V309.332H194.83V307.963Z" fill="#D71920"/>
              <path id="Vector_77" d="M198.017 307.963H196.648V309.332H198.017V307.963Z" fill="#D71920"/>
              <path id="Vector_78" d="M185.275 310.846H183.906V312.214H185.275V310.846Z" fill="#D71920"/>
              <path id="Vector_79" d="M188.459 310.846H187.09V312.214H188.459V310.846Z" fill="#D71920"/>
              <path id="Vector_80" d="M191.646 310.846H190.277V312.214H191.646V310.846Z" fill="#D71920"/>
              <path id="Vector_81" d="M194.83 310.846H193.461V312.214H194.83V310.846Z" fill="#D71920"/>
              <path id="Vector_82" d="M198.017 310.846H196.648V312.214H198.017V310.846Z" fill="#D71920"/>
              <path id="Vector_83" d="M185.275 313.729H183.906V315.097H185.275V313.729Z" fill="#D71920"/>
              <path id="Vector_84" d="M188.373 313.729H187.004V315.097H188.373V313.729Z" fill="#D71920"/>
              <path id="Vector_85" d="M191.646 313.729H190.277V315.097H191.646V313.729Z" fill="#D71920"/>
              <path id="Vector_86" d="M194.916 313.729H193.547V315.097H194.916V313.729Z" fill="#D71920"/>
              <path id="Vector_87" d="M198.017 313.729H196.648V315.097H198.017V313.729Z" fill="#D71920"/>
              <path id="Vector_88" d="M195.282 302.927C195.209 302.695 195.191 302.448 195.229 302.208C195.268 301.967 195.362 301.738 195.505 301.541C195.647 301.343 195.834 301.181 196.05 301.068C196.266 300.955 196.505 300.894 196.749 300.89H198.251C197.945 300.601 197.561 300.408 197.148 300.335C196.734 300.262 196.307 300.312 195.921 300.479C195.536 300.646 195.207 300.922 194.977 301.274C194.746 301.625 194.624 302.036 194.624 302.457C194.624 302.617 194.642 302.778 194.677 302.935H189.456C189.381 302.699 189.362 302.45 189.401 302.206C189.441 301.962 189.537 301.731 189.682 301.532C189.828 301.332 190.018 301.17 190.238 301.058C190.458 300.946 190.701 300.888 190.948 300.887H192.421C192.115 300.6 191.732 300.408 191.318 300.336C190.905 300.264 190.479 300.314 190.094 300.481C189.709 300.647 189.381 300.923 189.151 301.274C188.92 301.625 188.798 302.036 188.798 302.456C188.798 302.616 188.816 302.776 188.851 302.933H183.834C183.76 302.7 183.743 302.452 183.782 302.21C183.821 301.968 183.917 301.738 184.061 301.54C184.205 301.342 184.394 301.18 184.612 301.068C184.83 300.956 185.071 300.896 185.317 300.894H186.802C186.497 300.606 186.113 300.413 185.699 300.34C185.285 300.267 184.859 300.317 184.473 300.484C184.087 300.651 183.759 300.927 183.528 301.278C183.298 301.63 183.175 302.041 183.176 302.462C183.176 302.622 183.194 302.782 183.229 302.939H180.004V315.017H180.589V303.513H183.456C183.623 303.811 183.859 304.065 184.144 304.253C184.43 304.442 184.756 304.56 185.096 304.597C185.153 304.649 185.225 304.684 185.302 304.696C185.379 304.708 185.458 304.698 185.529 304.666C185.6 304.635 185.66 304.583 185.703 304.518C185.745 304.453 185.768 304.376 185.768 304.299C185.768 304.221 185.745 304.144 185.703 304.079C185.66 304.014 185.6 303.962 185.529 303.931C185.458 303.899 185.379 303.889 185.302 303.901C185.225 303.913 185.153 303.948 185.096 304C184.739 303.947 184.412 303.773 184.169 303.507H189.074C189.243 303.805 189.48 304.059 189.766 304.248C190.052 304.436 190.379 304.554 190.72 304.591C190.778 304.643 190.849 304.678 190.926 304.69C191.003 304.702 191.082 304.692 191.153 304.66C191.224 304.629 191.285 304.577 191.327 304.512C191.37 304.447 191.392 304.37 191.392 304.293C191.392 304.215 191.37 304.138 191.327 304.073C191.285 304.008 191.224 303.956 191.153 303.925C191.082 303.893 191.003 303.883 190.926 303.895C190.849 303.907 190.778 303.942 190.72 303.994C190.363 303.941 190.036 303.767 189.793 303.501H194.9C195.068 303.799 195.305 304.054 195.591 304.242C195.877 304.431 196.204 304.549 196.545 304.585C196.603 304.637 196.674 304.672 196.751 304.684C196.828 304.696 196.907 304.686 196.978 304.654C197.049 304.623 197.11 304.571 197.152 304.506C197.195 304.441 197.217 304.364 197.217 304.287C197.217 304.209 197.195 304.132 197.152 304.067C197.11 304.002 197.049 303.95 196.978 303.919C196.907 303.887 196.828 303.877 196.751 303.889C196.674 303.901 196.603 303.936 196.545 303.988C196.189 303.935 195.861 303.761 195.618 303.495H201.351V319.114H184.82V319.699H201.936V302.927H195.282Z" fill="#101820"/>
            </g>
            <g id="Amount_2">
              <text id="Financed" fill="#002E5D" xml:space="preserve" style="white-space: pre" font-family="Poppins" font-size="10" font-weight="600" letter-spacing="0.0112em"><tspan x="212" y="313.5">Financed</tspan></text>
              <g id="Lender logo">
                <g id="Lender logo_2">
                  <rect width="140" height="40" transform="translate(286 290)" fill="#F1F2F2"/>
                  <text id="LENDER LOGO&#226;&#128;&#168;PLACEHOLDER" fill="#606366" xml:space="preserve" style="white-space: pre" font-family="Poppins" font-size="12" font-weight="600" letter-spacing="0.0112em"><tspan x="315.42" y="307.2">LENDER LOGO&#x2028;</tspan><tspan x="313.726" y="321.2">PLACEHOLDER</tspan></text>
                </g>
              </g>
            </g>
          </g>
          <g id="Info_2">
            <g id="Monthly payment">
              <text id="Token_MonthlyPrice" fill="#002E5D" xml:space="preserve" style="white-space: pre" font-family="Poppins" font-size="24" font-weight="600" letter-spacing="0.0112em"><tspan x="180" y="359.4">$179</tspan></text>
              <g id="Monthly payment_2">
                <text fill="#002E5D" xml:space="preserve" style="white-space: pre" font-family="Poppins" font-size="10" letter-spacing="0.0112em"><tspan x="180" y="380">Monthly payment</tspan></text>
                <text fill="#002E5D" xml:space="preserve" style="white-space: pre" font-family="Poppins" font-size="10" letter-spacing="0em"><tspan x="269.58" y="380">&#xb2;</tspan></text>
              </g>
            </g>
            <g id="Body">
              <g id="APR">
                <rect id="bullet" x="286" y="339.5" width="6" height="6" fill="#D71920"/>
                <text id="Token_APR" fill="#002E5D" xml:space="preserve" style="white-space: pre" font-family="Poppins" font-size="10" letter-spacing="0.0112em"><tspan x="300" y="346">10.59% APR</tspan></text>
              </g>
              <g id="Term">
                <rect id="bullet_2" x="286" y="356.5" width="6" height="6" fill="#D71920"/>
                <text id="Token_Term" fill="#002E5D" xml:space="preserve" style="white-space: pre" font-family="Poppins" font-size="10" letter-spacing="0.0112em"><tspan x="300" y="363">25-Year Term</tspan></text>
              </g>
              <g id="No prepayment penalty">
                <rect id="bullet_3" x="286" y="373.5" width="6" height="6" fill="#D71920"/>
                <text id="No Prepayment Penalty" fill="#002E5D" xml:space="preserve" style="white-space: pre" font-family="Poppins" font-size="10" letter-spacing="0.0112em"><tspan x="300" y="380">No Prepayment Penalty</tspan></text>
              </g>
            </g>
          </g>
        </g>
        <rect x="32.5" y="281.5" width="407" height="118" stroke="#101820"/>
      </g>
    </g>
    <g fragment="upfront" />
    <g fragment="disclosure" />
    <text id="Heading_2" fill="#002E5D" xml:space="preserve" style="white-space: pre"
      font-family="Poppins" font-size="36" font-weight="600" letter-spacing="0.0112em"><tspan x="32" y="67.1">Your Investment Options</tspan></text>
  </g>
  <defs>
    <clipPath id="clip0_4898_94044">
      <rect width="264" height="237" fill="white" transform="translate(488 165)" />
    </clipPath>
    <clipPath id="clip1_4898_94044">
      <rect width="28" height="17.8483" fill="white" transform="translate(490 172)" />
    </clipPath>
  </defs>
</svg>
