<svg width="792" height="612" viewBox="0 0 792 612" fill="none" xmlns="http://www.w3.org/2000/svg">
  <g id="What you get">
    <rect width="296" height="397" transform="translate(472 92)" fill="#F1F2F2"/>
    <text id="Heading_2" fill="#002E5D" xml:space="preserve" style="white-space: pre" font-family="Poppins" font-size="20" font-weight="600" letter-spacing="0.0112em"><tspan x="488" y="122">What you get</tspan></text>
    <g id="Content">
      <g id="Savings">
        <g id="Years Savings">
          <text id="Token_25YearSavings" fill="#002E5D" xml:space="preserve" style="white-space: pre" font-family="Poppins" font-size="36" font-weight="600" letter-spacing="0.0112em"><tspan x="488" y="171.6">$27,655</tspan></text>
          <g id="Description">
            <text id="Estimated 25-Year" fill="#002E5D" xml:space="preserve" style="white-space: pre" font-family="Poppins" font-size="12" letter-spacing="0.0112em"><tspan x="641" y="156.2">Estimated 25-Year</tspan></text>
            <text id="Electric Bill Savings" fill="#002E5D" xml:space="preserve" style="white-space: pre" font-family="Poppins" font-size="12" letter-spacing="0.0112em"><tspan x="641" y="170.2">Electric Bill Savings</tspan></text>
          </g>
        </g>
        <line id="Divider" x1="488" y1="188.5" x2="752" y2="188.5" stroke="black"/>
      </g>
      <g id="Content_2">
        <g id="Description_2">
          <g id="3">
            <g id="ENERGY_Icon_SolarHouse_FullColor_New">
              <g id="Icon/ medal">
                <g id="Asset 4 2">
                  <g id="Layer 1">
                    <g id="Group">
                      <g id="Group_2">
                        <path id="Vector_28" d="M508.129 220.293H499.015L491.945 227.479V237.524H516.365V228.705L508.129 220.293Z" fill="white"/>
                        <g id="Group_3">
                          <path id="Vector_29" d="M507.683 228.736L499.508 220.309L509.207 220.184L517.281 228.789L507.683 228.736Z" fill="#A9ABAC"/>
                          <path id="Vector_30" d="M517.281 228.721H507.512L499.508 220.309H509.277L517.281 228.721Z" stroke="#000006" stroke-width="0.615944" stroke-miterlimit="10"/>
                          <path id="Vector_31" d="M501.65 229.102H496.766V237.293H501.65V229.102Z" fill="#D71920"/>
                          <path id="Vector_32" d="M491.943 227.479V228.729H490.727L499.014 220.215L491.943 227.479ZM491.943 227.479V237.54H516.363V228.722" stroke="#000006" stroke-width="0.615944" stroke-miterlimit="10"/>
                          <path id="Vector_33" d="M513.986 230.555H507.609V235.167H513.986V230.555Z" fill="#A9ABAC" stroke="#000006" stroke-width="0.615944" stroke-miterlimit="10"/>
                          <path id="Vector_34" d="M510.867 230.414V235.163" stroke="#000006" stroke-width="0.615944" stroke-miterlimit="10"/>
                        </g>
                        <path id="Vector_35" d="M490.984 228.466L491.709 227.742H491.945V228.729L490.984 228.79V228.466Z" fill="#000006"/>
                      </g>
                      <path id="Vector_36" d="M498.254 233.332H497.562V234.024H498.254V233.332Z" fill="#000006"/>
                    </g>
                    <g id="Group_4">
                      <path id="Vector_37" d="M514.232 227.088L507.617 227.172L502.312 221.632L509.042 221.625L514.232 227.088Z" fill="white"/>
                      <path id="Vector_38" d="M504.695 224.148H511.53" stroke="#0F7BB6" stroke-width="0.175984" stroke-miterlimit="10"/>
                      <path id="Vector_39" d="M504.219 223.645H511.023" stroke="#0F7BB6" stroke-width="0.175984" stroke-miterlimit="10"/>
                      <path id="Vector_40" d="M503.734 223.141H510.543" stroke="#0F7BB6" stroke-width="0.175984" stroke-miterlimit="10"/>
                      <path id="Vector_41" d="M503.258 222.633H510.07" stroke="#0F7BB6" stroke-width="0.175984" stroke-miterlimit="10"/>
                      <path id="Vector_42" d="M502.781 222.133H509.599" stroke="#0F7BB6" stroke-width="0.175984" stroke-miterlimit="10"/>
                      <path id="Vector_43" d="M506.234 225.66H512.946" stroke="#0F7BB6" stroke-width="0.175984" stroke-miterlimit="10"/>
                      <path id="Vector_44" d="M505.75 225.156H512.442" stroke="#0F7BB6" stroke-width="0.175984" stroke-miterlimit="10"/>
                      <path id="Vector_45" d="M507.188 227.172H514.516" stroke="#0F7BB6" stroke-width="0.175984" stroke-miterlimit="10"/>
                      <path id="Vector_46" d="M507.188 226.668H513.926" stroke="#0F7BB6" stroke-width="0.175984" stroke-miterlimit="10"/>
                      <path id="Vector_47" d="M506.711 226.164H513.43" stroke="#0F7BB6" stroke-width="0.175984" stroke-miterlimit="10"/>
                      <path id="Vector_48" d="M505.273 224.652H511.971" stroke="#0F7BB6" stroke-width="0.175984" stroke-miterlimit="10"/>
                      <path id="Vector_49" d="M506.812 221.52L512.255 227.247" stroke="#0F7BB6" stroke-width="0.351968" stroke-miterlimit="10"/>
                      <path id="Vector_50" d="M509.102 221.605L514.52 227.309" stroke="#0F7BB6" stroke-width="0.175984" stroke-miterlimit="10"/>
                      <path id="Vector_51" d="M504.508 221.52L509.95 227.247" stroke="#0F7BB6" stroke-width="0.351968" stroke-miterlimit="10"/>
                      <path id="Vector_52" d="M502.312 221.547L507.725 227.243" stroke="#0F7BB6" stroke-width="0.351968" stroke-miterlimit="10"/>
                      <path id="Vector_53" d="M501.977 221.609H509.371" stroke="#0F7BB6" stroke-width="0.175984" stroke-miterlimit="10"/>
                      <path id="Vector_54" d="M507.227 227.328H514.64" stroke="#A9ABAC" stroke-width="0.175984" stroke-miterlimit="10"/>
                      <path id="Vector_55" d="M501.797 221.414H509.452" stroke="#A9ABAC" stroke-width="0.263976" stroke-miterlimit="10"/>
                      <path id="Vector_56" d="M509.109 221.391L514.704 227.279" stroke="#A9ABAC" stroke-width="0.175984" stroke-miterlimit="10"/>
                      <path id="Vector_57" d="M501.586 221.301L507.569 227.587" stroke="#A9ABAC" stroke-width="0.351968" stroke-miterlimit="10"/>
                    </g>
                  </g>
                </g>
              </g>
            </g>
            <g id="Built-In Energy Shingles">
              <g id="Energy shingles">
                <text id="7.12 kW Timberline Solar ES" fill="#002E5D" xml:space="preserve" style="white-space: pre" font-family="Poppins" font-size="14" font-weight="600" letter-spacing="0.0112em"><tspan x="528" y="228.4">7.12 kW Timberline Solar ES</tspan></text>
                <text id="Add value to your home with a roof that reliably reduces your energy bills." fill="#002E5D" xml:space="preserve" style="white-space: pre" font-family="Poppins" font-size="12" letter-spacing="0.0112em"><tspan x="528" y="247.2">Add value to your home with a </tspan>
                  <tspan x="528" y="265.2">roof that reliably reduces your </tspan>
                  <tspan x="528" y="283.2">energy bills.</tspan></text>
              </g>
            </g>
          </g>
          <g id="7-part">
            <g id="House Icon_ New">
              <g id="Layer 1_2">
                <path id="Vector_58" d="M503.196 315.395L494.367 321.299V334.287H513.084V321.762" fill="white"/>
                <g id="Clip path group">
                  <mask id="mask0_5068_76698" style="mask-type:luminance" maskUnits="userSpaceOnUse" x="493" y="321" width="22" height="15">
                    <g id="clippath">
                      <path id="Vector_59" d="M514.512 321.766H493.215V336.001H514.512V321.766Z" fill="white"/>
                    </g>
                  </mask>
                  <g mask="url(#mask0_5068_76698)">
                    <g id="Group_5">
                      <path id="Vector_60" d="M495.73 322.469H493.914V335.295H513.809V333.591H495.73V322.469Z" fill="#626367"/>
                    </g>
                  </g>
                </g>
                <g id="Clip path group_2">
                  <mask id="mask1_5068_76698" style="mask-type:luminance" maskUnits="userSpaceOnUse" x="503" y="315" width="16" height="20">
                    <g id="clippath-1">
                      <path id="Vector_61" d="M518.038 315.398H503.199V334.29H518.038V315.398Z" fill="white"/>
                    </g>
                  </mask>
                  <g mask="url(#mask1_5068_76698)">
                    <g id="Group_6">
                      <path id="Vector_62" d="M507.503 316.098H503.898L512.033 321.441V333.587H513.793V322.465H517.335L507.503 316.098Z" fill="#626367"/>
                    </g>
                  </g>
                </g>
                <g id="Clip path group_3">
                  <mask id="mask2_5068_76698" style="mask-type:luminance" maskUnits="userSpaceOnUse" x="489" y="313" width="20" height="12">
                    <g id="clippath-2">
                      <path id="Vector_63" d="M508.199 313.125H489.672V324.983H508.199V313.125Z" fill="white"/>
                    </g>
                  </mask>
                  <g mask="url(#mask2_5068_76698)">
                    <g id="Group_7">
                      <path id="Vector_64" d="M503.983 313.828L490.371 322.58L491.276 324.284L493.891 322.468H495.708V321.444L503.891 316.1H507.496L503.983 313.828Z" fill="#626367"/>
                    </g>
                  </g>
                </g>
                <g id="Clip path group_4">
                  <mask id="mask3_5068_76698" style="mask-type:luminance" maskUnits="userSpaceOnUse" x="513" y="321" width="6" height="4">
                    <g id="clippath-3">
                      <path id="Vector_65" d="M518.162 321.766H513.078V324.76H518.162V321.766Z" fill="white"/>
                    </g>
                  </mask>
                  <g mask="url(#mask3_5068_76698)">
                    <g id="Group_8">
                      <path id="Vector_66" d="M517.33 322.469H513.789L516.286 324.061L517.464 322.553L517.33 322.469Z" fill="#626367"/>
                    </g>
                  </g>
                </g>
                <g id="Clip path group_5">
                  <mask id="mask4_5068_76698" style="mask-type:luminance" maskUnits="userSpaceOnUse" x="489" y="316" width="9" height="7">
                    <g id="clippath-4">
                      <path id="Vector_67" d="M497.181 316.445H489.859V322.329H497.181V316.445Z" fill="white"/>
                    </g>
                  </mask>
                  <g mask="url(#mask4_5068_76698)">
                    <g id="Group_9">
                      <path id="Vector_68" d="M495.838 317.145L490.559 320.68L491.194 321.63L496.474 318.095L495.838 317.145Z" fill="#117BB6"/>
                    </g>
                  </g>
                </g>
                <g id="Clip path group_6">
                  <mask id="mask5_5068_76698" style="mask-type:luminance" maskUnits="userSpaceOnUse" x="510" y="316" width="8" height="7">
                    <g id="clippath-5">
                      <path id="Vector_69" d="M517.931 316.445H510.609V322.329H517.931V316.445Z" fill="white"/>
                    </g>
                  </mask>
                  <g mask="url(#mask5_5068_76698)">
                    <g id="Group_10">
                      <path id="Vector_70" d="M511.952 317.144L511.316 318.094L516.597 321.627L517.232 320.677L511.952 317.144Z" fill="#117BB6"/>
                    </g>
                  </g>
                </g>
                <g id="Clip path group_7">
                  <mask id="mask6_5068_76698" style="mask-type:luminance" maskUnits="userSpaceOnUse" x="489" y="316" width="6" height="5">
                    <g id="clippath-6">
                      <path id="Vector_71" d="M494.352 316.379H489.906V320.341H494.352V316.379Z" fill="white"/>
                    </g>
                  </mask>
                  <g mask="url(#mask6_5068_76698)">
                    <g id="Group_11">
                      <path id="Vector_72" d="M493.024 317.084L490.617 318.695L491.253 319.645L493.66 318.033L493.024 317.084Z" fill="#117BB6"/>
                    </g>
                  </g>
                </g>
                <g id="Clip path group_8">
                  <mask id="mask7_5068_76698" style="mask-type:luminance" maskUnits="userSpaceOnUse" x="513" y="316" width="5" height="5">
                    <g id="clippath-7">
                      <path id="Vector_73" d="M517.982 316.379H513.508V320.383H517.982V316.379Z" fill="white"/>
                    </g>
                  </mask>
                  <g mask="url(#mask7_5068_76698)">
                    <g id="Group_12">
                      <path id="Vector_74" d="M514.871 317.08L514.207 318.07L516.613 319.682L517.277 318.692L514.871 317.08Z" fill="#117BB6"/>
                    </g>
                  </g>
                </g>
                <g id="Clip path group_9">
                  <mask id="mask8_5068_76698" style="mask-type:luminance" maskUnits="userSpaceOnUse" x="489" y="307" width="19" height="12">
                    <g id="clippath-8">
                      <path id="Vector_75" d="M507.124 307.441H489.648V318.143H507.124V307.441Z" fill="white"/>
                    </g>
                  </mask>
                  <g mask="url(#mask8_5068_76698)">
                    <g id="Group_13">
                      <path id="Vector_76" d="M504.015 308.159H503.994L503.987 308.145L490.348 316.37L490.993 317.443L503.994 309.61H506.421L504.015 308.159Z" fill="#117BB6"/>
                    </g>
                  </g>
                </g>
                <g id="Clip path group_10">
                  <mask id="mask9_5068_76698" style="mask-type:luminance" maskUnits="userSpaceOnUse" x="503" y="308" width="16" height="11">
                    <g id="clippath-9">
                      <path id="Vector_77" d="M518.35 308.902H503.301V318.145H518.35V308.902Z" fill="white"/>
                    </g>
                  </mask>
                  <g mask="url(#mask9_5068_76698)">
                    <g id="Group_14">
                      <path id="Vector_78" d="M506.434 309.605H504.008L517.002 317.439L517.654 316.366L506.434 309.605Z" fill="#117BB6"/>
                    </g>
                  </g>
                </g>
                <g id="Group_15">
                  <g id="Clip path group_11">
                    <mask id="mask10_5068_76698" style="mask-type:luminance" maskUnits="userSpaceOnUse" x="493" y="309" width="15" height="10">
                      <g id="clippath-10">
                        <path id="Vector_79" d="M507.169 309.703H493.102V318.35H507.169V309.703Z" fill="white"/>
                      </g>
                    </mask>
                    <g mask="url(#mask10_5068_76698)">
                      <g id="Group_16">
                        <path id="Vector_80" d="M504.06 310.417H504.039L504.032 310.41L493.801 316.581L494.446 317.654L504.039 311.869H506.466L504.06 310.417Z" fill="#117BB6"/>
                      </g>
                    </g>
                  </g>
                  <g id="Clip path group_12">
                    <mask id="mask11_5068_76698" style="mask-type:luminance" maskUnits="userSpaceOnUse" x="503" y="311" width="12" height="8">
                      <g id="clippath-11">
                        <path id="Vector_81" d="M514.9 311.164H503.301V318.331H514.9V311.164Z" fill="white"/>
                      </g>
                    </mask>
                    <g mask="url(#mask11_5068_76698)">
                      <g id="Group_17">
                        <path id="Vector_82" d="M506.434 311.863H504.008L513.559 317.621L514.204 316.548L506.434 311.863Z" fill="#117BB6"/>
                      </g>
                    </g>
                  </g>
                </g>
                <path id="Vector_83" d="M506.658 305.522L504.126 304L501.363 305.662L501.952 306.644L504.035 305.388L506.02 306.588L506.658 305.522Z" fill="#117BB6"/>
                <path id="Vector_84" d="M504.005 306.039L507.96 308.43L507.301 309.496L503.984 307.491L500.492 309.594L499.805 308.543L504.005 306.039Z" fill="#117BB6"/>
                <path id="Vector_85" d="M506.446 324.055H501.242V333.62H506.446V324.055Z" fill="#D72027"/>
                <path id="Vector_86" d="M502.296 329.822C502.567 329.822 502.786 329.602 502.786 329.331C502.786 329.06 502.567 328.84 502.296 328.84C502.024 328.84 501.805 329.06 501.805 329.331C501.805 329.602 502.024 329.822 502.296 329.822Z" fill="#231F20"/>
              </g>
            </g>
            <g id="Roofing System">
              <g id="Content_3">
                <text id="7-Part Solar Roofing System" fill="#002E5D" xml:space="preserve" style="white-space: pre" font-family="Poppins" font-size="14" font-weight="600" letter-spacing="0.0112em"><tspan x="528" y="319.4">7-Part Solar Roofing System</tspan></text>
                <text id="Enjoy peace of mind with a roof that is built to last and is trusted by millions." fill="#002E5D" xml:space="preserve" style="white-space: pre" font-family="Poppins" font-size="12" letter-spacing="0.0112em"><tspan x="528" y="338.2">Enjoy peace of mind with a roof </tspan>
                  <tspan x="528" y="356.2">that is built to last and is </tspan>
                  <tspan x="528" y="374.2">trusted by millions.</tspan></text>
              </g>
            </g>
          </g>
          <g id="4">
            <g id="Illustration_Monitor">
              <g id="Vector_87">
                <path d="M493.29 407.819C493.29 405.232 495.228 403.105 497.71 402.855V404.867C496.316 405.105 495.254 406.336 495.254 407.819C495.254 408.465 495.456 409.064 495.799 409.553L494.399 410.976C493.706 410.116 493.29 409.017 493.29 407.819Z" fill="#D71920"/>
                <path d="M496.494 410.259L495.093 411.681C495.94 412.385 497.022 412.807 498.201 412.807C499.38 412.807 500.462 412.385 501.309 411.681L499.908 410.259C499.427 410.607 498.837 410.812 498.201 410.812C497.565 410.812 496.975 410.607 496.494 410.259Z" fill="#D71920"/>
                <path d="M500.603 409.553L502.003 410.976C502.696 410.116 503.112 409.017 503.112 407.819C503.112 405.232 501.174 403.105 498.692 402.855V404.867C500.085 405.105 501.147 406.336 501.147 407.819C501.147 408.465 500.946 409.064 500.603 409.553Z" fill="#D71920"/>
                <path fill-rule="evenodd" clip-rule="evenodd"
                      d="M497.823 402.728V404.964L497.729 404.98C496.389 405.209 495.368 406.392 495.368 407.819C495.368 408.44 495.562 409.016 495.892 409.486L495.947 409.565L494.39 411.147L494.311 411.048C493.602 410.169 493.177 409.044 493.177 407.819C493.177 405.173 495.159 402.997 497.699 402.74L497.823 402.728ZM498.579 402.728L498.703 402.74C501.242 402.997 503.225 405.173 503.225 407.819C503.225 409.044 502.8 410.169 502.091 411.048L502.012 411.147L500.455 409.565L500.51 409.486C500.84 409.016 501.034 408.44 501.034 407.819C501.034 406.392 500.013 405.209 498.673 404.98L498.579 404.964V402.728ZM497.596 402.983C495.233 403.285 493.404 405.335 493.404 407.819C493.404 408.943 493.778 409.979 494.408 410.803L495.652 409.539C495.329 409.047 495.141 408.455 495.141 407.819C495.141 406.312 496.196 405.056 497.596 404.771V402.983ZM498.805 402.983V404.771C500.206 405.056 501.261 406.312 501.261 407.819C501.261 408.455 501.072 409.047 500.749 409.539L501.994 410.803C502.623 409.979 502.998 408.943 502.998 407.819C502.998 405.335 501.169 403.285 498.805 402.983ZM496.481 410.108L496.56 410.165C497.023 410.5 497.589 410.697 498.201 410.697C498.813 410.697 499.379 410.5 499.842 410.165L499.921 410.108L501.477 411.69L501.381 411.77C500.515 412.49 499.407 412.922 498.201 412.922C496.994 412.922 495.887 412.49 495.021 411.77L494.924 411.69L496.481 410.108ZM496.507 410.407L495.263 411.672C496.075 412.311 497.094 412.692 498.201 412.692C499.308 412.692 500.327 412.311 501.139 411.672L499.895 410.407C499.41 410.735 498.827 410.927 498.201 410.927C497.575 410.927 496.992 410.735 496.507 410.407Z"
                      fill="#101820"/>
                <path d="M505.79 406.836H508.022V410.817H505.79V406.836Z" fill="#002E5D"/>
                <path d="M505.79 411.812H508.022V412.807H505.79V411.812Z" fill="#002E5D"/>
                <path d="M509.138 404.845H511.371V410.817H509.138V404.845Z" fill="#002E5D"/>
                <path d="M512.487 402.855H514.719V410.817H512.487V402.855Z" fill="#002E5D"/>
                <path d="M509.138 411.812H511.371V412.807H509.138V411.812Z" fill="#002E5D"/>
                <path d="M512.487 411.812H514.719V412.807H512.487V411.812Z" fill="#002E5D"/>
                <path fill-rule="evenodd" clip-rule="evenodd"
                      d="M512.373 402.74H514.832V410.932H512.373V402.74ZM512.6 402.97V410.702H514.605V402.97H512.6ZM509.025 404.731H511.484V410.932H509.025V404.731ZM509.252 404.96V410.702H511.257V404.96H509.252ZM505.677 406.721H508.136V410.932H505.677V406.721ZM505.904 406.951V410.702H507.909V406.951H505.904ZM505.677 411.697H508.136V412.922H505.677V411.697ZM505.904 411.927V412.692H507.909V411.927H505.904ZM509.025 411.697H511.484V412.922H509.025V411.697ZM509.252 411.927V412.692H511.257V411.927H509.252ZM512.373 411.697H514.832V412.922H512.373V411.697ZM512.6 411.927V412.692H514.605V411.927H512.6Z"
                      fill="#101820"/>
                <path fill-rule="evenodd" clip-rule="evenodd"
                      d="M489.719 400.141H518.29V417.512H506.862V420.407L509.719 420.407V421.855H498.29V420.407L501.147 420.407V417.512H489.719V400.141ZM491.147 401.588H516.862V414.617H491.147V401.588ZM504.004 416.969C504.399 416.969 504.719 416.645 504.719 416.245C504.719 415.846 504.399 415.522 504.004 415.522C503.61 415.522 503.29 415.846 503.29 416.245C503.29 416.645 503.61 416.969 504.004 416.969Z"
                      fill="#D9D9D6"/>
                <path fill-rule="evenodd" clip-rule="evenodd"
                      d="M501.147 420.407L498.29 420.407V421.855H509.719V420.407L506.862 420.407V417.512H518.29V400.141H489.719V417.512H501.147V420.407ZM490.165 417.06H501.594V420.86L498.737 420.86V421.403H509.272V420.86L506.415 420.86V417.06H517.844V400.593H490.165V417.06ZM517.308 401.136V415.069H504.004H490.701V401.136H517.308ZM504.004 415.069C504.646 415.069 505.165 415.596 505.165 416.245C505.165 416.895 504.646 417.422 504.004 417.422C503.363 417.422 502.844 416.895 502.844 416.245C502.844 415.596 503.363 415.069 504.004 415.069ZM491.147 401.588H516.862V414.617H491.147V401.588ZM504.719 416.245C504.719 416.645 504.399 416.969 504.004 416.969C503.61 416.969 503.29 416.645 503.29 416.245C503.29 415.846 503.61 415.522 504.004 415.522C504.399 415.522 504.719 415.846 504.719 416.245Z"
                      fill="#101820"/>
              </g>
            </g>
            <g id="Monitoring Energy">
              <text id="Energy Production Data" fill="#002E5D" xml:space="preserve" style="white-space: pre" font-family="Poppins" font-size="14" font-weight="600" letter-spacing="0.0112em"><tspan x="528" y="410.4">Energy Production Data </tspan></text>
              <text id="See how much energy your Solar Roof is producing anytime, anywhere." fill="#002E5D" xml:space="preserve" style="white-space: pre" font-family="Poppins" font-size="12" letter-spacing="0.0112em"><tspan x="528" y="429.2">See how much energy your </tspan>
                <tspan x="528" y="447.2">Solar Roof is producing </tspan>
                <tspan x="528" y="465.2">anytime, anywhere.</tspan></text>
            </g>
          </g>
        </g>
      </g>
    </g>
  </g>
</svg>
