<svg width="792" height="612" viewBox="0 0 792 612" fill="none" xmlns="http://www.w3.org/2000/svg">
  <rect width="296" height="343" transform="translate(472 93)" fill="#F1F2F2"/>
  <text id="Heading" fill="#002E5D" xml:space="preserve" style="white-space: pre" font-family="Poppins" font-size="16" font-weight="bold" letter-spacing="0.0112em"><tspan x="488" y="118.6">What you get</tspan></text>
  <g id="Content">
    <g id="Savings">
      <g id="Years Savings">
        <text id="Token_25YearSavings" fill="#002E5D" xml:space="preserve" style="white-space: pre" font-family="Poppins" font-size="36" font-weight="600" letter-spacing="0.0112em"><tspan x="488" y="174.6">$27,655</tspan></text>
        <g id="Description">
          <text id="Estimated 25-Year" fill="#002E5D" xml:space="preserve" style="white-space: pre" font-family="Poppins" font-size="12" letter-spacing="0.0112em"><tspan x="637" y="159.2">Estimated 25-Year</tspan></text>
          <text id="Electric Bill Savings" fill="#002E5D" xml:space="preserve" style="white-space: pre" font-family="Poppins" font-size="12" letter-spacing="0.0112em"><tspan x="637" y="173.2">Electric Bill Savings</tspan></text>
        </g>
      </g>
      <line id="Divider" x1="488" y1="191.5" x2="752" y2="191.5" stroke="black"/>
    </g>
    <g id="Description_2">
      <g id="3">
        <g id="ENERGY_Icon_SolarHouse_FullColor_New">
          <g id="Icon/ medal">
            <g id="Asset 4 2">
              <g id="Layer 1">
                <g id="Group">
                  <g id="Group_2">
                    <path id="Vector" d="M508.129 207.293H499.015L491.945 214.479V224.524H516.365V215.705L508.129 207.293Z" fill="white"/>
                    <g id="Group_3">
                      <path id="Vector_2" d="M507.683 215.736L499.508 207.309L509.207 207.184L517.281 215.789L507.683 215.736Z" fill="#A9ABAC"/>
                      <path id="Vector_3" d="M517.281 215.721H507.512L499.508 207.309H509.277L517.281 215.721Z" stroke="#000006" stroke-width="0.615944" stroke-miterlimit="10"/>
                      <path id="Vector_4" d="M501.65 216.102H496.766V224.293H501.65V216.102Z" fill="#D71920"/>
                      <path id="Vector_5" d="M491.943 214.479V215.729H490.727L499.014 207.215L491.943 214.479ZM491.943 214.479V224.54H516.363V215.722" stroke="#000006" stroke-width="0.615944" stroke-miterlimit="10"/>
                      <path id="Vector_6" d="M513.986 217.555H507.609V222.167H513.986V217.555Z" fill="#A9ABAC" stroke="#000006" stroke-width="0.615944" stroke-miterlimit="10"/>
                      <path id="Vector_7" d="M510.867 217.414V222.163" stroke="#000006" stroke-width="0.615944" stroke-miterlimit="10"/>
                    </g>
                    <path id="Vector_8" d="M490.984 215.466L491.709 214.742H491.945V215.729L490.984 215.79V215.466Z" fill="#000006"/>
                  </g>
                  <path id="Vector_9" d="M498.254 220.332H497.562V221.024H498.254V220.332Z" fill="#000006"/>
                </g>
                <g id="Group_4">
                  <path id="Vector_10" d="M514.232 214.088L507.617 214.172L502.312 208.632L509.042 208.625L514.232 214.088Z" fill="white"/>
                  <path id="Vector_11" d="M504.695 211.148H511.53" stroke="#0F7BB6" stroke-width="0.175984" stroke-miterlimit="10"/>
                  <path id="Vector_12" d="M504.219 210.645H511.023" stroke="#0F7BB6" stroke-width="0.175984" stroke-miterlimit="10"/>
                  <path id="Vector_13" d="M503.734 210.141H510.543" stroke="#0F7BB6" stroke-width="0.175984" stroke-miterlimit="10"/>
                  <path id="Vector_14" d="M503.258 209.633H510.07" stroke="#0F7BB6" stroke-width="0.175984" stroke-miterlimit="10"/>
                  <path id="Vector_15" d="M502.781 209.133H509.599" stroke="#0F7BB6" stroke-width="0.175984" stroke-miterlimit="10"/>
                  <path id="Vector_16" d="M506.234 212.66H512.946" stroke="#0F7BB6" stroke-width="0.175984" stroke-miterlimit="10"/>
                  <path id="Vector_17" d="M505.75 212.156H512.442" stroke="#0F7BB6" stroke-width="0.175984" stroke-miterlimit="10"/>
                  <path id="Vector_18" d="M507.188 214.172H514.516" stroke="#0F7BB6" stroke-width="0.175984" stroke-miterlimit="10"/>
                  <path id="Vector_19" d="M507.188 213.668H513.926" stroke="#0F7BB6" stroke-width="0.175984" stroke-miterlimit="10"/>
                  <path id="Vector_20" d="M506.711 213.164H513.43" stroke="#0F7BB6" stroke-width="0.175984" stroke-miterlimit="10"/>
                  <path id="Vector_21" d="M505.273 211.652H511.971" stroke="#0F7BB6" stroke-width="0.175984" stroke-miterlimit="10"/>
                  <path id="Vector_22" d="M506.812 208.52L512.255 214.247" stroke="#0F7BB6" stroke-width="0.351968" stroke-miterlimit="10"/>
                  <path id="Vector_23" d="M509.102 208.605L514.52 214.309" stroke="#0F7BB6" stroke-width="0.175984" stroke-miterlimit="10"/>
                  <path id="Vector_24" d="M504.508 208.52L509.95 214.247" stroke="#0F7BB6" stroke-width="0.351968" stroke-miterlimit="10"/>
                  <path id="Vector_25" d="M502.312 208.547L507.725 214.243" stroke="#0F7BB6" stroke-width="0.351968" stroke-miterlimit="10"/>
                  <path id="Vector_26" d="M501.977 208.609H509.371" stroke="#0F7BB6" stroke-width="0.175984" stroke-miterlimit="10"/>
                  <path id="Vector_27" d="M507.227 214.328H514.64" stroke="#A9ABAC" stroke-width="0.175984" stroke-miterlimit="10"/>
                  <path id="Vector_28" d="M501.797 208.414H509.452" stroke="#A9ABAC" stroke-width="0.263976" stroke-miterlimit="10"/>
                  <path id="Vector_29" d="M509.109 208.391L514.704 214.279" stroke="#A9ABAC" stroke-width="0.175984" stroke-miterlimit="10"/>
                  <path id="Vector_30" d="M501.586 208.301L507.569 214.587" stroke="#A9ABAC" stroke-width="0.351968" stroke-miterlimit="10"/>
                </g>
              </g>
            </g>
          </g>
        </g>
        <g id="Built-In Energy Shingles">
          <g id="Energy shingles">
            <text id="systemSizeText" fill="#002E5D" xml:space="preserve" style="white-space: pre" font-family="Poppins" font-size="12" font-weight="600" letter-spacing="0.0112em"><tspan x="528" y="214.7">Timberline Solar ES</tspan></text>
            <text id="Add value to your home with a roof that reliably reduces your energy bills." fill="#002E5D" xml:space="preserve" style="white-space: pre" font-family="Poppins" font-size="10" letter-spacing="0.0112em"><tspan x="528" y="232">Add value to your home with a roof that </tspan>
              <tspan x="528" y="247">reliably reduces your energy bills.</tspan></text>
          </g>
        </g>
      </g>
      <g id="7-part">
        <g id="House Icon_ New">
          <g id="Layer 1_2">
            <path id="Vector_31" d="M503.196 294.395L494.367 300.299V313.287H513.084V300.762" fill="white"/>
            <g id="Clip path group">
              <mask id="mask0_5074_81914" style="mask-type:luminance" maskUnits="userSpaceOnUse" x="493" y="300" width="22" height="16">
                <g id="clippath">
                  <path id="Vector_32" d="M514.516 300.766H493.219V315.001H514.516V300.766Z" fill="white"/>
                </g>
              </mask>
              <g mask="url(#mask0_5074_81914)">
                <g id="Group_5">
                  <path id="Vector_33" d="M495.73 301.469H493.914V314.295H513.809V312.591H495.73V301.469Z" fill="#626367"/>
                </g>
              </g>
            </g>
            <g id="Clip path group_2">
              <mask id="mask1_5074_81914" style="mask-type:luminance" maskUnits="userSpaceOnUse" x="503" y="294" width="16" height="20">
                <g id="clippath-1">
                  <path id="Vector_34" d="M518.034 294.4H503.195V313.292H518.034V294.4Z" fill="white"/>
                </g>
              </mask>
              <g mask="url(#mask1_5074_81914)">
                <g id="Group_6">
                  <path id="Vector_35" d="M507.495 295.102H503.891L512.025 300.445V312.591H513.785V301.469H517.327L507.495 295.102Z" fill="#626367"/>
                </g>
              </g>
            </g>
            <g id="Clip path group_3">
              <mask id="mask2_5074_81914" style="mask-type:luminance" maskUnits="userSpaceOnUse" x="489" y="292" width="20" height="12">
                <g id="clippath-2">
                  <path id="Vector_36" d="M508.199 292.125H489.672V303.983H508.199V292.125Z" fill="white"/>
                </g>
              </mask>
              <g mask="url(#mask2_5074_81914)">
                <g id="Group_7">
                  <path id="Vector_37" d="M503.979 292.828L490.367 301.58L491.272 303.284L493.888 301.468H495.704V300.444L503.888 295.1H507.492L503.979 292.828Z" fill="#626367"/>
                </g>
              </g>
            </g>
            <g id="Clip path group_4">
              <mask id="mask3_5074_81914" style="mask-type:luminance" maskUnits="userSpaceOnUse" x="513" y="300" width="6" height="4">
                <g id="clippath-3">
                  <path id="Vector_38" d="M518.162 300.766H513.078V303.76H518.162V300.766Z" fill="white"/>
                </g>
              </mask>
              <g mask="url(#mask3_5074_81914)">
                <g id="Group_8">
                  <path id="Vector_39" d="M517.33 301.469H513.789L516.286 303.061L517.464 301.553L517.33 301.469Z" fill="#626367"/>
                </g>
              </g>
            </g>
            <g id="Clip path group_5">
              <mask id="mask4_5074_81914" style="mask-type:luminance" maskUnits="userSpaceOnUse" x="489" y="295" width="9" height="7">
                <g id="clippath-4">
                  <path id="Vector_40" d="M497.181 295.445H489.859V301.329H497.181V295.445Z" fill="white"/>
                </g>
              </mask>
              <g mask="url(#mask4_5074_81914)">
                <g id="Group_9">
                  <path id="Vector_41" d="M495.834 296.143L490.555 299.678L491.191 300.628L496.47 297.093L495.834 296.143Z" fill="#117BB6"/>
                </g>
              </g>
            </g>
            <g id="Clip path group_6">
              <mask id="mask5_5074_81914" style="mask-type:luminance" maskUnits="userSpaceOnUse" x="510" y="295" width="8" height="7">
                <g id="clippath-5">
                  <path id="Vector_42" d="M517.931 295.445H510.609V301.329H517.931V295.445Z" fill="white"/>
                </g>
              </mask>
              <g mask="url(#mask5_5074_81914)">
                <g id="Group_10">
                  <path id="Vector_43" d="M511.948 296.146L511.312 297.096L516.593 300.629L517.228 299.679L511.948 296.146Z" fill="#117BB6"/>
                </g>
              </g>
            </g>
            <g id="Clip path group_7">
              <mask id="mask6_5074_81914" style="mask-type:luminance" maskUnits="userSpaceOnUse" x="489" y="295" width="6" height="5">
                <g id="clippath-6">
                  <path id="Vector_44" d="M494.352 295.379H489.906V299.341H494.352V295.379Z" fill="white"/>
                </g>
              </mask>
              <g mask="url(#mask6_5074_81914)">
                <g id="Group_11">
                  <path id="Vector_45" d="M493.024 296.082L490.617 297.693L491.253 298.643L493.66 297.032L493.024 296.082Z" fill="#117BB6"/>
                </g>
              </g>
            </g>
            <g id="Clip path group_8">
              <mask id="mask7_5074_81914" style="mask-type:luminance" maskUnits="userSpaceOnUse" x="513" y="295" width="5" height="5">
                <g id="clippath-7">
                  <path id="Vector_46" d="M517.982 295.379H513.508V299.383H517.982V295.379Z" fill="white"/>
                </g>
              </mask>
              <g mask="url(#mask7_5074_81914)">
                <g id="Group_12">
                  <path id="Vector_47" d="M514.867 296.08L514.203 297.07L516.609 298.682L517.273 297.692L514.867 296.08Z" fill="#117BB6"/>
                </g>
              </g>
            </g>
            <g id="Clip path group_9">
              <mask id="mask8_5074_81914" style="mask-type:luminance" maskUnits="userSpaceOnUse" x="489" y="286" width="19" height="12">
                <g id="clippath-8">
                  <path id="Vector_48" d="M507.124 286.443H489.648V297.145H507.124V286.443Z" fill="white"/>
                </g>
              </mask>
              <g mask="url(#mask8_5074_81914)">
                <g id="Group_13">
                  <path id="Vector_49" d="M504.011 287.161H503.99L503.983 287.146L490.344 295.372L490.989 296.445L503.99 288.612H506.417L504.011 287.161Z" fill="#117BB6"/>
                </g>
              </g>
            </g>
            <g id="Clip path group_10">
              <mask id="mask9_5074_81914" style="mask-type:luminance" maskUnits="userSpaceOnUse" x="503" y="287" width="16" height="11">
                <g id="clippath-9">
                  <path id="Vector_50" d="M518.354 287.904H503.305V297.147H518.354V287.904Z" fill="white"/>
                </g>
              </mask>
              <g mask="url(#mask9_5074_81914)">
                <g id="Group_14">
                  <path id="Vector_51" d="M506.434 288.607H504.008L517.002 296.441L517.654 295.368L506.434 288.607Z" fill="#117BB6"/>
                </g>
              </g>
            </g>
            <g id="Group_15">
              <g id="Clip path group_11">
                <mask id="mask10_5074_81914" style="mask-type:luminance" maskUnits="userSpaceOnUse" x="493" y="288" width="15" height="10">
                  <g id="clippath-10">
                    <path id="Vector_52" d="M507.169 288.705H493.102V297.352H507.169V288.705Z" fill="white"/>
                  </g>
                </mask>
                <g mask="url(#mask10_5074_81914)">
                  <g id="Group_16">
                    <path id="Vector_53" d="M504.056 289.417H504.035L504.028 289.41L493.797 295.581L494.442 296.654L504.035 290.869H506.462L504.056 289.417Z" fill="#117BB6"/>
                  </g>
                </g>
              </g>
              <g id="Clip path group_12">
                <mask id="mask11_5074_81914" style="mask-type:luminance" maskUnits="userSpaceOnUse" x="503" y="290" width="12" height="8">
                  <g id="clippath-11">
                    <path id="Vector_54" d="M514.904 290.166H503.305V297.333H514.904V290.166Z" fill="white"/>
                  </g>
                </mask>
                <g mask="url(#mask11_5074_81914)">
                  <g id="Group_17">
                    <path id="Vector_55" d="M506.434 290.867H504.008L513.559 296.625L514.204 295.552L506.434 290.867Z" fill="#117BB6"/>
                  </g>
                </g>
              </g>
            </g>
            <path id="Vector_56" d="M506.662 284.522L504.13 283L501.367 284.662L501.956 285.644L504.039 284.388L506.024 285.588L506.662 284.522Z" fill="#117BB6"/>
            <path id="Vector_57" d="M504.005 285.039L507.96 287.43L507.301 288.496L503.984 286.491L500.492 288.594L499.805 287.543L504.005 285.039Z" fill="#117BB6"/>
            <path id="Vector_58" d="M506.446 303.057H501.242V312.622H506.446V303.057Z" fill="#D72027"/>
            <path id="Vector_59" d="M502.296 308.822C502.567 308.822 502.786 308.602 502.786 308.331C502.786 308.06 502.567 307.84 502.296 307.84C502.024 307.84 501.805 308.06 501.805 308.331C501.805 308.602 502.024 308.822 502.296 308.822Z" fill="#231F20"/>
          </g>
        </g>
        <g id="Roofing System">
          <g id="Content_2">
            <text id="7-Part Solar Roofing System" fill="#002E5D" xml:space="preserve" style="white-space: pre" font-family="Poppins" font-size="12" font-weight="600" letter-spacing="0.0112em"><tspan x="528" y="297.7">7-Part Solar Roofing System</tspan></text>
            <text id="Enjoy peace of mind with a roof that is built to last and is trusted by millions." fill="#002E5D" xml:space="preserve" style="white-space: pre" font-family="Poppins" font-size="10" letter-spacing="0.0112em"><tspan x="528" y="315">Enjoy peace of mind with a roof that is </tspan>
              <tspan x="528" y="330">built to last and is trusted by millions.</tspan></text>
          </g>
        </g>
      </g>
      <g id="4">
        <g id="Illustration_Monitor">
          <g id="Vector_60">
            <path d="M493.29 378.819C493.29 376.232 495.228 374.105 497.71 373.855V375.867C496.316 376.105 495.254 377.336 495.254 378.819C495.254 379.465 495.456 380.064 495.799 380.553L494.399 381.976C493.706 381.116 493.29 380.017 493.29 378.819Z" fill="#D71920"/>
            <path d="M496.494 381.259L495.093 382.681C495.94 383.385 497.022 383.807 498.201 383.807C499.38 383.807 500.462 383.385 501.309 382.681L499.908 381.259C499.427 381.607 498.837 381.812 498.201 381.812C497.565 381.812 496.975 381.607 496.494 381.259Z" fill="#D71920"/>
            <path d="M500.603 380.553L502.003 381.976C502.696 381.116 503.112 380.017 503.112 378.819C503.112 376.232 501.174 374.105 498.692 373.855V375.867C500.085 376.105 501.147 377.336 501.147 378.819C501.147 379.465 500.946 380.064 500.603 380.553Z" fill="#D71920"/>
            <path fill-rule="evenodd" clip-rule="evenodd"
                  d="M497.823 373.728V375.964L497.729 375.98C496.389 376.209 495.368 377.392 495.368 378.819C495.368 379.44 495.562 380.016 495.892 380.486L495.947 380.565L494.39 382.147L494.311 382.048C493.602 381.169 493.177 380.044 493.177 378.819C493.177 376.173 495.159 373.997 497.699 373.74L497.823 373.728ZM498.579 373.728L498.703 373.74C501.242 373.997 503.225 376.173 503.225 378.819C503.225 380.044 502.8 381.169 502.091 382.048L502.012 382.147L500.455 380.565L500.51 380.486C500.84 380.016 501.034 379.44 501.034 378.819C501.034 377.392 500.013 376.209 498.673 375.98L498.579 375.964V373.728ZM497.596 373.983C495.233 374.285 493.404 376.335 493.404 378.819C493.404 379.943 493.778 380.979 494.408 381.803L495.652 380.539C495.329 380.047 495.141 379.455 495.141 378.819C495.141 377.312 496.196 376.056 497.596 375.771V373.983ZM498.805 373.983V375.771C500.206 376.056 501.261 377.312 501.261 378.819C501.261 379.455 501.072 380.047 500.749 380.539L501.994 381.803C502.623 380.979 502.998 379.943 502.998 378.819C502.998 376.335 501.169 374.285 498.805 373.983ZM496.481 381.108L496.56 381.165C497.023 381.5 497.589 381.697 498.201 381.697C498.813 381.697 499.379 381.5 499.842 381.165L499.921 381.108L501.477 382.69L501.381 382.77C500.515 383.49 499.407 383.922 498.201 383.922C496.994 383.922 495.887 383.49 495.021 382.77L494.924 382.69L496.481 381.108ZM496.507 381.407L495.263 382.672C496.075 383.311 497.094 383.692 498.201 383.692C499.308 383.692 500.327 383.311 501.139 382.672L499.895 381.407C499.41 381.735 498.827 381.927 498.201 381.927C497.575 381.927 496.992 381.735 496.507 381.407Z"
                  fill="#101820"/>
            <path d="M505.79 377.836H508.022V381.817H505.79V377.836Z" fill="#002E5D"/>
            <path d="M505.79 382.812H508.022V383.807H505.79V382.812Z" fill="#002E5D"/>
            <path d="M509.138 375.845H511.371V381.817H509.138V375.845Z" fill="#002E5D"/>
            <path d="M512.487 373.855H514.719V381.817H512.487V373.855Z" fill="#002E5D"/>
            <path d="M509.138 382.812H511.371V383.807H509.138V382.812Z" fill="#002E5D"/>
            <path d="M512.487 382.812H514.719V383.807H512.487V382.812Z" fill="#002E5D"/>
            <path fill-rule="evenodd" clip-rule="evenodd"
                  d="M512.373 373.74H514.832V381.932H512.373V373.74ZM512.6 373.97V381.702H514.605V373.97H512.6ZM509.025 375.731H511.484V381.932H509.025V375.731ZM509.252 375.96V381.702H511.257V375.96H509.252ZM505.677 377.721H508.136V381.932H505.677V377.721ZM505.904 377.951V381.702H507.909V377.951H505.904ZM505.677 382.697H508.136V383.922H505.677V382.697ZM505.904 382.927V383.692H507.909V382.927H505.904ZM509.025 382.697H511.484V383.922H509.025V382.697ZM509.252 382.927V383.692H511.257V382.927H509.252ZM512.373 382.697H514.832V383.922H512.373V382.697ZM512.6 382.927V383.692H514.605V382.927H512.6Z"
                  fill="#101820"/>
            <path fill-rule="evenodd" clip-rule="evenodd"
                  d="M489.719 371.141H518.29V388.512H506.862V391.407L509.719 391.407V392.855H498.29V391.407L501.147 391.407V388.512H489.719V371.141ZM491.147 372.588H516.862V385.617H491.147V372.588ZM504.004 387.969C504.399 387.969 504.719 387.645 504.719 387.245C504.719 386.846 504.399 386.522 504.004 386.522C503.61 386.522 503.29 386.846 503.29 387.245C503.29 387.645 503.61 387.969 504.004 387.969Z"
                  fill="#D9D9D6"/>
            <path fill-rule="evenodd" clip-rule="evenodd"
                  d="M501.147 391.407L498.29 391.407V392.855H509.719V391.407L506.862 391.407V388.512H518.29V371.141H489.719V388.512H501.147V391.407ZM490.165 388.06H501.594V391.86L498.737 391.86V392.403H509.272V391.86L506.415 391.86V388.06H517.844V371.593H490.165V388.06ZM517.308 372.136V386.069H504.004H490.701V372.136H517.308ZM504.004 386.069C504.646 386.069 505.165 386.596 505.165 387.245C505.165 387.895 504.646 388.422 504.004 388.422C503.363 388.422 502.844 387.895 502.844 387.245C502.844 386.596 503.363 386.069 504.004 386.069ZM491.147 372.588H516.862V385.617H491.147V372.588ZM504.719 387.245C504.719 387.645 504.399 387.969 504.004 387.969C503.61 387.969 503.29 387.645 503.29 387.245C503.29 386.846 503.61 386.522 504.004 386.522C504.399 386.522 504.719 386.846 504.719 387.245Z"
                  fill="#101820"/>
          </g>
        </g>
        <g id="Monitoring Energy">
          <text id="Energy Production Data" fill="#002E5D" xml:space="preserve" style="white-space: pre" font-family="Poppins" font-size="12" font-weight="600" letter-spacing="0.0112em"><tspan x="528" y="380.7">Energy Production Data </tspan></text>
          <text id="See how much energy your Solar Roof is producing anytime, anywhere." fill="#002E5D" xml:space="preserve" style="white-space: pre" font-family="Poppins" font-size="10" letter-spacing="0.0112em"><tspan x="528" y="398">See how much energy your Solar Roof </tspan>
            <tspan x="528" y="413">is producing anytime, anywhere.</tspan></text>
        </g>
      </g>
    </g>
  </g>
</svg>
