<svg width="792" height="612" viewBox="0 0 792 612" fill="none" xmlns="http://www.w3.org/2000/svg">
  <rect width="296" height="343" transform="translate(472 93)" fill="#F1F2F2"/>
  <text id="Heading" fill="#002E5D" xml:space="preserve" style="white-space: pre" font-family="Poppins" font-size="16" font-weight="bold" letter-spacing="0.0112em"><tspan x="488" y="118.6">What you get</tspan></text>
  <g id="Content">
    <g id="Description">
      <g id="3">
        <g id="ENERGY_Icon_SolarHouse_FullColor_New">
          <g id="Icon/ medal">
            <g id="Asset 4 2">
              <g id="Layer 1">
                <g id="Group">
                  <g id="Group_2">
                    <path id="Vector" d="M508.129 140.293H499.015L491.945 147.479V157.524H516.365V148.705L508.129 140.293Z" fill="white"/>
                    <g id="Group_3">
                      <path id="Vector_2" d="M507.683 148.736L499.508 140.309L509.207 140.184L517.281 148.789L507.683 148.736Z" fill="#A9ABAC"/>
                      <path id="Vector_3" d="M517.281 148.721H507.512L499.508 140.309H509.277L517.281 148.721Z" stroke="#000006" stroke-width="0.615944" stroke-miterlimit="10"/>
                      <path id="Vector_4" d="M501.65 149.102H496.766V157.293H501.65V149.102Z" fill="#D71920"/>
                      <path id="Vector_5" d="M491.943 147.479V148.729H490.727L499.014 140.215L491.943 147.479ZM491.943 147.479V157.54H516.363V148.722" stroke="#000006" stroke-width="0.615944" stroke-miterlimit="10"/>
                      <path id="Vector_6" d="M513.986 150.555H507.609V155.167H513.986V150.555Z" fill="#A9ABAC" stroke="#000006" stroke-width="0.615944" stroke-miterlimit="10"/>
                      <path id="Vector_7" d="M510.867 150.414V155.163" stroke="#000006" stroke-width="0.615944" stroke-miterlimit="10"/>
                    </g>
                    <path id="Vector_8" d="M490.984 148.466L491.709 147.742H491.945V148.729L490.984 148.79V148.466Z" fill="#000006"/>
                  </g>
                  <path id="Vector_9" d="M498.254 153.332H497.562V154.024H498.254V153.332Z" fill="#000006"/>
                </g>
                <g id="Group_4">
                  <path id="Vector_10" d="M514.232 147.088L507.617 147.172L502.312 141.632L509.042 141.625L514.232 147.088Z" fill="white"/>
                  <path id="Vector_11" d="M504.695 144.148H511.53" stroke="#0F7BB6" stroke-width="0.175984" stroke-miterlimit="10"/>
                  <path id="Vector_12" d="M504.219 143.645H511.023" stroke="#0F7BB6" stroke-width="0.175984" stroke-miterlimit="10"/>
                  <path id="Vector_13" d="M503.734 143.141H510.543" stroke="#0F7BB6" stroke-width="0.175984" stroke-miterlimit="10"/>
                  <path id="Vector_14" d="M503.258 142.633H510.07" stroke="#0F7BB6" stroke-width="0.175984" stroke-miterlimit="10"/>
                  <path id="Vector_15" d="M502.781 142.133H509.599" stroke="#0F7BB6" stroke-width="0.175984" stroke-miterlimit="10"/>
                  <path id="Vector_16" d="M506.234 145.66H512.946" stroke="#0F7BB6" stroke-width="0.175984" stroke-miterlimit="10"/>
                  <path id="Vector_17" d="M505.75 145.156H512.442" stroke="#0F7BB6" stroke-width="0.175984" stroke-miterlimit="10"/>
                  <path id="Vector_18" d="M507.188 147.172H514.516" stroke="#0F7BB6" stroke-width="0.175984" stroke-miterlimit="10"/>
                  <path id="Vector_19" d="M507.188 146.668H513.926" stroke="#0F7BB6" stroke-width="0.175984" stroke-miterlimit="10"/>
                  <path id="Vector_20" d="M506.711 146.164H513.43" stroke="#0F7BB6" stroke-width="0.175984" stroke-miterlimit="10"/>
                  <path id="Vector_21" d="M505.273 144.652H511.971" stroke="#0F7BB6" stroke-width="0.175984" stroke-miterlimit="10"/>
                  <path id="Vector_22" d="M506.812 141.52L512.255 147.247" stroke="#0F7BB6" stroke-width="0.351968" stroke-miterlimit="10"/>
                  <path id="Vector_23" d="M509.102 141.605L514.52 147.309" stroke="#0F7BB6" stroke-width="0.175984" stroke-miterlimit="10"/>
                  <path id="Vector_24" d="M504.508 141.52L509.95 147.247" stroke="#0F7BB6" stroke-width="0.351968" stroke-miterlimit="10"/>
                  <path id="Vector_25" d="M502.312 141.547L507.725 147.243" stroke="#0F7BB6" stroke-width="0.351968" stroke-miterlimit="10"/>
                  <path id="Vector_26" d="M501.977 141.609H509.371" stroke="#0F7BB6" stroke-width="0.175984" stroke-miterlimit="10"/>
                  <path id="Vector_27" d="M507.227 147.328H514.64" stroke="#A9ABAC" stroke-width="0.175984" stroke-miterlimit="10"/>
                  <path id="Vector_28" d="M501.797 141.414H509.452" stroke="#A9ABAC" stroke-width="0.263976" stroke-miterlimit="10"/>
                  <path id="Vector_29" d="M509.109 141.391L514.704 147.279" stroke="#A9ABAC" stroke-width="0.175984" stroke-miterlimit="10"/>
                  <path id="Vector_30" d="M501.586 141.301L507.569 147.587" stroke="#A9ABAC" stroke-width="0.351968" stroke-miterlimit="10"/>
                </g>
              </g>
            </g>
          </g>
        </g>
        <g id="Built-In Energy Shingles">
          <g id="Energy shingles">
            <text id="systemSizeText" fill="#002E5D" xml:space="preserve" style="white-space: pre" font-family="Poppins" font-size="12" font-weight="600" letter-spacing="0.0112em"><tspan x="528" y="147.7">Timberline Solar ES</tspan></text>
            <text id="Add value to your home with a roof that reliably reduces your energy bills." fill="#002E5D" xml:space="preserve" style="white-space: pre" font-family="Poppins" font-size="10" letter-spacing="0.0112em"><tspan x="528" y="165">Add value to your home with a roof that </tspan>
              <tspan x="528" y="180">reliably reduces your energy bills.</tspan></text>
          </g>
        </g>
      </g>
      <g id="7-part">
        <g id="House Icon_ New">
          <g id="Layer 1_2">
            <path id="Vector_31" d="M503.196 219.395L494.367 225.299V238.287H513.084V225.762" fill="white"/>
            <g id="Clip path group">
              <mask id="mask0_5074_82376" style="mask-type:luminance" maskUnits="userSpaceOnUse" x="493" y="225" width="22" height="16">
                <g id="clippath">
                  <path id="Vector_32" d="M514.516 225.766H493.219V240.001H514.516V225.766Z" fill="white"/>
                </g>
              </mask>
              <g mask="url(#mask0_5074_82376)">
                <g id="Group_5">
                  <path id="Vector_33" d="M495.73 226.469H493.914V239.295H513.809V237.591H495.73V226.469Z" fill="#626367"/>
                </g>
              </g>
            </g>
            <g id="Clip path group_2">
              <mask id="mask1_5074_82376" style="mask-type:luminance" maskUnits="userSpaceOnUse" x="503" y="219" width="16" height="20">
                <g id="clippath-1">
                  <path id="Vector_34" d="M518.034 219.4H503.195V238.292H518.034V219.4Z" fill="white"/>
                </g>
              </mask>
              <g mask="url(#mask1_5074_82376)">
                <g id="Group_6">
                  <path id="Vector_35" d="M507.495 220.102H503.891L512.025 225.445V237.591H513.785V226.469H517.327L507.495 220.102Z" fill="#626367"/>
                </g>
              </g>
            </g>
            <g id="Clip path group_3">
              <mask id="mask2_5074_82376" style="mask-type:luminance" maskUnits="userSpaceOnUse" x="489" y="217" width="20" height="12">
                <g id="clippath-2">
                  <path id="Vector_36" d="M508.199 217.125H489.672V228.983H508.199V217.125Z" fill="white"/>
                </g>
              </mask>
              <g mask="url(#mask2_5074_82376)">
                <g id="Group_7">
                  <path id="Vector_37" d="M503.979 217.828L490.367 226.58L491.272 228.284L493.888 226.468H495.704V225.444L503.888 220.1H507.492L503.979 217.828Z" fill="#626367"/>
                </g>
              </g>
            </g>
            <g id="Clip path group_4">
              <mask id="mask3_5074_82376" style="mask-type:luminance" maskUnits="userSpaceOnUse" x="513" y="225" width="6" height="4">
                <g id="clippath-3">
                  <path id="Vector_38" d="M518.162 225.766H513.078V228.76H518.162V225.766Z" fill="white"/>
                </g>
              </mask>
              <g mask="url(#mask3_5074_82376)">
                <g id="Group_8">
                  <path id="Vector_39" d="M517.33 226.469H513.789L516.286 228.061L517.464 226.553L517.33 226.469Z" fill="#626367"/>
                </g>
              </g>
            </g>
            <g id="Clip path group_5">
              <mask id="mask4_5074_82376" style="mask-type:luminance" maskUnits="userSpaceOnUse" x="489" y="220" width="9" height="7">
                <g id="clippath-4">
                  <path id="Vector_40" d="M497.181 220.445H489.859V226.329H497.181V220.445Z" fill="white"/>
                </g>
              </mask>
              <g mask="url(#mask4_5074_82376)">
                <g id="Group_9">
                  <path id="Vector_41" d="M495.834 221.143L490.555 224.678L491.191 225.628L496.47 222.093L495.834 221.143Z" fill="#117BB6"/>
                </g>
              </g>
            </g>
            <g id="Clip path group_6">
              <mask id="mask5_5074_82376" style="mask-type:luminance" maskUnits="userSpaceOnUse" x="510" y="220" width="8" height="7">
                <g id="clippath-5">
                  <path id="Vector_42" d="M517.931 220.445H510.609V226.329H517.931V220.445Z" fill="white"/>
                </g>
              </mask>
              <g mask="url(#mask5_5074_82376)">
                <g id="Group_10">
                  <path id="Vector_43" d="M511.948 221.146L511.312 222.096L516.593 225.629L517.228 224.679L511.948 221.146Z" fill="#117BB6"/>
                </g>
              </g>
            </g>
            <g id="Clip path group_7">
              <mask id="mask6_5074_82376" style="mask-type:luminance" maskUnits="userSpaceOnUse" x="489" y="220" width="6" height="5">
                <g id="clippath-6">
                  <path id="Vector_44" d="M494.352 220.379H489.906V224.341H494.352V220.379Z" fill="white"/>
                </g>
              </mask>
              <g mask="url(#mask6_5074_82376)">
                <g id="Group_11">
                  <path id="Vector_45" d="M493.024 221.082L490.617 222.693L491.253 223.643L493.66 222.032L493.024 221.082Z" fill="#117BB6"/>
                </g>
              </g>
            </g>
            <g id="Clip path group_8">
              <mask id="mask7_5074_82376" style="mask-type:luminance" maskUnits="userSpaceOnUse" x="513" y="220" width="5" height="5">
                <g id="clippath-7">
                  <path id="Vector_46" d="M517.982 220.379H513.508V224.383H517.982V220.379Z" fill="white"/>
                </g>
              </mask>
              <g mask="url(#mask7_5074_82376)">
                <g id="Group_12">
                  <path id="Vector_47" d="M514.867 221.08L514.203 222.07L516.609 223.682L517.273 222.692L514.867 221.08Z" fill="#117BB6"/>
                </g>
              </g>
            </g>
            <g id="Clip path group_9">
              <mask id="mask8_5074_82376" style="mask-type:luminance" maskUnits="userSpaceOnUse" x="489" y="211" width="19" height="12">
                <g id="clippath-8">
                  <path id="Vector_48" d="M507.124 211.443H489.648V222.145H507.124V211.443Z" fill="white"/>
                </g>
              </mask>
              <g mask="url(#mask8_5074_82376)">
                <g id="Group_13">
                  <path id="Vector_49" d="M504.011 212.161H503.99L503.983 212.146L490.344 220.372L490.989 221.445L503.99 213.612H506.417L504.011 212.161Z" fill="#117BB6"/>
                </g>
              </g>
            </g>
            <g id="Clip path group_10">
              <mask id="mask9_5074_82376" style="mask-type:luminance" maskUnits="userSpaceOnUse" x="503" y="212" width="16" height="11">
                <g id="clippath-9">
                  <path id="Vector_50" d="M518.354 212.904H503.305V222.147H518.354V212.904Z" fill="white"/>
                </g>
              </mask>
              <g mask="url(#mask9_5074_82376)">
                <g id="Group_14">
                  <path id="Vector_51" d="M506.434 213.607H504.008L517.002 221.441L517.654 220.368L506.434 213.607Z" fill="#117BB6"/>
                </g>
              </g>
            </g>
            <g id="Group_15">
              <g id="Clip path group_11">
                <mask id="mask10_5074_82376" style="mask-type:luminance" maskUnits="userSpaceOnUse" x="493" y="213" width="15" height="10">
                  <g id="clippath-10">
                    <path id="Vector_52" d="M507.169 213.705H493.102V222.352H507.169V213.705Z" fill="white"/>
                  </g>
                </mask>
                <g mask="url(#mask10_5074_82376)">
                  <g id="Group_16">
                    <path id="Vector_53" d="M504.056 214.417H504.035L504.028 214.41L493.797 220.581L494.442 221.654L504.035 215.869H506.462L504.056 214.417Z" fill="#117BB6"/>
                  </g>
                </g>
              </g>
              <g id="Clip path group_12">
                <mask id="mask11_5074_82376" style="mask-type:luminance" maskUnits="userSpaceOnUse" x="503" y="215" width="12" height="8">
                  <g id="clippath-11">
                    <path id="Vector_54" d="M514.904 215.166H503.305V222.333H514.904V215.166Z" fill="white"/>
                  </g>
                </mask>
                <g mask="url(#mask11_5074_82376)">
                  <g id="Group_17">
                    <path id="Vector_55" d="M506.434 215.867H504.008L513.559 221.625L514.204 220.552L506.434 215.867Z" fill="#117BB6"/>
                  </g>
                </g>
              </g>
            </g>
            <path id="Vector_56" d="M506.662 209.522L504.13 208L501.367 209.662L501.956 210.644L504.039 209.388L506.024 210.588L506.662 209.522Z" fill="#117BB6"/>
            <path id="Vector_57" d="M504.005 210.039L507.96 212.43L507.301 213.496L503.984 211.491L500.492 213.594L499.805 212.543L504.005 210.039Z" fill="#117BB6"/>
            <path id="Vector_58" d="M506.446 228.057H501.242V237.622H506.446V228.057Z" fill="#D72027"/>
            <path id="Vector_59" d="M502.296 233.822C502.567 233.822 502.786 233.602 502.786 233.331C502.786 233.06 502.567 232.84 502.296 232.84C502.024 232.84 501.805 233.06 501.805 233.331C501.805 233.602 502.024 233.822 502.296 233.822Z" fill="#231F20"/>
          </g>
        </g>
        <g id="Roofing System">
          <g id="Content_2">
            <text id="7-Part Solar Roofing System" fill="#002E5D" xml:space="preserve" style="white-space: pre" font-family="Poppins" font-size="12" font-weight="600" letter-spacing="0.0112em"><tspan x="528" y="222.7">7-Part Solar Roofing System</tspan></text>
            <text id="Enjoy peace of mind with a roof that is built to last and is trusted by millions." fill="#002E5D" xml:space="preserve" style="white-space: pre" font-family="Poppins" font-size="10" letter-spacing="0.0112em"><tspan x="528" y="240">Enjoy peace of mind with a roof that is </tspan>
              <tspan x="528" y="255">built to last and is trusted by millions.</tspan></text>
          </g>
        </g>
      </g>
      <g id="4">
        <g id="Illustration_Monitor">
          <g id="Vector_60">
            <path d="M493.29 295.819C493.29 293.232 495.228 291.105 497.71 290.855V292.867C496.316 293.105 495.254 294.336 495.254 295.819C495.254 296.465 495.456 297.064 495.799 297.553L494.399 298.976C493.706 298.116 493.29 297.017 493.29 295.819Z" fill="#D71920"/>
            <path d="M496.494 298.259L495.093 299.681C495.94 300.385 497.022 300.807 498.201 300.807C499.38 300.807 500.462 300.385 501.309 299.681L499.908 298.259C499.427 298.607 498.837 298.812 498.201 298.812C497.565 298.812 496.975 298.607 496.494 298.259Z" fill="#D71920"/>
            <path d="M500.603 297.553L502.003 298.976C502.696 298.116 503.112 297.017 503.112 295.819C503.112 293.232 501.174 291.105 498.692 290.855V292.867C500.085 293.105 501.147 294.336 501.147 295.819C501.147 296.465 500.946 297.064 500.603 297.553Z" fill="#D71920"/>
            <path fill-rule="evenodd" clip-rule="evenodd"
                  d="M497.823 290.728V292.964L497.729 292.98C496.389 293.209 495.368 294.392 495.368 295.819C495.368 296.44 495.562 297.016 495.892 297.486L495.947 297.565L494.39 299.147L494.311 299.048C493.602 298.169 493.177 297.044 493.177 295.819C493.177 293.173 495.159 290.997 497.699 290.74L497.823 290.728ZM498.579 290.728L498.703 290.74C501.242 290.997 503.225 293.173 503.225 295.819C503.225 297.044 502.8 298.169 502.091 299.048L502.012 299.147L500.455 297.565L500.51 297.486C500.84 297.016 501.034 296.44 501.034 295.819C501.034 294.392 500.013 293.209 498.673 292.98L498.579 292.964V290.728ZM497.596 290.983C495.233 291.285 493.404 293.335 493.404 295.819C493.404 296.943 493.778 297.979 494.408 298.803L495.652 297.539C495.329 297.047 495.141 296.455 495.141 295.819C495.141 294.312 496.196 293.056 497.596 292.771V290.983ZM498.805 290.983V292.771C500.206 293.056 501.261 294.312 501.261 295.819C501.261 296.455 501.072 297.047 500.749 297.539L501.994 298.803C502.623 297.979 502.998 296.943 502.998 295.819C502.998 293.335 501.169 291.285 498.805 290.983ZM496.481 298.108L496.56 298.165C497.023 298.5 497.589 298.697 498.201 298.697C498.813 298.697 499.379 298.5 499.842 298.165L499.921 298.108L501.477 299.69L501.381 299.77C500.515 300.49 499.407 300.922 498.201 300.922C496.994 300.922 495.887 300.49 495.021 299.77L494.924 299.69L496.481 298.108ZM496.507 298.407L495.263 299.672C496.075 300.311 497.094 300.692 498.201 300.692C499.308 300.692 500.327 300.311 501.139 299.672L499.895 298.407C499.41 298.735 498.827 298.927 498.201 298.927C497.575 298.927 496.992 298.735 496.507 298.407Z"
                  fill="#101820"/>
            <path d="M505.79 294.836H508.022V298.817H505.79V294.836Z" fill="#002E5D"/>
            <path d="M505.79 299.812H508.022V300.807H505.79V299.812Z" fill="#002E5D"/>
            <path d="M509.138 292.845H511.371V298.817H509.138V292.845Z" fill="#002E5D"/>
            <path d="M512.487 290.855H514.719V298.817H512.487V290.855Z" fill="#002E5D"/>
            <path d="M509.138 299.812H511.371V300.807H509.138V299.812Z" fill="#002E5D"/>
            <path d="M512.487 299.812H514.719V300.807H512.487V299.812Z" fill="#002E5D"/>
            <path fill-rule="evenodd" clip-rule="evenodd"
                  d="M512.373 290.74H514.832V298.932H512.373V290.74ZM512.6 290.97V298.702H514.605V290.97H512.6ZM509.025 292.731H511.484V298.932H509.025V292.731ZM509.252 292.96V298.702H511.257V292.96H509.252ZM505.677 294.721H508.136V298.932H505.677V294.721ZM505.904 294.951V298.702H507.909V294.951H505.904ZM505.677 299.697H508.136V300.922H505.677V299.697ZM505.904 299.927V300.692H507.909V299.927H505.904ZM509.025 299.697H511.484V300.922H509.025V299.697ZM509.252 299.927V300.692H511.257V299.927H509.252ZM512.373 299.697H514.832V300.922H512.373V299.697ZM512.6 299.927V300.692H514.605V299.927H512.6Z"
                  fill="#101820"/>
            <path fill-rule="evenodd" clip-rule="evenodd"
                  d="M489.719 288.141H518.29V305.512H506.862V308.407L509.719 308.407V309.855H498.29V308.407L501.147 308.407V305.512H489.719V288.141ZM491.147 289.588H516.862V302.617H491.147V289.588ZM504.004 304.969C504.399 304.969 504.719 304.645 504.719 304.245C504.719 303.846 504.399 303.522 504.004 303.522C503.61 303.522 503.29 303.846 503.29 304.245C503.29 304.645 503.61 304.969 504.004 304.969Z"
                  fill="#D9D9D6"/>
            <path fill-rule="evenodd" clip-rule="evenodd"
                  d="M501.147 308.407L498.29 308.407V309.855H509.719V308.407L506.862 308.407V305.512H518.29V288.141H489.719V305.512H501.147V308.407ZM490.165 305.06H501.594V308.86L498.737 308.86V309.403H509.272V308.86L506.415 308.86V305.06H517.844V288.593H490.165V305.06ZM517.308 289.136V303.069H504.004H490.701V289.136H517.308ZM504.004 303.069C504.646 303.069 505.165 303.596 505.165 304.245C505.165 304.895 504.646 305.422 504.004 305.422C503.363 305.422 502.844 304.895 502.844 304.245C502.844 303.596 503.363 303.069 504.004 303.069ZM491.147 289.588H516.862V302.617H491.147V289.588ZM504.719 304.245C504.719 304.645 504.399 304.969 504.004 304.969C503.61 304.969 503.29 304.645 503.29 304.245C503.29 303.846 503.61 303.522 504.004 303.522C504.399 303.522 504.719 303.846 504.719 304.245Z"
                  fill="#101820"/>
          </g>
        </g>
        <g id="Monitoring Energy">
          <text id="Energy Production Data" fill="#002E5D" xml:space="preserve" style="white-space: pre" font-family="Poppins" font-size="12" font-weight="600" letter-spacing="0.0112em"><tspan x="528" y="297.7">Energy Production Data </tspan></text>
          <text id="See how much energy your Solar Roof is producing anytime, anywhere." fill="#002E5D" xml:space="preserve" style="white-space: pre" font-family="Poppins" font-size="10" letter-spacing="0.0112em"><tspan x="528" y="315">See how much energy your Solar Roof </tspan>
            <tspan x="528" y="330">is producing anytime, anywhere.</tspan></text>
        </g>
      </g>
      <g id="25 year">
        <g id="Icon_Medal">
          <g id="Vector_61">
            <path
                d="M503.998 359.366H503.9C501.579 359.389 499.358 360.282 497.708 361.857C496.058 363.431 495.107 365.563 495.057 367.801C495.008 370.039 495.863 372.209 497.441 373.85C499.02 375.491 501.199 376.475 503.517 376.594C503.644 376.6 503.772 376.602 503.9 376.604H503.998C504.435 376.604 504.872 376.573 505.304 376.512C507.531 376.187 509.548 375.063 510.953 373.366C512.357 371.668 513.046 369.522 512.881 367.356C512.716 365.189 511.709 363.163 510.062 361.682C508.416 360.201 506.25 359.374 503.998 359.366Z"
                fill="#B2B2B5"/>
            <path
                d="M510.723 373.665C509.326 375.207 507.406 376.217 505.306 376.514C504.874 376.576 504.437 376.607 504 376.607H503.902C503.774 376.607 503.646 376.607 503.519 376.597C501.196 376.479 499.014 375.49 497.436 373.842C497.381 373.785 497.327 373.724 497.275 373.665L493 385.817L497.463 385.045L500.964 389L504 378.985L507.038 388.998L510.539 385.043L515 385.817L510.723 373.665Z"
                fill="#0075B2"/>
            <path d="M503.957 374.448C507.656 374.448 510.654 371.556 510.654 367.989C510.654 364.422 507.656 361.53 503.957 361.53C500.259 361.53 497.261 364.422 497.261 367.989C497.261 371.556 500.259 374.448 503.957 374.448Z" fill="white"/>
            <path fill-rule="evenodd" clip-rule="evenodd" d="M502.88 363.835H505.738L504.31 367.184H506.76L501.86 373.093L503.289 368.76H501.246L502.88 363.835Z" fill="#FA121A"/>
            <path
                d="M503.997 376.979H503.894C503.784 376.979 503.64 376.979 503.495 376.968C501.072 376.848 498.794 375.816 497.15 374.093C495.558 372.431 494.674 370.251 494.676 367.989C494.676 365.621 495.644 363.35 497.37 361.667C499.096 359.984 501.44 359.026 503.894 359H503.997C506.468 359.003 508.837 359.951 510.584 361.636C512.331 363.322 513.314 365.607 513.317 367.991C513.316 370.147 512.512 372.232 511.051 373.864C509.59 375.497 507.57 376.569 505.359 376.885C504.907 376.948 504.452 376.979 503.997 376.979ZM503.997 359.737H503.901C501.681 359.761 499.558 360.617 497.981 362.124C496.403 363.63 495.495 365.67 495.448 367.811C495.4 369.951 496.217 372.026 497.727 373.597C499.236 375.167 501.319 376.11 503.536 376.226C503.666 376.233 503.8 376.235 503.902 376.236H503.997C504.415 376.236 504.834 376.206 505.248 376.148C507.379 375.837 509.31 374.761 510.655 373.136C511.999 371.511 512.659 369.457 512.5 367.383C512.342 365.31 511.379 363.37 509.802 361.952C508.225 360.535 506.152 359.743 503.997 359.737ZM503.954 374.817C502.554 374.817 501.185 374.416 500.021 373.666C498.857 372.916 497.949 371.849 497.414 370.602C496.878 369.354 496.738 367.981 497.011 366.656C497.284 365.332 497.958 364.115 498.948 363.16C499.938 362.205 501.2 361.555 502.573 361.291C503.946 361.028 505.369 361.163 506.663 361.68C507.956 362.197 509.062 363.072 509.84 364.195C510.618 365.318 511.033 366.638 511.033 367.989C511.031 369.799 510.285 371.535 508.957 372.815C507.63 374.095 505.831 374.815 503.954 374.817ZM503.954 361.899C502.705 361.899 501.485 362.256 500.446 362.925C499.408 363.594 498.599 364.545 498.121 365.658C497.643 366.771 497.518 367.995 497.762 369.177C498.005 370.358 498.607 371.443 499.49 372.295C500.373 373.146 501.497 373.726 502.722 373.961C503.947 374.196 505.216 374.076 506.37 373.615C507.523 373.154 508.51 372.373 509.203 371.372C509.897 370.37 510.267 369.193 510.267 367.989C510.265 366.374 509.599 364.826 508.416 363.685C507.232 362.543 505.628 361.901 503.954 361.899Z"
                fill="#03111A"/>
          </g>
        </g>
        <g id="Performance">
          <text id="25-Year Performance Guarantee" fill="#002E5D" xml:space="preserve" style="white-space: pre" font-family="Poppins" font-size="12" font-weight="600" letter-spacing="0.0112em"><tspan x="528" y="372.7">25-Year Performance Guarantee</tspan></text>
          <text id="Ensure the production of your roof with the purchase of the Solar Max Limited Warranty." fill="#002E5D" xml:space="preserve" style="white-space: pre" font-family="Poppins" font-size="10" letter-spacing="0.0112em"><tspan x="528" y="390">Ensure the production of your roof with the </tspan>
            <tspan x="528" y="405">purchase of the Solar Max Limited Warranty.</tspan></text>
        </g>
      </g>
    </g>
  </g>
</svg>
