<svg width="792" height="612" viewBox="0 0 792 612" fill="none" xmlns="http://www.w3.org/2000/svg">
  <rect width="296" height="343" transform="translate(472 93)" fill="#F1F2F2" />
  <text id="Heading" fill="#002E5D" xml:space="preserve" style="white-space: pre"
    font-family="Poppins" font-size="16" font-weight="bold" letter-spacing="0.0112em"><tspan x="488" y="126.6">What you get</tspan></text>
  <g id="Content">
    <g id="Savings">
      <line id="Divider" x1="488" y1="148.5" x2="752" y2="148.5" stroke="black" />
    </g>
    <g id="Description">
      <g id="3">
        <g id="ENERGY_Icon_SolarHouse_FullColor_New">
          <g id="Icon/ medal">
            <g id="Asset 4 2">
              <g id="Layer 1">
                <g id="Group">
                  <g id="Group_2">
                    <path id="Vector"
                      d="M508.129 172.293H499.015L491.945 179.479V189.524H516.365V180.705L508.129 172.293Z"
                      fill="white" />
                    <g id="Group_3">
                      <path id="Vector_2"
                        d="M507.683 180.736L499.508 172.309L509.207 172.184L517.281 180.789L507.683 180.736Z"
                        fill="#A9ABAC" />
                      <path id="Vector_3"
                        d="M517.281 180.721H507.512L499.508 172.309H509.277L517.281 180.721Z"
                        stroke="#000006" stroke-width="0.615944" stroke-miterlimit="10" />
                      <path id="Vector_4" d="M501.65 181.102H496.766V189.293H501.65V181.102Z"
                        fill="#D71920" />
                      <path id="Vector_5"
                        d="M491.943 179.479V180.729H490.727L499.014 172.215L491.943 179.479ZM491.943 179.479V189.54H516.363V180.722"
                        stroke="#000006" stroke-width="0.615944" stroke-miterlimit="10" />
                      <path id="Vector_6" d="M513.986 182.553H507.609V187.165H513.986V182.553Z"
                        fill="#A9ABAC" stroke="#000006" stroke-width="0.615944"
                        stroke-miterlimit="10" />
                      <path id="Vector_7" d="M510.867 182.416V187.165" stroke="#000006"
                        stroke-width="0.615944" stroke-miterlimit="10" />
                    </g>
                    <path id="Vector_8"
                      d="M490.984 180.464L491.709 179.74H491.945V180.728L490.984 180.788V180.464Z"
                      fill="#000006" />
                  </g>
                  <path id="Vector_9" d="M498.254 185.332H497.562V186.024H498.254V185.332Z"
                    fill="#000006" />
                </g>
                <g id="Group_4">
                  <path id="Vector_10"
                    d="M514.232 179.088L507.617 179.172L502.312 173.632L509.042 173.625L514.232 179.088Z"
                    fill="white" />
                  <path id="Vector_11" d="M504.695 176.148H511.53" stroke="#0F7BB6"
                    stroke-width="0.175984" stroke-miterlimit="10" />
                  <path id="Vector_12" d="M504.219 175.645H511.023" stroke="#0F7BB6"
                    stroke-width="0.175984" stroke-miterlimit="10" />
                  <path id="Vector_13" d="M503.734 175.139H510.543" stroke="#0F7BB6"
                    stroke-width="0.175984" stroke-miterlimit="10" />
                  <path id="Vector_14" d="M503.258 174.635H510.07" stroke="#0F7BB6"
                    stroke-width="0.175984" stroke-miterlimit="10" />
                  <path id="Vector_15" d="M502.781 174.131H509.599" stroke="#0F7BB6"
                    stroke-width="0.175984" stroke-miterlimit="10" />
                  <path id="Vector_16" d="M506.234 177.66H512.946" stroke="#0F7BB6"
                    stroke-width="0.175984" stroke-miterlimit="10" />
                  <path id="Vector_17" d="M505.75 177.156H512.442" stroke="#0F7BB6"
                    stroke-width="0.175984" stroke-miterlimit="10" />
                  <path id="Vector_18" d="M507.188 179.172H514.516" stroke="#0F7BB6"
                    stroke-width="0.175984" stroke-miterlimit="10" />
                  <path id="Vector_19" d="M507.188 178.668H513.926" stroke="#0F7BB6"
                    stroke-width="0.175984" stroke-miterlimit="10" />
                  <path id="Vector_20" d="M506.711 178.164H513.43" stroke="#0F7BB6"
                    stroke-width="0.175984" stroke-miterlimit="10" />
                  <path id="Vector_21" d="M505.273 176.652H511.971" stroke="#0F7BB6"
                    stroke-width="0.175984" stroke-miterlimit="10" />
                  <path id="Vector_22" d="M506.812 173.52L512.255 179.247" stroke="#0F7BB6"
                    stroke-width="0.351968" stroke-miterlimit="10" />
                  <path id="Vector_23" d="M509.102 173.605L514.52 179.309" stroke="#0F7BB6"
                    stroke-width="0.175984" stroke-miterlimit="10" />
                  <path id="Vector_24" d="M504.508 173.52L509.95 179.247" stroke="#0F7BB6"
                    stroke-width="0.351968" stroke-miterlimit="10" />
                  <path id="Vector_25" d="M502.312 173.549L507.725 179.245" stroke="#0F7BB6"
                    stroke-width="0.351968" stroke-miterlimit="10" />
                  <path id="Vector_26" d="M501.977 173.611H509.371" stroke="#0F7BB6"
                    stroke-width="0.175984" stroke-miterlimit="10" />
                  <path id="Vector_27" d="M507.227 179.328H514.64" stroke="#A9ABAC"
                    stroke-width="0.175984" stroke-miterlimit="10" />
                  <path id="Vector_28" d="M501.797 173.416H509.452" stroke="#A9ABAC"
                    stroke-width="0.263976" stroke-miterlimit="10" />
                  <path id="Vector_29" d="M509.109 173.389L514.704 179.277" stroke="#A9ABAC"
                    stroke-width="0.175984" stroke-miterlimit="10" />
                  <path id="Vector_30" d="M501.586 173.301L507.569 179.587" stroke="#A9ABAC"
                    stroke-width="0.351968" stroke-miterlimit="10" />
                </g>
              </g>
            </g>
          </g>
        </g>
        <g id="Built-In Energy Shingles">
          <g id="Energy shingles">
            <text id="systemSizeText" fill="#002E5D" xml:space="preserve"
              style="white-space: pre" font-family="Poppins" font-size="14" font-weight="600"
              letter-spacing="0.0112em"><tspan x="528" y="180.4">Timberline Solar ES</tspan></text>
            <text
              id="Add value to your home with a roof that reliably reduces your energy bills."
              fill="#002E5D" xml:space="preserve" style="white-space: pre" font-family="Poppins"
              font-size="12" letter-spacing="0.0112em"><tspan x="528" y="197.2">Add value to your home with a </tspan><tspan x="528" y="211.2">roof that reliably reduces your </tspan><tspan x="528" y="225.2">energy bills.</tspan></text>
          </g>
        </g>
      </g>
      <g id="7-part">
        <g id="House Icon_ New">
          <g id="Layer 1_2">
            <path id="Vector_31" d="M503.196 263.395L494.367 269.299V282.287H513.084V269.762"
              fill="white" />
            <g id="Clip path group">
              <mask id="mask0_4898_94044" style="mask-type:luminance" maskUnits="userSpaceOnUse"
                x="493" y="269" width="22" height="16">
                <g id="clippath">
                  <path id="Vector_32" d="M514.512 269.766H493.215V284.001H514.512V269.766Z"
                    fill="white" />
                </g>
              </mask>
              <g mask="url(#mask0_4898_94044)">
                <g id="Group_5">
                  <path id="Vector_33"
                    d="M495.73 270.469H493.914V283.295H513.809V281.591H495.73V270.469Z"
                    fill="#626367" />
                </g>
              </g>
            </g>
            <g id="Clip path group_2">
              <mask id="mask1_4898_94044" style="mask-type:luminance" maskUnits="userSpaceOnUse"
                x="503" y="263" width="16" height="20">
                <g id="clippath-1">
                  <path id="Vector_34" d="M518.038 263.4H503.199V282.292H518.038V263.4Z"
                    fill="white" />
                </g>
              </mask>
              <g mask="url(#mask1_4898_94044)">
                <g id="Group_6">
                  <path id="Vector_35"
                    d="M507.503 264.102H503.898L512.033 269.445V281.591H513.793V270.469H517.335L507.503 264.102Z"
                    fill="#626367" />
                </g>
              </g>
            </g>
            <g id="Clip path group_3">
              <mask id="mask2_4898_94044" style="mask-type:luminance" maskUnits="userSpaceOnUse"
                x="489" y="261" width="20" height="12">
                <g id="clippath-2">
                  <path id="Vector_36" d="M508.199 261.125H489.672V272.983H508.199V261.125Z"
                    fill="white" />
                </g>
              </mask>
              <g mask="url(#mask2_4898_94044)">
                <g id="Group_7">
                  <path id="Vector_37"
                    d="M503.983 261.828L490.371 270.58L491.276 272.284L493.891 270.468H495.708V269.444L503.891 264.1H507.496L503.983 261.828Z"
                    fill="#626367" />
                </g>
              </g>
            </g>
            <g id="Clip path group_4">
              <mask id="mask3_4898_94044" style="mask-type:luminance" maskUnits="userSpaceOnUse"
                x="513" y="269" width="6" height="4">
                <g id="clippath-3">
                  <path id="Vector_38" d="M518.162 269.766H513.078V272.76H518.162V269.766Z"
                    fill="white" />
                </g>
              </mask>
              <g mask="url(#mask3_4898_94044)">
                <g id="Group_8">
                  <path id="Vector_39"
                    d="M517.33 270.469H513.789L516.286 272.061L517.464 270.553L517.33 270.469Z"
                    fill="#626367" />
                </g>
              </g>
            </g>
            <g id="Clip path group_5">
              <mask id="mask4_4898_94044" style="mask-type:luminance" maskUnits="userSpaceOnUse"
                x="489" y="264" width="9" height="7">
                <g id="clippath-4">
                  <path id="Vector_40" d="M497.181 264.445H489.859V270.329H497.181V264.445Z"
                    fill="white" />
                </g>
              </mask>
              <g mask="url(#mask4_4898_94044)">
                <g id="Group_9">
                  <path id="Vector_41"
                    d="M495.838 265.143L490.559 268.678L491.194 269.628L496.474 266.093L495.838 265.143Z"
                    fill="#117BB6" />
                </g>
              </g>
            </g>
            <g id="Clip path group_6">
              <mask id="mask5_4898_94044" style="mask-type:luminance" maskUnits="userSpaceOnUse"
                x="510" y="264" width="8" height="7">
                <g id="clippath-5">
                  <path id="Vector_42" d="M517.931 264.445H510.609V270.329H517.931V264.445Z"
                    fill="white" />
                </g>
              </mask>
              <g mask="url(#mask5_4898_94044)">
                <g id="Group_10">
                  <path id="Vector_43"
                    d="M511.952 265.146L511.316 266.096L516.597 269.629L517.232 268.679L511.952 265.146Z"
                    fill="#117BB6" />
                </g>
              </g>
            </g>
            <g id="Clip path group_7">
              <mask id="mask6_4898_94044" style="mask-type:luminance" maskUnits="userSpaceOnUse"
                x="489" y="264" width="6" height="5">
                <g id="clippath-6">
                  <path id="Vector_44" d="M494.352 264.379H489.906V268.341H494.352V264.379Z"
                    fill="white" />
                </g>
              </mask>
              <g mask="url(#mask6_4898_94044)">
                <g id="Group_11">
                  <path id="Vector_45"
                    d="M493.024 265.082L490.617 266.693L491.253 267.643L493.66 266.032L493.024 265.082Z"
                    fill="#117BB6" />
                </g>
              </g>
            </g>
            <g id="Clip path group_8">
              <mask id="mask7_4898_94044" style="mask-type:luminance" maskUnits="userSpaceOnUse"
                x="513" y="264" width="5" height="5">
                <g id="clippath-7">
                  <path id="Vector_46" d="M517.982 264.379H513.508V268.383H517.982V264.379Z"
                    fill="white" />
                </g>
              </mask>
              <g mask="url(#mask7_4898_94044)">
                <g id="Group_12">
                  <path id="Vector_47"
                    d="M514.871 265.08L514.207 266.07L516.613 267.682L517.277 266.692L514.871 265.08Z"
                    fill="#117BB6" />
                </g>
              </g>
            </g>
            <g id="Clip path group_9">
              <mask id="mask8_4898_94044" style="mask-type:luminance" maskUnits="userSpaceOnUse"
                x="489" y="255" width="19" height="12">
                <g id="clippath-8">
                  <path id="Vector_48" d="M507.124 255.443H489.648V266.145H507.124V255.443Z"
                    fill="white" />
                </g>
              </mask>
              <g mask="url(#mask8_4898_94044)">
                <g id="Group_13">
                  <path id="Vector_49"
                    d="M504.015 256.161H503.994L503.987 256.146L490.348 264.372L490.993 265.445L503.994 257.612H506.421L504.015 256.161Z"
                    fill="#117BB6" />
                </g>
              </g>
            </g>
            <g id="Clip path group_10">
              <mask id="mask9_4898_94044" style="mask-type:luminance" maskUnits="userSpaceOnUse"
                x="503" y="256" width="16" height="11">
                <g id="clippath-9">
                  <path id="Vector_50" d="M518.35 256.904H503.301V266.147H518.35V256.904Z"
                    fill="white" />
                </g>
              </mask>
              <g mask="url(#mask9_4898_94044)">
                <g id="Group_14">
                  <path id="Vector_51"
                    d="M506.434 257.607H504.008L517.002 265.441L517.654 264.368L506.434 257.607Z"
                    fill="#117BB6" />
                </g>
              </g>
            </g>
            <g id="Group_15">
              <g id="Clip path group_11">
                <mask id="mask10_4898_94044" style="mask-type:luminance"
                  maskUnits="userSpaceOnUse" x="493" y="257" width="15" height="10">
                  <g id="clippath-10">
                    <path id="Vector_52" d="M507.169 257.705H493.102V266.352H507.169V257.705Z"
                      fill="white" />
                  </g>
                </mask>
                <g mask="url(#mask10_4898_94044)">
                  <g id="Group_16">
                    <path id="Vector_53"
                      d="M504.06 258.417H504.039L504.032 258.41L493.801 264.581L494.446 265.654L504.039 259.869H506.466L504.06 258.417Z"
                      fill="#117BB6" />
                  </g>
                </g>
              </g>
              <g id="Clip path group_12">
                <mask id="mask11_4898_94044" style="mask-type:luminance"
                  maskUnits="userSpaceOnUse" x="503" y="259" width="12" height="8">
                  <g id="clippath-11">
                    <path id="Vector_54" d="M514.9 259.166H503.301V266.333H514.9V259.166Z"
                      fill="white" />
                  </g>
                </mask>
                <g mask="url(#mask11_4898_94044)">
                  <g id="Group_17">
                    <path id="Vector_55"
                      d="M506.434 259.867H504.008L513.559 265.625L514.204 264.552L506.434 259.867Z"
                      fill="#117BB6" />
                  </g>
                </g>
              </g>
            </g>
            <path id="Vector_56"
              d="M506.658 253.522L504.126 252L501.363 253.662L501.952 254.644L504.035 253.388L506.02 254.588L506.658 253.522Z"
              fill="#117BB6" />
            <path id="Vector_57"
              d="M504.005 254.039L507.96 256.43L507.301 257.496L503.984 255.491L500.492 257.594L499.805 256.543L504.005 254.039Z"
              fill="#117BB6" />
            <path id="Vector_58" d="M506.446 272.057H501.242V281.622H506.446V272.057Z"
              fill="#D72027" />
            <path id="Vector_59"
              d="M502.296 277.822C502.567 277.822 502.786 277.602 502.786 277.331C502.786 277.06 502.567 276.84 502.296 276.84C502.024 276.84 501.805 277.06 501.805 277.331C501.805 277.602 502.024 277.822 502.296 277.822Z"
              fill="#231F20" />
          </g>
        </g>
        <g id="Roofing System">
          <g id="Content_2">
            <text id="7-Part Solar Roofing System" fill="#002E5D" xml:space="preserve"
              style="white-space: pre" font-family="Poppins" font-size="14" font-weight="600"
              letter-spacing="0.0112em"><tspan x="528" y="267.4">7-Part Solar Roofing System</tspan></text>
            <text
              id="Enjoy peace of mind with a roof that is built to last and is trusted by millions."
              fill="#002E5D" xml:space="preserve" style="white-space: pre" font-family="Poppins"
              font-size="12" letter-spacing="0.0112em"><tspan x="528" y="284.2">Enjoy peace of mind with a roof </tspan><tspan x="528" y="298.2">that is built to last and is </tspan><tspan x="528" y="312.2">trusted by millions.</tspan></text>
          </g>
        </g>
      </g>
      <g id="4">
        <g id="Illustration_Monitor">
          <g id="Vector_60">
            <path
              d="M493.29 351.821C493.29 349.234 495.228 347.107 497.71 346.857V348.869C496.316 349.107 495.254 350.338 495.254 351.821C495.254 352.467 495.456 353.066 495.799 353.555L494.399 354.978C493.706 354.118 493.29 353.019 493.29 351.821Z"
              fill="#D71920" />
            <path
              d="M496.494 354.26L495.093 355.683C495.94 356.387 497.022 356.809 498.201 356.809C499.38 356.809 500.462 356.387 501.309 355.683L499.908 354.26C499.427 354.609 498.837 354.814 498.201 354.814C497.565 354.814 496.975 354.609 496.494 354.26Z"
              fill="#D71920" />
            <path
              d="M500.603 353.555L502.003 354.978C502.696 354.118 503.112 353.019 503.112 351.821C503.112 349.234 501.174 347.107 498.692 346.857V348.869C500.085 349.107 501.147 350.338 501.147 351.821C501.147 352.467 500.946 353.066 500.603 353.555Z"
              fill="#D71920" />
            <path fill-rule="evenodd" clip-rule="evenodd"
              d="M497.823 346.73V348.966L497.729 348.982C496.389 349.211 495.368 350.394 495.368 351.821C495.368 352.442 495.562 353.018 495.892 353.488L495.947 353.567L494.39 355.149L494.311 355.05C493.602 354.171 493.177 353.046 493.177 351.821C493.177 349.175 495.159 346.999 497.699 346.742L497.823 346.73ZM498.579 346.73L498.703 346.742C501.242 346.999 503.225 349.175 503.225 351.821C503.225 353.046 502.8 354.171 502.091 355.05L502.012 355.149L500.455 353.567L500.51 353.488C500.84 353.018 501.034 352.442 501.034 351.821C501.034 350.394 500.013 349.211 498.673 348.982L498.579 348.966V346.73ZM497.596 346.985C495.233 347.287 493.404 349.337 493.404 351.821C493.404 352.945 493.778 353.981 494.408 354.805L495.652 353.541C495.329 353.049 495.141 352.457 495.141 351.821C495.141 350.314 496.196 349.058 497.596 348.773V346.985ZM498.805 346.985V348.773C500.206 349.058 501.261 350.314 501.261 351.821C501.261 352.457 501.072 353.049 500.749 353.541L501.994 354.805C502.623 353.981 502.998 352.945 502.998 351.821C502.998 349.337 501.169 347.287 498.805 346.985ZM496.481 354.11L496.56 354.167C497.023 354.502 497.589 354.699 498.201 354.699C498.813 354.699 499.379 354.502 499.842 354.167L499.921 354.11L501.477 355.692L501.381 355.772C500.515 356.492 499.407 356.924 498.201 356.924C496.994 356.924 495.887 356.492 495.021 355.772L494.924 355.692L496.481 354.11ZM496.507 354.409L495.263 355.673C496.075 356.313 497.094 356.694 498.201 356.694C499.308 356.694 500.327 356.313 501.139 355.673L499.895 354.409C499.41 354.737 498.827 354.929 498.201 354.929C497.575 354.929 496.992 354.737 496.507 354.409Z"
              fill="#101820" />
            <path d="M505.79 350.838H508.022V354.819H505.79V350.838Z" fill="#002E5D" />
            <path d="M505.79 355.814H508.022V356.809H505.79V355.814Z" fill="#002E5D" />
            <path d="M509.138 348.847H511.371V354.819H509.138V348.847Z" fill="#002E5D" />
            <path d="M512.487 346.857H514.719V354.819H512.487V346.857Z" fill="#002E5D" />
            <path d="M509.138 355.814H511.371V356.809H509.138V355.814Z" fill="#002E5D" />
            <path d="M512.487 355.814H514.719V356.809H512.487V355.814Z" fill="#002E5D" />
            <path fill-rule="evenodd" clip-rule="evenodd"
              d="M512.373 346.742H514.832V354.934H512.373V346.742ZM512.6 346.972V354.704H514.605V346.972H512.6ZM509.025 348.732H511.484V354.934H509.025V348.732ZM509.252 348.962V354.704H511.257V348.962H509.252ZM505.677 350.723H508.136V354.934H505.677V350.723ZM505.904 350.953V354.704H507.909V350.953H505.904ZM505.677 355.699H508.136V356.924H505.677V355.699ZM505.904 355.929V356.694H507.909V355.929H505.904ZM509.025 355.699H511.484V356.924H509.025V355.699ZM509.252 355.929V356.694H511.257V355.929H509.252ZM512.373 355.699H514.832V356.924H512.373V355.699ZM512.6 355.929V356.694H514.605V355.929H512.6Z"
              fill="#101820" />
            <path fill-rule="evenodd" clip-rule="evenodd"
              d="M489.719 344.143H518.29V361.514H506.862V364.409L509.719 364.409V365.857H498.29V364.409L501.147 364.409V361.514H489.719V344.143ZM491.147 345.59H516.862V358.619H491.147V345.59ZM504.004 360.971C504.399 360.971 504.719 360.647 504.719 360.247C504.719 359.848 504.399 359.524 504.004 359.524C503.61 359.524 503.29 359.848 503.29 360.247C503.29 360.647 503.61 360.971 504.004 360.971Z"
              fill="#D9D9D6" />
            <path fill-rule="evenodd" clip-rule="evenodd"
              d="M501.147 364.409L498.29 364.409V365.857H509.719V364.409L506.862 364.409V361.514H518.29V344.143H489.719V361.514H501.147V364.409ZM490.165 361.062H501.594V364.862L498.737 364.862V365.404H509.272V364.862L506.415 364.862V361.062H517.844V344.595H490.165V361.062ZM517.308 345.138V359.071H504.004H490.701V345.138H517.308ZM504.004 359.071C504.646 359.071 505.165 359.598 505.165 360.247C505.165 360.897 504.646 361.424 504.004 361.424C503.363 361.424 502.844 360.897 502.844 360.247C502.844 359.598 503.363 359.071 504.004 359.071ZM491.147 345.59H516.862V358.619H491.147V345.59ZM504.719 360.247C504.719 360.647 504.399 360.971 504.004 360.971C503.61 360.971 503.29 360.647 503.29 360.247C503.29 359.848 503.61 359.524 504.004 359.524C504.399 359.524 504.719 359.848 504.719 360.247Z"
              fill="#101820" />
          </g>
        </g>
        <g id="Monitoring Energy">
          <text id="Energy Production Data" fill="#002E5D" xml:space="preserve"
            style="white-space: pre" font-family="Poppins" font-size="14" font-weight="600"
            letter-spacing="0.0112em"><tspan x="528" y="354.4">Energy Production Data </tspan></text>
          <text id="See how much energy your Solar Roof is producing anytime, anywhere."
            fill="#002E5D" xml:space="preserve" style="white-space: pre" font-family="Poppins"
            font-size="12" letter-spacing="0.0112em"><tspan x="528" y="371.2">See how much energy your </tspan><tspan x="528" y="385.2">Solar Roof is producing </tspan><tspan x="528" y="399.2">anytime, anywhere.</tspan></text>
        </g>
      </g>
    </g>
  </g>
</svg>
