<svg width="792" height="612" viewBox="0 0 792 612" fill="none" xmlns="http://www.w3.org/2000/svg"
     xmlns:xlink="http://www.w3.org/1999/xlink">
<g id="What you get">
<rect width="296" height="400" transform="translate(472 93)" fill="#F1F2F2"/>
<text id="Heading" fill="#002E5D" xml:space="preserve" style="white-space: pre" font-family="Poppins" font-size="20" font-weight="600" letter-spacing="0.0112em"><tspan x="488" y="139">What you get</tspan></text>
<g id="Content">
<g id="Description">
<g id="3">
<g id="ENERGY_Icon_SolarHouse_FullColor_New">
<g id="Icon/ medal">
<g id="Asset 4 2" clip-path="url(#clip0_4312_17662)">
<g id="Layer 1">
<g id="Group">
<g id="Group_2">
<path id="Vector" d="M508.129 170.293H499.015L491.945 177.479V187.524H516.365V178.705L508.129 170.293Z" fill="white"/>
<g id="Group_3">
<path id="Vector_2" d="M507.683 178.736L499.508 170.309L509.207 170.184L517.281 178.789L507.683 178.736Z" fill="#A9ABAC"/>
<path id="Vector_3" d="M517.281 178.721H507.512L499.508 170.309H509.277L517.281 178.721Z" stroke="#000006" stroke-width="0.615944" stroke-miterlimit="10"/>
<path id="Vector_4" d="M501.65 179.102H496.766V187.293H501.65V179.102Z" fill="#D71920"/>
<path id="Vector_5" d="M491.943 177.479V178.729H490.727L499.014 170.215L491.943 177.479ZM491.943 177.479V187.54H516.363V178.722" stroke="#000006" stroke-width="0.615944" stroke-miterlimit="10"/>
<path id="Vector_6" d="M513.986 180.553H507.609V185.165H513.986V180.553Z" fill="#A9ABAC" stroke="#000006" stroke-width="0.615944" stroke-miterlimit="10"/>
<path id="Vector_7" d="M510.867 180.416V185.165" stroke="#000006" stroke-width="0.615944" stroke-miterlimit="10"/>
</g>
<path id="Vector_8" d="M490.984 178.464L491.709 177.74H491.945V178.728L490.984 178.788V178.464Z" fill="#000006"/>
</g>
<path id="Vector_9" d="M498.254 183.332H497.562V184.024H498.254V183.332Z" fill="#000006"/>
</g>
<g id="Group_4">
<path id="Vector_10" d="M514.232 177.088L507.617 177.172L502.312 171.632L509.042 171.625L514.232 177.088Z" fill="white"/>
<path id="Vector_11" d="M504.695 174.148H511.53" stroke="#0F7BB6" stroke-width="0.175984" stroke-miterlimit="10"/>
<path id="Vector_12" d="M504.219 173.645H511.023" stroke="#0F7BB6" stroke-width="0.175984" stroke-miterlimit="10"/>
<path id="Vector_13" d="M503.734 173.139H510.543" stroke="#0F7BB6" stroke-width="0.175984" stroke-miterlimit="10"/>
<path id="Vector_14" d="M503.258 172.635H510.07" stroke="#0F7BB6" stroke-width="0.175984" stroke-miterlimit="10"/>
<path id="Vector_15" d="M502.781 172.131H509.599" stroke="#0F7BB6" stroke-width="0.175984" stroke-miterlimit="10"/>
<path id="Vector_16" d="M506.234 175.66H512.946" stroke="#0F7BB6" stroke-width="0.175984" stroke-miterlimit="10"/>
<path id="Vector_17" d="M505.75 175.156H512.442" stroke="#0F7BB6" stroke-width="0.175984" stroke-miterlimit="10"/>
<path id="Vector_18" d="M507.188 177.172H514.516" stroke="#0F7BB6" stroke-width="0.175984" stroke-miterlimit="10"/>
<path id="Vector_19" d="M507.188 176.668H513.926" stroke="#0F7BB6" stroke-width="0.175984" stroke-miterlimit="10"/>
<path id="Vector_20" d="M506.711 176.164H513.43" stroke="#0F7BB6" stroke-width="0.175984" stroke-miterlimit="10"/>
<path id="Vector_21" d="M505.273 174.652H511.971" stroke="#0F7BB6" stroke-width="0.175984" stroke-miterlimit="10"/>
<path id="Vector_22" d="M506.812 171.52L512.255 177.247" stroke="#0F7BB6" stroke-width="0.351968" stroke-miterlimit="10"/>
<path id="Vector_23" d="M509.102 171.605L514.52 177.309" stroke="#0F7BB6" stroke-width="0.175984" stroke-miterlimit="10"/>
<path id="Vector_24" d="M504.508 171.52L509.95 177.247" stroke="#0F7BB6" stroke-width="0.351968" stroke-miterlimit="10"/>
<path id="Vector_25" d="M502.312 171.549L507.725 177.245" stroke="#0F7BB6" stroke-width="0.351968" stroke-miterlimit="10"/>
<path id="Vector_26" d="M501.977 171.611H509.371" stroke="#0F7BB6" stroke-width="0.175984" stroke-miterlimit="10"/>
<path id="Vector_27" d="M507.227 177.328H514.64" stroke="#A9ABAC" stroke-width="0.175984" stroke-miterlimit="10"/>
<path id="Vector_28" d="M501.797 171.416H509.452" stroke="#A9ABAC" stroke-width="0.263976" stroke-miterlimit="10"/>
<path id="Vector_29" d="M509.109 171.389L514.704 177.277" stroke="#A9ABAC" stroke-width="0.175984" stroke-miterlimit="10"/>
<path id="Vector_30" d="M501.586 171.301L507.569 177.587" stroke="#A9ABAC" stroke-width="0.351968" stroke-miterlimit="10"/>
</g>
</g>
</g>
</g>
</g>
<g id="Built-In Energy Shingles">
<g id="Energy shingles">
<text id="Token_SystemSize" fill="#002E5D" xml:space="preserve" style="white-space: pre" font-family="Poppins" font-size="12" font-weight="600" letter-spacing="0.0112em"><tspan x="528" y="178.4">7.12 kW</tspan></text>
<text id="systemSizeText" fill="#002E5D" xml:space="preserve" style="white-space: pre" font-family="Poppins" font-size="12" font-weight="600" letter-spacing="0.0112em"><tspan x="528" y="178.4">  Timberline Solar ES</tspan></text>
<text id="Add value to your home with a roof that reliably reduces your energy bills." fill="#002E5D" xml:space="preserve" style="white-space: pre" font-family="Poppins" font-size="12" letter-spacing="0.0112em"><tspan x="528" y="197.2">Add value to your home with a </tspan><tspan x="528" y="215.2">roof that reliably reduces your </tspan><tspan x="528" y="233.2">energy bills.</tspan></text>
</g>
</g>
</g>
<g id="7-part">
<g id="House Icon_ New">
<g id="Layer 1_2">
<path id="Vector_31" d="M503.196 281.395L494.367 287.299V300.287H513.084V287.762" fill="white"/>
<g id="Clip path group">
<mask id="mask0_4312_17662" style="mask-type:luminance" maskUnits="userSpaceOnUse" x="493" y="287" width="22" height="16">
<g id="clippath">
<path id="Vector_32" d="M514.516 287.766H493.219V302.001H514.516V287.766Z" fill="white"/>
</g>
</mask>
<g mask="url(#mask0_4312_17662)">
<g id="Group_5">
<path id="Vector_33" d="M495.73 288.469H493.914V301.295H513.809V299.591H495.73V288.469Z" fill="#626367"/>
</g>
</g>
</g>
<g id="Clip path group_2">
<mask id="mask1_4312_17662" style="mask-type:luminance" maskUnits="userSpaceOnUse" x="503" y="281" width="16" height="20">
<g id="clippath-1">
<path id="Vector_34" d="M518.034 281.4H503.195V300.292H518.034V281.4Z" fill="white"/>
</g>
</mask>
<g mask="url(#mask1_4312_17662)">
<g id="Group_6">
<path id="Vector_35" d="M507.495 282.102H503.891L512.025 287.445V299.591H513.785V288.469H517.327L507.495 282.102Z" fill="#626367"/>
</g>
</g>
</g>
<g id="Clip path group_3">
<mask id="mask2_4312_17662" style="mask-type:luminance" maskUnits="userSpaceOnUse" x="489" y="279" width="20" height="12">
<g id="clippath-2">
<path id="Vector_36" d="M508.199 279.125H489.672V290.983H508.199V279.125Z" fill="white"/>
</g>
</mask>
<g mask="url(#mask2_4312_17662)">
<g id="Group_7">
<path id="Vector_37" d="M503.979 279.828L490.367 288.58L491.272 290.284L493.888 288.468H495.704V287.444L503.888 282.1H507.492L503.979 279.828Z" fill="#626367"/>
</g>
</g>
</g>
<g id="Clip path group_4">
<mask id="mask3_4312_17662" style="mask-type:luminance" maskUnits="userSpaceOnUse" x="513" y="287" width="6" height="4">
<g id="clippath-3">
<path id="Vector_38" d="M518.162 287.766H513.078V290.76H518.162V287.766Z" fill="white"/>
</g>
</mask>
<g mask="url(#mask3_4312_17662)">
<g id="Group_8">
<path id="Vector_39" d="M517.33 288.469H513.789L516.286 290.061L517.464 288.553L517.33 288.469Z" fill="#626367"/>
</g>
</g>
</g>
<g id="Clip path group_5">
<mask id="mask4_4312_17662" style="mask-type:luminance" maskUnits="userSpaceOnUse" x="489" y="282" width="9" height="7">
<g id="clippath-4">
<path id="Vector_40" d="M497.181 282.445H489.859V288.329H497.181V282.445Z" fill="white"/>
</g>
</mask>
<g mask="url(#mask4_4312_17662)">
<g id="Group_9">
<path id="Vector_41" d="M495.834 283.143L490.555 286.678L491.191 287.628L496.47 284.093L495.834 283.143Z" fill="#117BB6"/>
</g>
</g>
</g>
<g id="Clip path group_6">
<mask id="mask5_4312_17662" style="mask-type:luminance" maskUnits="userSpaceOnUse" x="510" y="282" width="8" height="7">
<g id="clippath-5">
<path id="Vector_42" d="M517.931 282.445H510.609V288.329H517.931V282.445Z" fill="white"/>
</g>
</mask>
<g mask="url(#mask5_4312_17662)">
<g id="Group_10">
<path id="Vector_43" d="M511.948 283.146L511.312 284.096L516.593 287.629L517.228 286.679L511.948 283.146Z" fill="#117BB6"/>
</g>
</g>
</g>
<g id="Clip path group_7">
<mask id="mask6_4312_17662" style="mask-type:luminance" maskUnits="userSpaceOnUse" x="489" y="282" width="6" height="5">
<g id="clippath-6">
<path id="Vector_44" d="M494.352 282.379H489.906V286.341H494.352V282.379Z" fill="white"/>
</g>
</mask>
<g mask="url(#mask6_4312_17662)">
<g id="Group_11">
<path id="Vector_45" d="M493.024 283.082L490.617 284.693L491.253 285.643L493.66 284.032L493.024 283.082Z" fill="#117BB6"/>
</g>
</g>
</g>
<g id="Clip path group_8">
<mask id="mask7_4312_17662" style="mask-type:luminance" maskUnits="userSpaceOnUse" x="513" y="282" width="5" height="5">
<g id="clippath-7">
<path id="Vector_46" d="M517.982 282.379H513.508V286.383H517.982V282.379Z" fill="white"/>
</g>
</mask>
<g mask="url(#mask7_4312_17662)">
<g id="Group_12">
<path id="Vector_47" d="M514.867 283.08L514.203 284.07L516.609 285.682L517.273 284.692L514.867 283.08Z" fill="#117BB6"/>
</g>
</g>
</g>
<g id="Clip path group_9">
<mask id="mask8_4312_17662" style="mask-type:luminance" maskUnits="userSpaceOnUse" x="489" y="273" width="19" height="12">
<g id="clippath-8">
<path id="Vector_48" d="M507.124 273.443H489.648V284.145H507.124V273.443Z" fill="white"/>
</g>
</mask>
<g mask="url(#mask8_4312_17662)">
<g id="Group_13">
<path id="Vector_49" d="M504.011 274.161H503.99L503.983 274.146L490.344 282.372L490.989 283.445L503.99 275.612H506.417L504.011 274.161Z" fill="#117BB6"/>
</g>
</g>
</g>
<g id="Clip path group_10">
<mask id="mask9_4312_17662" style="mask-type:luminance" maskUnits="userSpaceOnUse" x="503" y="274" width="16" height="11">
<g id="clippath-9">
<path id="Vector_50" d="M518.354 274.904H503.305V284.147H518.354V274.904Z" fill="white"/>
</g>
</mask>
<g mask="url(#mask9_4312_17662)">
<g id="Group_14">
<path id="Vector_51" d="M506.434 275.607H504.008L517.002 283.441L517.654 282.368L506.434 275.607Z" fill="#117BB6"/>
</g>
</g>
</g>
<g id="Group_15">
<g id="Clip path group_11">
<mask id="mask10_4312_17662" style="mask-type:luminance" maskUnits="userSpaceOnUse" x="493" y="275" width="15" height="10">
<g id="clippath-10">
<path id="Vector_52" d="M507.169 275.705H493.102V284.352H507.169V275.705Z" fill="white"/>
</g>
</mask>
<g mask="url(#mask10_4312_17662)">
<g id="Group_16">
<path id="Vector_53" d="M504.056 276.417H504.035L504.028 276.41L493.797 282.581L494.442 283.654L504.035 277.869H506.462L504.056 276.417Z" fill="#117BB6"/>
</g>
</g>
</g>
<g id="Clip path group_12">
<mask id="mask11_4312_17662" style="mask-type:luminance" maskUnits="userSpaceOnUse" x="503" y="277" width="12" height="8">
<g id="clippath-11">
<path id="Vector_54" d="M514.904 277.166H503.305V284.333H514.904V277.166Z" fill="white"/>
</g>
</mask>
<g mask="url(#mask11_4312_17662)">
<g id="Group_17">
<path id="Vector_55" d="M506.434 277.867H504.008L513.559 283.625L514.204 282.552L506.434 277.867Z" fill="#117BB6"/>
</g>
</g>
</g>
</g>
<path id="Vector_56" d="M506.662 271.522L504.13 270L501.367 271.662L501.956 272.644L504.039 271.388L506.024 272.588L506.662 271.522Z" fill="#117BB6"/>
<path id="Vector_57" d="M504.005 272.039L507.96 274.43L507.301 275.496L503.984 273.491L500.492 275.594L499.805 274.543L504.005 272.039Z" fill="#117BB6"/>
<path id="Vector_58" d="M506.446 290.057H501.242V299.622H506.446V290.057Z" fill="#D72027"/>
<path id="Vector_59" d="M502.296 295.822C502.567 295.822 502.786 295.602 502.786 295.331C502.786 295.06 502.567 294.84 502.296 294.84C502.024 294.84 501.805 295.06 501.805 295.331C501.805 295.602 502.024 295.822 502.296 295.822Z" fill="#231F20"/>
</g>
</g>
<g id="Roofing System">
<g id="Content_2">
<text id="7-Part Solar Roofing System" fill="#002E5D" xml:space="preserve" style="white-space: pre" font-family="Poppins" font-size="14" font-weight="600" letter-spacing="0.0112em"><tspan x="528" y="285.4">7-Part Solar Roofing System</tspan></text>
<text id="Enjoy peace of mind with a roof that is built to last and is trusted by millions." fill="#002E5D" xml:space="preserve" style="white-space: pre" font-family="Poppins" font-size="12" letter-spacing="0.0112em"><tspan x="528" y="304.2">Enjoy peace of mind with a roof </tspan><tspan x="528" y="322.2">that is built to last and is </tspan><tspan x="528" y="340.2">trusted by millions.</tspan></text>
</g>
</g>
</g>
<g id="4">
<g id="Illustration_Monitor">
<g id="Vector_60">
<path d="M493.29 389.821C493.29 387.234 495.228 385.107 497.71 384.857V386.869C496.316 387.107 495.254 388.338 495.254 389.821C495.254 390.467 495.456 391.066 495.799 391.555L494.399 392.978C493.706 392.118 493.29 391.019 493.29 389.821Z" fill="#D71920"/>
<path d="M496.494 392.26L495.093 393.683C495.94 394.387 497.022 394.809 498.201 394.809C499.38 394.809 500.462 394.387 501.309 393.683L499.908 392.26C499.427 392.609 498.837 392.814 498.201 392.814C497.565 392.814 496.975 392.609 496.494 392.26Z" fill="#D71920"/>
<path d="M500.603 391.555L502.003 392.978C502.696 392.118 503.112 391.019 503.112 389.821C503.112 387.234 501.174 385.107 498.692 384.857V386.869C500.085 387.107 501.147 388.338 501.147 389.821C501.147 390.467 500.946 391.066 500.603 391.555Z" fill="#D71920"/>
<path fill-rule="evenodd" clip-rule="evenodd" d="M497.823 384.73V386.966L497.729 386.982C496.389 387.211 495.368 388.394 495.368 389.821C495.368 390.442 495.562 391.018 495.892 391.488L495.947 391.567L494.39 393.149L494.311 393.05C493.602 392.171 493.177 391.046 493.177 389.821C493.177 387.175 495.159 384.999 497.699 384.742L497.823 384.73ZM498.579 384.73L498.703 384.742C501.242 384.999 503.225 387.175 503.225 389.821C503.225 391.046 502.8 392.171 502.091 393.05L502.012 393.149L500.455 391.567L500.51 391.488C500.84 391.018 501.034 390.442 501.034 389.821C501.034 388.394 500.013 387.211 498.673 386.982L498.579 386.966V384.73ZM497.596 384.985C495.233 385.287 493.404 387.337 493.404 389.821C493.404 390.945 493.778 391.981 494.408 392.805L495.652 391.541C495.329 391.049 495.141 390.457 495.141 389.821C495.141 388.314 496.196 387.058 497.596 386.773V384.985ZM498.805 384.985V386.773C500.206 387.058 501.261 388.314 501.261 389.821C501.261 390.457 501.072 391.049 500.749 391.541L501.994 392.805C502.623 391.981 502.998 390.945 502.998 389.821C502.998 387.337 501.169 385.287 498.805 384.985ZM496.481 392.11L496.56 392.167C497.023 392.502 497.589 392.699 498.201 392.699C498.813 392.699 499.379 392.502 499.842 392.167L499.921 392.11L501.477 393.692L501.381 393.772C500.515 394.492 499.407 394.924 498.201 394.924C496.994 394.924 495.887 394.492 495.021 393.772L494.924 393.692L496.481 392.11ZM496.507 392.409L495.263 393.673C496.075 394.313 497.094 394.694 498.201 394.694C499.308 394.694 500.327 394.313 501.139 393.673L499.895 392.409C499.41 392.737 498.827 392.929 498.201 392.929C497.575 392.929 496.992 392.737 496.507 392.409Z" fill="#101820"/>
<path d="M505.79 388.838H508.022V392.819H505.79V388.838Z" fill="#002E5D"/>
<path d="M505.79 393.814H508.022V394.809H505.79V393.814Z" fill="#002E5D"/>
<path d="M509.138 386.847H511.371V392.819H509.138V386.847Z" fill="#002E5D"/>
<path d="M512.487 384.857H514.719V392.819H512.487V384.857Z" fill="#002E5D"/>
<path d="M509.138 393.814H511.371V394.809H509.138V393.814Z" fill="#002E5D"/>
<path d="M512.487 393.814H514.719V394.809H512.487V393.814Z" fill="#002E5D"/>
<path fill-rule="evenodd" clip-rule="evenodd" d="M512.373 384.742H514.832V392.934H512.373V384.742ZM512.6 384.972V392.704H514.605V384.972H512.6ZM509.025 386.732H511.484V392.934H509.025V386.732ZM509.252 386.962V392.704H511.257V386.962H509.252ZM505.677 388.723H508.136V392.934H505.677V388.723ZM505.904 388.953V392.704H507.909V388.953H505.904ZM505.677 393.699H508.136V394.924H505.677V393.699ZM505.904 393.929V394.694H507.909V393.929H505.904ZM509.025 393.699H511.484V394.924H509.025V393.699ZM509.252 393.929V394.694H511.257V393.929H509.252ZM512.373 393.699H514.832V394.924H512.373V393.699ZM512.6 393.929V394.694H514.605V393.929H512.6Z" fill="#101820"/>
<path fill-rule="evenodd" clip-rule="evenodd" d="M489.719 382.143H518.29V399.514H506.862V402.409L509.719 402.409V403.857H498.29V402.409L501.147 402.409V399.514H489.719V382.143ZM491.147 383.59H516.862V396.619H491.147V383.59ZM504.004 398.971C504.399 398.971 504.719 398.647 504.719 398.247C504.719 397.848 504.399 397.524 504.004 397.524C503.61 397.524 503.29 397.848 503.29 398.247C503.29 398.647 503.61 398.971 504.004 398.971Z" fill="#D9D9D6"/>
<path fill-rule="evenodd" clip-rule="evenodd" d="M501.147 402.409L498.29 402.409V403.857H509.719V402.409L506.862 402.409V399.514H518.29V382.143H489.719V399.514H501.147V402.409ZM490.165 399.062H501.594V402.862L498.737 402.862V403.404H509.272V402.862L506.415 402.862V399.062H517.844V382.595H490.165V399.062ZM517.308 383.138V397.071H504.004H490.701V383.138H517.308ZM504.004 397.071C504.646 397.071 505.165 397.598 505.165 398.247C505.165 398.897 504.646 399.424 504.004 399.424C503.363 399.424 502.844 398.897 502.844 398.247C502.844 397.598 503.363 397.071 504.004 397.071ZM491.147 383.59H516.862V396.619H491.147V383.59ZM504.719 398.247C504.719 398.647 504.399 398.971 504.004 398.971C503.61 398.971 503.29 398.647 503.29 398.247C503.29 397.848 503.61 397.524 504.004 397.524C504.399 397.524 504.719 397.848 504.719 398.247Z" fill="#101820"/>
</g>
</g>
<g id="Monitoring Energy">
<text id="Energy Production Data" fill="#002E5D" xml:space="preserve" style="white-space: pre" font-family="Poppins" font-size="14" font-weight="600" letter-spacing="0.0112em"><tspan x="528" y="392.4">Energy Production Data </tspan></text>
<text id="See how much energy your Solar Roof is producing anytime, anywhere." fill="#002E5D" xml:space="preserve" style="white-space: pre" font-family="Poppins" font-size="12" letter-spacing="0.0112em"><tspan x="528" y="411.2">See how much energy your </tspan><tspan x="528" y="429.2">Solar Roof is producing </tspan><tspan x="528" y="447.2">anytime, anywhere.</tspan></text>
</g>
</g>
</g>
</g>
</g>
</svg>