<svg width="792" height="612" viewBox="0 0 792 612" fill="none" xmlns="http://www.w3.org/2000/svg">
  <rect width="296" height="397" transform="translate(472 93)" fill="#F1F2F2"/>
  <text id="Heading" fill="#002E5D" xml:space="preserve" style="white-space: pre" font-family="Poppins" font-size="20" font-weight="600" letter-spacing="0.0112em"><tspan x="488" y="123">What you get</tspan></text>
  <g id="Content">
    <g id="Description">
      <g id="3">
        <g id="ENERGY_Icon_SolarHouse_FullColor_New">
          <g id="Icon/ medal">
            <g id="Asset 4 2">
              <g id="Layer 1">
                <g id="Group">
                  <g id="Group_2">
                    <path id="Vector" d="M508.129 146.293H499.015L491.945 153.479V163.524H516.365V154.705L508.129 146.293Z" fill="white"/>
                    <g id="Group_3">
                      <path id="Vector_2" d="M507.683 154.736L499.508 146.309L509.207 146.184L517.281 154.789L507.683 154.736Z" fill="#A9ABAC"/>
                      <path id="Vector_3" d="M517.281 154.721H507.512L499.508 146.309H509.277L517.281 154.721Z" stroke="#000006" stroke-width="0.615944" stroke-miterlimit="10"/>
                      <path id="Vector_4" d="M501.65 155.102H496.766V163.293H501.65V155.102Z" fill="#D71920"/>
                      <path id="Vector_5" d="M491.943 153.479V154.729H490.727L499.014 146.215L491.943 153.479ZM491.943 153.479V163.54H516.363V154.722" stroke="#000006" stroke-width="0.615944" stroke-miterlimit="10"/>
                      <path id="Vector_6" d="M513.986 156.555H507.609V161.167H513.986V156.555Z" fill="#A9ABAC" stroke="#000006" stroke-width="0.615944" stroke-miterlimit="10"/>
                      <path id="Vector_7" d="M510.867 156.414V161.163" stroke="#000006" stroke-width="0.615944" stroke-miterlimit="10"/>
                    </g>
                    <path id="Vector_8" d="M490.984 154.466L491.709 153.742H491.945V154.729L490.984 154.79V154.466Z" fill="#000006"/>
                  </g>
                  <path id="Vector_9" d="M498.254 159.332H497.562V160.024H498.254V159.332Z" fill="#000006"/>
                </g>
                <g id="Group_4">
                  <path id="Vector_10" d="M514.232 153.088L507.617 153.172L502.312 147.632L509.042 147.625L514.232 153.088Z" fill="white"/>
                  <path id="Vector_11" d="M504.695 150.148H511.53" stroke="#0F7BB6" stroke-width="0.175984" stroke-miterlimit="10"/>
                  <path id="Vector_12" d="M504.219 149.645H511.023" stroke="#0F7BB6" stroke-width="0.175984" stroke-miterlimit="10"/>
                  <path id="Vector_13" d="M503.734 149.141H510.543" stroke="#0F7BB6" stroke-width="0.175984" stroke-miterlimit="10"/>
                  <path id="Vector_14" d="M503.258 148.633H510.07" stroke="#0F7BB6" stroke-width="0.175984" stroke-miterlimit="10"/>
                  <path id="Vector_15" d="M502.781 148.133H509.599" stroke="#0F7BB6" stroke-width="0.175984" stroke-miterlimit="10"/>
                  <path id="Vector_16" d="M506.234 151.66H512.946" stroke="#0F7BB6" stroke-width="0.175984" stroke-miterlimit="10"/>
                  <path id="Vector_17" d="M505.75 151.156H512.442" stroke="#0F7BB6" stroke-width="0.175984" stroke-miterlimit="10"/>
                  <path id="Vector_18" d="M507.188 153.172H514.516" stroke="#0F7BB6" stroke-width="0.175984" stroke-miterlimit="10"/>
                  <path id="Vector_19" d="M507.188 152.668H513.926" stroke="#0F7BB6" stroke-width="0.175984" stroke-miterlimit="10"/>
                  <path id="Vector_20" d="M506.711 152.164H513.43" stroke="#0F7BB6" stroke-width="0.175984" stroke-miterlimit="10"/>
                  <path id="Vector_21" d="M505.273 150.652H511.971" stroke="#0F7BB6" stroke-width="0.175984" stroke-miterlimit="10"/>
                  <path id="Vector_22" d="M506.812 147.52L512.255 153.247" stroke="#0F7BB6" stroke-width="0.351968" stroke-miterlimit="10"/>
                  <path id="Vector_23" d="M509.102 147.605L514.52 153.309" stroke="#0F7BB6" stroke-width="0.175984" stroke-miterlimit="10"/>
                  <path id="Vector_24" d="M504.508 147.52L509.95 153.247" stroke="#0F7BB6" stroke-width="0.351968" stroke-miterlimit="10"/>
                  <path id="Vector_25" d="M502.312 147.547L507.725 153.243" stroke="#0F7BB6" stroke-width="0.351968" stroke-miterlimit="10"/>
                  <path id="Vector_26" d="M501.977 147.609H509.371" stroke="#0F7BB6" stroke-width="0.175984" stroke-miterlimit="10"/>
                  <path id="Vector_27" d="M507.227 153.328H514.64" stroke="#A9ABAC" stroke-width="0.175984" stroke-miterlimit="10"/>
                  <path id="Vector_28" d="M501.797 147.414H509.452" stroke="#A9ABAC" stroke-width="0.263976" stroke-miterlimit="10"/>
                  <path id="Vector_29" d="M509.109 147.391L514.704 153.279" stroke="#A9ABAC" stroke-width="0.175984" stroke-miterlimit="10"/>
                  <path id="Vector_30" d="M501.586 147.301L507.569 153.587" stroke="#A9ABAC" stroke-width="0.351968" stroke-miterlimit="10"/>
                </g>
              </g>
            </g>
          </g>
        </g>
        <g id="Built-In Energy Shingles">
          <g id="Energy shingles">
            <text id="7.12 kW Timberline Solar ES" fill="#002E5D" xml:space="preserve" style="white-space: pre" font-family="Poppins" font-size="12" font-weight="600" letter-spacing="0.0112em"><tspan x="528" y="153.7">7.12 kW Timberline Solar ES</tspan></text>
            <text id="Add value to your home with a roof that reliably reduces your energy bills." fill="#002E5D" xml:space="preserve" style="white-space: pre" font-family="Poppins" font-size="10" letter-spacing="0.0112em"><tspan x="528" y="171">Add value to your home with a roof that </tspan>
              <tspan x="528" y="186">reliably reduces your energy bills.</tspan></text>
          </g>
        </g>
      </g>
      <g id="7-part">
        <g id="House Icon_ New">
          <g id="Layer 1_2">
            <path id="Vector_31" d="M503.196 241.395L494.367 247.299V260.287H513.084V247.762" fill="white"/>
            <g id="Clip path group">
              <mask id="mask0_5068_76927" style="mask-type:luminance" maskUnits="userSpaceOnUse" x="493" y="247" width="22" height="15">
                <g id="clippath">
                  <path id="Vector_32" d="M514.512 247.766H493.215V262.001H514.512V247.766Z" fill="white"/>
                </g>
              </mask>
              <g mask="url(#mask0_5068_76927)">
                <g id="Group_5">
                  <path id="Vector_33" d="M495.73 248.469H493.914V261.295H513.809V259.591H495.73V248.469Z" fill="#626367"/>
                </g>
              </g>
            </g>
            <g id="Clip path group_2">
              <mask id="mask1_5068_76927" style="mask-type:luminance" maskUnits="userSpaceOnUse" x="503" y="241" width="16" height="20">
                <g id="clippath-1">
                  <path id="Vector_34" d="M518.038 241.398H503.199V260.29H518.038V241.398Z" fill="white"/>
                </g>
              </mask>
              <g mask="url(#mask1_5068_76927)">
                <g id="Group_6">
                  <path id="Vector_35" d="M507.503 242.098H503.898L512.033 247.441V259.587H513.793V248.465H517.335L507.503 242.098Z" fill="#626367"/>
                </g>
              </g>
            </g>
            <g id="Clip path group_3">
              <mask id="mask2_5068_76927" style="mask-type:luminance" maskUnits="userSpaceOnUse" x="489" y="239" width="20" height="12">
                <g id="clippath-2">
                  <path id="Vector_36" d="M508.199 239.125H489.672V250.983H508.199V239.125Z" fill="white"/>
                </g>
              </mask>
              <g mask="url(#mask2_5068_76927)">
                <g id="Group_7">
                  <path id="Vector_37" d="M503.983 239.828L490.371 248.58L491.276 250.284L493.891 248.468H495.708V247.444L503.891 242.1H507.496L503.983 239.828Z" fill="#626367"/>
                </g>
              </g>
            </g>
            <g id="Clip path group_4">
              <mask id="mask3_5068_76927" style="mask-type:luminance" maskUnits="userSpaceOnUse" x="513" y="247" width="6" height="4">
                <g id="clippath-3">
                  <path id="Vector_38" d="M518.162 247.766H513.078V250.76H518.162V247.766Z" fill="white"/>
                </g>
              </mask>
              <g mask="url(#mask3_5068_76927)">
                <g id="Group_8">
                  <path id="Vector_39" d="M517.33 248.469H513.789L516.286 250.061L517.464 248.553L517.33 248.469Z" fill="#626367"/>
                </g>
              </g>
            </g>
            <g id="Clip path group_5">
              <mask id="mask4_5068_76927" style="mask-type:luminance" maskUnits="userSpaceOnUse" x="489" y="242" width="9" height="7">
                <g id="clippath-4">
                  <path id="Vector_40" d="M497.181 242.445H489.859V248.329H497.181V242.445Z" fill="white"/>
                </g>
              </mask>
              <g mask="url(#mask4_5068_76927)">
                <g id="Group_9">
                  <path id="Vector_41" d="M495.838 243.145L490.559 246.68L491.194 247.63L496.474 244.095L495.838 243.145Z" fill="#117BB6"/>
                </g>
              </g>
            </g>
            <g id="Clip path group_6">
              <mask id="mask5_5068_76927" style="mask-type:luminance" maskUnits="userSpaceOnUse" x="510" y="242" width="8" height="7">
                <g id="clippath-5">
                  <path id="Vector_42" d="M517.931 242.445H510.609V248.329H517.931V242.445Z" fill="white"/>
                </g>
              </mask>
              <g mask="url(#mask5_5068_76927)">
                <g id="Group_10">
                  <path id="Vector_43" d="M511.952 243.144L511.316 244.094L516.597 247.627L517.232 246.677L511.952 243.144Z" fill="#117BB6"/>
                </g>
              </g>
            </g>
            <g id="Clip path group_7">
              <mask id="mask6_5068_76927" style="mask-type:luminance" maskUnits="userSpaceOnUse" x="489" y="242" width="6" height="5">
                <g id="clippath-6">
                  <path id="Vector_44" d="M494.352 242.379H489.906V246.341H494.352V242.379Z" fill="white"/>
                </g>
              </mask>
              <g mask="url(#mask6_5068_76927)">
                <g id="Group_11">
                  <path id="Vector_45" d="M493.024 243.084L490.617 244.695L491.253 245.645L493.66 244.033L493.024 243.084Z" fill="#117BB6"/>
                </g>
              </g>
            </g>
            <g id="Clip path group_8">
              <mask id="mask7_5068_76927" style="mask-type:luminance" maskUnits="userSpaceOnUse" x="513" y="242" width="5" height="5">
                <g id="clippath-7">
                  <path id="Vector_46" d="M517.982 242.379H513.508V246.383H517.982V242.379Z" fill="white"/>
                </g>
              </mask>
              <g mask="url(#mask7_5068_76927)">
                <g id="Group_12">
                  <path id="Vector_47" d="M514.871 243.08L514.207 244.07L516.613 245.682L517.277 244.692L514.871 243.08Z" fill="#117BB6"/>
                </g>
              </g>
            </g>
            <g id="Clip path group_9">
              <mask id="mask8_5068_76927" style="mask-type:luminance" maskUnits="userSpaceOnUse" x="489" y="233" width="19" height="12">
                <g id="clippath-8">
                  <path id="Vector_48" d="M507.124 233.441H489.648V244.143H507.124V233.441Z" fill="white"/>
                </g>
              </mask>
              <g mask="url(#mask8_5068_76927)">
                <g id="Group_13">
                  <path id="Vector_49" d="M504.015 234.159H503.994L503.987 234.145L490.348 242.37L490.993 243.443L503.994 235.61H506.421L504.015 234.159Z" fill="#117BB6"/>
                </g>
              </g>
            </g>
            <g id="Clip path group_10">
              <mask id="mask9_5068_76927" style="mask-type:luminance" maskUnits="userSpaceOnUse" x="503" y="234" width="16" height="11">
                <g id="clippath-9">
                  <path id="Vector_50" d="M518.35 234.902H503.301V244.145H518.35V234.902Z" fill="white"/>
                </g>
              </mask>
              <g mask="url(#mask9_5068_76927)">
                <g id="Group_14">
                  <path id="Vector_51" d="M506.434 235.605H504.008L517.002 243.439L517.654 242.366L506.434 235.605Z" fill="#117BB6"/>
                </g>
              </g>
            </g>
            <g id="Group_15">
              <g id="Clip path group_11">
                <mask id="mask10_5068_76927" style="mask-type:luminance" maskUnits="userSpaceOnUse" x="493" y="235" width="15" height="10">
                  <g id="clippath-10">
                    <path id="Vector_52" d="M507.169 235.703H493.102V244.35H507.169V235.703Z" fill="white"/>
                  </g>
                </mask>
                <g mask="url(#mask10_5068_76927)">
                  <g id="Group_16">
                    <path id="Vector_53" d="M504.06 236.417H504.039L504.032 236.41L493.801 242.581L494.446 243.654L504.039 237.869H506.466L504.06 236.417Z" fill="#117BB6"/>
                  </g>
                </g>
              </g>
              <g id="Clip path group_12">
                <mask id="mask11_5068_76927" style="mask-type:luminance" maskUnits="userSpaceOnUse" x="503" y="237" width="12" height="8">
                  <g id="clippath-11">
                    <path id="Vector_54" d="M514.9 237.164H503.301V244.331H514.9V237.164Z" fill="white"/>
                  </g>
                </mask>
                <g mask="url(#mask11_5068_76927)">
                  <g id="Group_17">
                    <path id="Vector_55" d="M506.434 237.863H504.008L513.559 243.621L514.204 242.548L506.434 237.863Z" fill="#117BB6"/>
                  </g>
                </g>
              </g>  
            </g>
            <path id="Vector_56" d="M506.658 231.522L504.126 230L501.363 231.662L501.952 232.644L504.035 231.388L506.02 232.588L506.658 231.522Z" fill="#117BB6"/>
            <path id="Vector_57" d="M504.005 232.039L507.96 234.43L507.301 235.496L503.984 233.491L500.492 235.594L499.805 234.543L504.005 232.039Z" fill="#117BB6"/>
            <path id="Vector_58" d="M506.446 250.055H501.242V259.62H506.446V250.055Z" fill="#D72027"/>
            <path id="Vector_59" d="M502.296 255.822C502.567 255.822 502.786 255.602 502.786 255.331C502.786 255.06 502.567 254.84 502.296 254.84C502.024 254.84 501.805 255.06 501.805 255.331C501.805 255.602 502.024 255.822 502.296 255.822Z" fill="#231F20"/>
          </g>
        </g>
        <g id="Roofing System">
          <g id="Content_2">
            <text id="7-Part Solar Roofing System" fill="#002E5D" xml:space="preserve" style="white-space: pre" font-family="Poppins" font-size="12" font-weight="600" letter-spacing="0.0112em"><tspan x="528" y="244.7">7-Part Solar Roofing System</tspan></text>
            <text id="Enjoy peace of mind with a roof that is built to last and is trusted by millions." fill="#002E5D" xml:space="preserve" style="white-space: pre" font-family="Poppins" font-size="10" letter-spacing="0.0112em"><tspan x="528" y="262">Enjoy peace of mind with a roof that is </tspan>
              <tspan x="528" y="277">built to last and is trusted by millions.</tspan></text>
          </g>
        </g>
      </g>
      <g id="4">
        <g id="Illustration_Monitor">
          <g id="Vector_60">
            <path d="M493.29 333.819C493.29 331.232 495.228 329.105 497.71 328.855V330.867C496.316 331.105 495.254 332.336 495.254 333.819C495.254 334.465 495.456 335.064 495.799 335.553L494.399 336.976C493.706 336.116 493.29 335.017 493.29 333.819Z" fill="#D71920"/>
            <path d="M496.494 336.259L495.093 337.681C495.94 338.385 497.022 338.807 498.201 338.807C499.38 338.807 500.462 338.385 501.309 337.681L499.908 336.259C499.427 336.607 498.837 336.812 498.201 336.812C497.565 336.812 496.975 336.607 496.494 336.259Z" fill="#D71920"/>
            <path d="M500.603 335.553L502.003 336.976C502.696 336.116 503.112 335.017 503.112 333.819C503.112 331.232 501.174 329.105 498.692 328.855V330.867C500.085 331.105 501.147 332.336 501.147 333.819C501.147 334.465 500.946 335.064 500.603 335.553Z" fill="#D71920"/>
            <path fill-rule="evenodd" clip-rule="evenodd"
                  d="M497.823 328.728V330.964L497.729 330.98C496.389 331.209 495.368 332.392 495.368 333.819C495.368 334.44 495.562 335.016 495.892 335.486L495.947 335.565L494.39 337.147L494.311 337.048C493.602 336.169 493.177 335.044 493.177 333.819C493.177 331.173 495.159 328.997 497.699 328.74L497.823 328.728ZM498.579 328.728L498.703 328.74C501.242 328.997 503.225 331.173 503.225 333.819C503.225 335.044 502.8 336.169 502.091 337.048L502.012 337.147L500.455 335.565L500.51 335.486C500.84 335.016 501.034 334.44 501.034 333.819C501.034 332.392 500.013 331.209 498.673 330.98L498.579 330.964V328.728ZM497.596 328.983C495.233 329.285 493.404 331.335 493.404 333.819C493.404 334.943 493.778 335.979 494.408 336.803L495.652 335.539C495.329 335.047 495.141 334.455 495.141 333.819C495.141 332.312 496.196 331.056 497.596 330.771V328.983ZM498.805 328.983V330.771C500.206 331.056 501.261 332.312 501.261 333.819C501.261 334.455 501.072 335.047 500.749 335.539L501.994 336.803C502.623 335.979 502.998 334.943 502.998 333.819C502.998 331.335 501.169 329.285 498.805 328.983ZM496.481 336.108L496.56 336.165C497.023 336.5 497.589 336.697 498.201 336.697C498.813 336.697 499.379 336.5 499.842 336.165L499.921 336.108L501.477 337.69L501.381 337.77C500.515 338.49 499.407 338.922 498.201 338.922C496.994 338.922 495.887 338.49 495.021 337.77L494.924 337.69L496.481 336.108ZM496.507 336.407L495.263 337.672C496.075 338.311 497.094 338.692 498.201 338.692C499.308 338.692 500.327 338.311 501.139 337.672L499.895 336.407C499.41 336.735 498.827 336.927 498.201 336.927C497.575 336.927 496.992 336.735 496.507 336.407Z"
                  fill="#101820"/>
            <path d="M505.79 332.836H508.022V336.817H505.79V332.836Z" fill="#002E5D"/>
            <path d="M505.79 337.812H508.022V338.807H505.79V337.812Z" fill="#002E5D"/>
            <path d="M509.138 330.845H511.371V336.817H509.138V330.845Z" fill="#002E5D"/>
            <path d="M512.487 328.855H514.719V336.817H512.487V328.855Z" fill="#002E5D"/>
            <path d="M509.138 337.812H511.371V338.807H509.138V337.812Z" fill="#002E5D"/>
            <path d="M512.487 337.812H514.719V338.807H512.487V337.812Z" fill="#002E5D"/>
            <path fill-rule="evenodd" clip-rule="evenodd"
                  d="M512.373 328.74H514.832V336.932H512.373V328.74ZM512.6 328.97V336.702H514.605V328.97H512.6ZM509.025 330.731H511.484V336.932H509.025V330.731ZM509.252 330.96V336.702H511.257V330.96H509.252ZM505.677 332.721H508.136V336.932H505.677V332.721ZM505.904 332.951V336.702H507.909V332.951H505.904ZM505.677 337.697H508.136V338.922H505.677V337.697ZM505.904 337.927V338.692H507.909V337.927H505.904ZM509.025 337.697H511.484V338.922H509.025V337.697ZM509.252 337.927V338.692H511.257V337.927H509.252ZM512.373 337.697H514.832V338.922H512.373V337.697ZM512.6 337.927V338.692H514.605V337.927H512.6Z"
                  fill="#101820"/>
            <path fill-rule="evenodd" clip-rule="evenodd"
                  d="M489.719 326.141H518.29V343.512H506.862V346.407L509.719 346.407V347.855H498.29V346.407L501.147 346.407V343.512H489.719V326.141ZM491.147 327.588H516.862V340.617H491.147V327.588ZM504.004 342.969C504.399 342.969 504.719 342.645 504.719 342.245C504.719 341.846 504.399 341.522 504.004 341.522C503.61 341.522 503.29 341.846 503.29 342.245C503.29 342.645 503.61 342.969 504.004 342.969Z"
                  fill="#D9D9D6"/>
            <path fill-rule="evenodd" clip-rule="evenodd"
                  d="M501.147 346.407L498.29 346.407V347.855H509.719V346.407L506.862 346.407V343.512H518.29V326.141H489.719V343.512H501.147V346.407ZM490.165 343.06H501.594V346.86L498.737 346.86V347.403H509.272V346.86L506.415 346.86V343.06H517.844V326.593H490.165V343.06ZM517.308 327.136V341.069H504.004H490.701V327.136H517.308ZM504.004 341.069C504.646 341.069 505.165 341.596 505.165 342.245C505.165 342.895 504.646 343.422 504.004 343.422C503.363 343.422 502.844 342.895 502.844 342.245C502.844 341.596 503.363 341.069 504.004 341.069ZM491.147 327.588H516.862V340.617H491.147V327.588ZM504.719 342.245C504.719 342.645 504.399 342.969 504.004 342.969C503.61 342.969 503.29 342.645 503.29 342.245C503.29 341.846 503.61 341.522 504.004 341.522C504.399 341.522 504.719 341.846 504.719 342.245Z"
                  fill="#101820"/>
          </g>
        </g>
        <g id="Monitoring Energy">
          <text id="Energy Production Data" fill="#002E5D" xml:space="preserve" style="white-space: pre" font-family="Poppins" font-size="12" font-weight="600" letter-spacing="0.0112em"><tspan x="528" y="335.7">Energy Production Data </tspan></text>
          <text id="See how much energy your Solar Roof is producing anytime, anywhere." fill="#002E5D" xml:space="preserve" style="white-space: pre" font-family="Poppins" font-size="10" letter-spacing="0.0112em"><tspan x="528" y="353">See how much energy your Solar Roof </tspan>
            <tspan x="528" y="368">is producing anytime, anywhere.</tspan></text>
        </g>
      </g>
      <g id="25 year">
        <g id="Icon_Medal">
          <g id="Vector_61">
            <path
                d="M503.998 413.366H503.9C501.579 413.389 499.358 414.282 497.708 415.857C496.058 417.431 495.107 419.563 495.057 421.801C495.008 424.039 495.863 426.209 497.441 427.85C499.02 429.491 501.199 430.475 503.517 430.594C503.644 430.6 503.772 430.602 503.9 430.604H503.998C504.435 430.604 504.872 430.573 505.304 430.512C507.531 430.187 509.548 429.063 510.953 427.366C512.357 425.668 513.046 423.522 512.881 421.356C512.716 419.189 511.709 417.163 510.062 415.682C508.416 414.201 506.25 413.374 503.998 413.366Z"
                fill="#B2B2B5"/>
            <path
                d="M510.723 427.665C509.326 429.207 507.406 430.217 505.306 430.514C504.874 430.576 504.437 430.607 504 430.607H503.902C503.774 430.607 503.646 430.607 503.519 430.597C501.196 430.479 499.014 429.49 497.436 427.842C497.381 427.785 497.327 427.724 497.275 427.665L493 439.817L497.463 439.045L500.964 443L504 432.985L507.038 442.998L510.539 439.043L515 439.817L510.723 427.665Z"
                fill="#0075B2"/>
            <path d="M503.957 428.448C507.656 428.448 510.654 425.556 510.654 421.989C510.654 418.422 507.656 415.53 503.957 415.53C500.259 415.53 497.261 418.422 497.261 421.989C497.261 425.556 500.259 428.448 503.957 428.448Z" fill="white"/>
            <path fill-rule="evenodd" clip-rule="evenodd" d="M502.88 417.835H505.738L504.31 421.184H506.76L501.86 427.093L503.289 422.76H501.246L502.88 417.835Z" fill="#FA121A"/>
            <path
                d="M503.997 430.979H503.894C503.784 430.979 503.64 430.979 503.495 430.968C501.072 430.848 498.794 429.816 497.15 428.093C495.558 426.431 494.674 424.251 494.676 421.989C494.676 419.621 495.644 417.35 497.37 415.667C499.096 413.984 501.44 413.026 503.894 413H503.997C506.468 413.003 508.837 413.951 510.584 415.636C512.331 417.322 513.314 419.607 513.317 421.991C513.316 424.147 512.512 426.232 511.051 427.864C509.59 429.497 507.57 430.569 505.359 430.885C504.907 430.948 504.452 430.979 503.997 430.979ZM503.997 413.737H503.901C501.681 413.761 499.558 414.617 497.981 416.124C496.403 417.63 495.495 419.67 495.448 421.811C495.4 423.951 496.217 426.026 497.727 427.597C499.236 429.167 501.319 430.11 503.536 430.226C503.666 430.233 503.8 430.235 503.902 430.236H503.997C504.415 430.236 504.834 430.206 505.248 430.148C507.379 429.837 509.31 428.761 510.655 427.136C511.999 425.511 512.659 423.457 512.5 421.383C512.342 419.31 511.379 417.37 509.802 415.952C508.225 414.535 506.152 413.743 503.997 413.737ZM503.954 428.817C502.554 428.817 501.185 428.416 500.021 427.666C498.857 426.916 497.949 425.849 497.414 424.602C496.878 423.354 496.738 421.981 497.011 420.656C497.284 419.332 497.958 418.115 498.948 417.16C499.938 416.205 501.2 415.555 502.573 415.291C503.946 415.028 505.369 415.163 506.663 415.68C507.956 416.197 509.062 417.072 509.84 418.195C510.618 419.318 511.033 420.638 511.033 421.989C511.031 423.799 510.285 425.535 508.957 426.815C507.63 428.095 505.831 428.815 503.954 428.817ZM503.954 415.899C502.705 415.899 501.485 416.256 500.446 416.925C499.408 417.594 498.599 418.545 498.121 419.658C497.643 420.771 497.518 421.995 497.762 423.177C498.005 424.358 498.607 425.443 499.49 426.295C500.373 427.146 501.497 427.726 502.722 427.961C503.947 428.196 505.216 428.076 506.37 427.615C507.523 427.154 508.51 426.373 509.203 425.372C509.897 424.37 510.267 423.193 510.267 421.989C510.265 420.374 509.599 418.826 508.416 417.685C507.232 416.543 505.628 415.901 503.954 415.899Z"
                fill="#03111A"/>
          </g>
        </g>
        <g id="Performance">
          <text id="25-Year Performance Guarantee" fill="#002E5D" xml:space="preserve" style="white-space: pre" font-family="Poppins" font-size="12" font-weight="600" letter-spacing="0.0112em"><tspan x="528" y="426.7">25-Year Performance Guarantee</tspan></text>
          <text id="Ensure the production of your roof with the purchase of the Solar Max Limited Warranty." fill="#002E5D" xml:space="preserve" style="white-space: pre" font-family="Poppins" font-size="10" letter-spacing="0.0112em"><tspan x="528" y="444">Ensure the production of your roof with the </tspan>
            <tspan x="528" y="459">purchase of the Solar Max Limited Warranty.</tspan></text>
        </g>
      </g>
    </g>
  </g>
</svg>
