<svg width="792" height="612" viewBox="0 0 792 612" fill="none" xmlns="http://www.w3.org/2000/svg"
     xmlns:xlink="http://www.w3.org/1999/xlink">
     <g id="What you get">
      <rect width="296" height="397" transform="translate(472 93)" fill="#F1F2F2"/>
      <text id="Heading" fill="#002E5D" xml:space="preserve" style="white-space: pre" font-family="Poppins" font-size="20" font-weight="600" letter-spacing="0.0112em"><tspan x="488" y="123">What you get</tspan></text>
      <g id="Content">
        <g id="Savings">
          <g id="Header">
            <text id="Token_25YearSavings" fill="#002E5D" xml:space="preserve" style="white-space: pre" font-family="Poppins" font-size="36" font-weight="600" letter-spacing="0.0112em"><tspan x="488" y="172.6">$27,655</tspan></text>
            <g id="Description">
              <text id="Estimated 25-Year" fill="#002E5D" xml:space="preserve" style="white-space: pre" font-family="Poppins" font-size="12" letter-spacing="0.0112em"><tspan x="641" y="157.2">Estimated 25-Year</tspan></text>
              <text id="Electric Bill Savings" fill="#002E5D" xml:space="preserve" style="white-space: pre" font-family="Poppins" font-size="12" letter-spacing="0.0112em"><tspan x="641" y="171.2">Electric Bill Savings</tspan></text>
            </g>
          </g>
          <line id="Divider" x1="488" y1="189.5" x2="752" y2="189.5" stroke="black"/>
        </g>
        <g id="Description_2">
          <g id="3">
            <g id="ENERGY_Icon_SolarHouse_FullColor_New">
              <g id="Icon/ medal">
                <g id="Asset 4 2">
                  <g id="Layer 1">
                    <g id="Group">
                      <g id="Group_2">
                        <path id="Vector" d="M508.129 221.293H499.015L491.945 228.479V238.524H516.365V229.705L508.129 221.293Z" fill="white"/>
                        <g id="Group_3">
                          <path id="Vector_2" d="M507.683 229.736L499.508 221.309L509.207 221.184L517.281 229.789L507.683 229.736Z" fill="#A9ABAC"/>
                          <path id="Vector_3" d="M517.281 229.721H507.512L499.508 221.309H509.277L517.281 229.721Z" stroke="#000006" stroke-width="0.615944" stroke-miterlimit="10"/>
                          <path id="Vector_4" d="M501.65 230.102H496.766V238.293H501.65V230.102Z" fill="#D71920"/>
                          <path id="Vector_5" d="M491.943 228.479V229.729H490.727L499.014 221.215L491.943 228.479ZM491.943 228.479V238.54H516.363V229.722" stroke="#000006" stroke-width="0.615944" stroke-miterlimit="10"/>
                          <path id="Vector_6" d="M513.986 231.553H507.609V236.165H513.986V231.553Z" fill="#A9ABAC" stroke="#000006" stroke-width="0.615944" stroke-miterlimit="10"/>
                          <path id="Vector_7" d="M510.867 231.416V236.165" stroke="#000006" stroke-width="0.615944" stroke-miterlimit="10"/>
                        </g>
                        <path id="Vector_8" d="M490.984 229.464L491.709 228.74H491.945V229.728L490.984 229.788V229.464Z" fill="#000006"/>
                      </g>
                      <path id="Vector_9" d="M498.254 234.332H497.562V235.024H498.254V234.332Z" fill="#000006"/>
                    </g>
                    <g id="Group_4">
                      <path id="Vector_10" d="M514.232 228.088L507.617 228.172L502.312 222.632L509.042 222.625L514.232 228.088Z" fill="white"/>
                      <path id="Vector_11" d="M504.695 225.148H511.53" stroke="#0F7BB6" stroke-width="0.175984" stroke-miterlimit="10"/>
                      <path id="Vector_12" d="M504.219 224.645H511.023" stroke="#0F7BB6" stroke-width="0.175984" stroke-miterlimit="10"/>
                      <path id="Vector_13" d="M503.734 224.139H510.543" stroke="#0F7BB6" stroke-width="0.175984" stroke-miterlimit="10"/>
                      <path id="Vector_14" d="M503.258 223.635H510.07" stroke="#0F7BB6" stroke-width="0.175984" stroke-miterlimit="10"/>
                      <path id="Vector_15" d="M502.781 223.131H509.599" stroke="#0F7BB6" stroke-width="0.175984" stroke-miterlimit="10"/>
                      <path id="Vector_16" d="M506.234 226.66H512.946" stroke="#0F7BB6" stroke-width="0.175984" stroke-miterlimit="10"/>
                      <path id="Vector_17" d="M505.75 226.156H512.442" stroke="#0F7BB6" stroke-width="0.175984" stroke-miterlimit="10"/>
                      <path id="Vector_18" d="M507.188 228.172H514.516" stroke="#0F7BB6" stroke-width="0.175984" stroke-miterlimit="10"/>
                      <path id="Vector_19" d="M507.188 227.668H513.926" stroke="#0F7BB6" stroke-width="0.175984" stroke-miterlimit="10"/>
                      <path id="Vector_20" d="M506.711 227.164H513.43" stroke="#0F7BB6" stroke-width="0.175984" stroke-miterlimit="10"/>
                      <path id="Vector_21" d="M505.273 225.652H511.971" stroke="#0F7BB6" stroke-width="0.175984" stroke-miterlimit="10"/>
                      <path id="Vector_22" d="M506.812 222.52L512.255 228.247" stroke="#0F7BB6" stroke-width="0.351968" stroke-miterlimit="10"/>
                      <path id="Vector_23" d="M509.102 222.605L514.52 228.309" stroke="#0F7BB6" stroke-width="0.175984" stroke-miterlimit="10"/>
                      <path id="Vector_24" d="M504.508 222.52L509.95 228.247" stroke="#0F7BB6" stroke-width="0.351968" stroke-miterlimit="10"/>
                      <path id="Vector_25" d="M502.312 222.549L507.725 228.245" stroke="#0F7BB6" stroke-width="0.351968" stroke-miterlimit="10"/>
                      <path id="Vector_26" d="M501.977 222.611H509.371" stroke="#0F7BB6" stroke-width="0.175984" stroke-miterlimit="10"/>
                      <path id="Vector_27" d="M507.227 228.328H514.64" stroke="#A9ABAC" stroke-width="0.175984" stroke-miterlimit="10"/>
                      <path id="Vector_28" d="M501.797 222.416H509.452" stroke="#A9ABAC" stroke-width="0.263976" stroke-miterlimit="10"/>
                      <path id="Vector_29" d="M509.109 222.389L514.704 228.277" stroke="#A9ABAC" stroke-width="0.175984" stroke-miterlimit="10"/>
                      <path id="Vector_30" d="M501.586 222.301L507.569 228.587" stroke="#A9ABAC" stroke-width="0.351968" stroke-miterlimit="10"/>
                    </g>
                  </g>
                </g>
              </g>
            </g>
            <g id="Built-In Energy Shingles">
              <g id="Energy shingles">
                <text id="systemSizeText" fill="#002E5D" xml:space="preserve" style="white-space: pre" font-family="Poppins" font-size="14" font-weight="600" letter-spacing="0.0112em"><tspan x="528" y="228.7">Timberline Solar ES</tspan></text>                
                <text id="Add value to your home with a roof that reliably reduces your energy bills." fill="#002E5D" xml:space="preserve" style="white-space: pre" font-family="Poppins" font-size="10" letter-spacing="0.0112em"><tspan x="528" y="246">Add value to your home with a roof that </tspan><tspan x="528" y="261">reliably reduces your energy bills.</tspan></text>
              </g>
            </g>
          </g>
          <g id="7-part">
            <g id="House Icon_ New">
              <g id="Layer 1_2">
                <path id="Vector_31" d="M503.196 292.395L494.367 298.299V311.287H513.084V298.762" fill="white"/>
                <g id="Clip path group">
                  <mask id="mask0_3969_17638" style="mask-type:luminance" maskUnits="userSpaceOnUse" x="493" y="298" width="22" height="16">
                    <g id="clippath">
                      <path id="Vector_32" d="M514.516 298.766H493.219V313.001H514.516V298.766Z" fill="white"/>
                    </g>
                  </mask>
                  <g mask="url(#mask0_3969_17638)">
                    <g id="Group_5">
                      <path id="Vector_33" d="M495.73 299.469H493.914V312.295H513.809V310.591H495.73V299.469Z" fill="#626367"/>
                    </g>
                  </g>
                </g>
                <g id="Clip path group_2">
                  <mask id="mask1_3969_17638" style="mask-type:luminance" maskUnits="userSpaceOnUse" x="503" y="292" width="16" height="20">
                    <g id="clippath-1">
                      <path id="Vector_34" d="M518.034 292.4H503.195V311.292H518.034V292.4Z" fill="white"/>
                    </g>
                  </mask>
                  <g mask="url(#mask1_3969_17638)">
                    <g id="Group_6">
                      <path id="Vector_35" d="M507.495 293.102H503.891L512.025 298.445V310.591H513.785V299.469H517.327L507.495 293.102Z" fill="#626367"/>
                    </g>
                  </g>
                </g>
                <g id="Clip path group_3">
                  <mask id="mask2_3969_17638" style="mask-type:luminance" maskUnits="userSpaceOnUse" x="489" y="290" width="20" height="12">
                    <g id="clippath-2">
                      <path id="Vector_36" d="M508.199 290.125H489.672V301.983H508.199V290.125Z" fill="white"/>
                    </g>
                  </mask>
                  <g mask="url(#mask2_3969_17638)">
                    <g id="Group_7">
                      <path id="Vector_37" d="M503.979 290.828L490.367 299.58L491.272 301.284L493.888 299.468H495.704V298.444L503.888 293.1H507.492L503.979 290.828Z" fill="#626367"/>
                    </g>
                  </g>
                </g>
                <g id="Clip path group_4">
                  <mask id="mask3_3969_17638" style="mask-type:luminance" maskUnits="userSpaceOnUse" x="513" y="298" width="6" height="4">
                    <g id="clippath-3">
                      <path id="Vector_38" d="M518.162 298.766H513.078V301.76H518.162V298.766Z" fill="white"/>
                    </g>
                  </mask>
                  <g mask="url(#mask3_3969_17638)">
                    <g id="Group_8">
                      <path id="Vector_39" d="M517.33 299.469H513.789L516.286 301.061L517.464 299.553L517.33 299.469Z" fill="#626367"/>
                    </g>
                  </g>
                </g>
                <g id="Clip path group_5">
                  <mask id="mask4_3969_17638" style="mask-type:luminance" maskUnits="userSpaceOnUse" x="489" y="293" width="9" height="7">
                    <g id="clippath-4">
                      <path id="Vector_40" d="M497.181 293.445H489.859V299.329H497.181V293.445Z" fill="white"/>
                    </g>
                  </mask>
                  <g mask="url(#mask4_3969_17638)">
                    <g id="Group_9">
                      <path id="Vector_41" d="M495.834 294.143L490.555 297.678L491.191 298.628L496.47 295.093L495.834 294.143Z" fill="#117BB6"/>
                    </g>
                  </g>
                </g>
                <g id="Clip path group_6">
                  <mask id="mask5_3969_17638" style="mask-type:luminance" maskUnits="userSpaceOnUse" x="510" y="293" width="8" height="7">
                    <g id="clippath-5">
                      <path id="Vector_42" d="M517.931 293.445H510.609V299.329H517.931V293.445Z" fill="white"/>
                    </g>
                  </mask>
                  <g mask="url(#mask5_3969_17638)">
                    <g id="Group_10">
                      <path id="Vector_43" d="M511.948 294.146L511.312 295.096L516.593 298.629L517.228 297.679L511.948 294.146Z" fill="#117BB6"/>
                    </g>
                  </g>
                </g>
                <g id="Clip path group_7">
                  <mask id="mask6_3969_17638" style="mask-type:luminance" maskUnits="userSpaceOnUse" x="489" y="293" width="6" height="5">
                    <g id="clippath-6">
                      <path id="Vector_44" d="M494.352 293.379H489.906V297.341H494.352V293.379Z" fill="white"/>
                    </g>
                  </mask>
                  <g mask="url(#mask6_3969_17638)">
                    <g id="Group_11">
                      <path id="Vector_45" d="M493.024 294.082L490.617 295.693L491.253 296.643L493.66 295.032L493.024 294.082Z" fill="#117BB6"/>
                    </g>
                  </g>
                </g>
                <g id="Clip path group_8">
                  <mask id="mask7_3969_17638" style="mask-type:luminance" maskUnits="userSpaceOnUse" x="513" y="293" width="5" height="5">
                    <g id="clippath-7">
                      <path id="Vector_46" d="M517.982 293.379H513.508V297.383H517.982V293.379Z" fill="white"/>
                    </g>
                  </mask>
                  <g mask="url(#mask7_3969_17638)">
                    <g id="Group_12">
                      <path id="Vector_47" d="M514.867 294.08L514.203 295.07L516.609 296.682L517.273 295.692L514.867 294.08Z" fill="#117BB6"/>
                    </g>
                  </g>
                </g>
                <g id="Clip path group_9">
                  <mask id="mask8_3969_17638" style="mask-type:luminance" maskUnits="userSpaceOnUse" x="489" y="284" width="19" height="12">
                    <g id="clippath-8">
                      <path id="Vector_48" d="M507.124 284.443H489.648V295.145H507.124V284.443Z" fill="white"/>
                    </g>
                  </mask>
                  <g mask="url(#mask8_3969_17638)">
                    <g id="Group_13">
                      <path id="Vector_49" d="M504.011 285.161H503.99L503.983 285.146L490.344 293.372L490.989 294.445L503.99 286.612H506.417L504.011 285.161Z" fill="#117BB6"/>
                    </g>
                  </g>
                </g>
                <g id="Clip path group_10">
                  <mask id="mask9_3969_17638" style="mask-type:luminance" maskUnits="userSpaceOnUse" x="503" y="285" width="16" height="11">
                    <g id="clippath-9">
                      <path id="Vector_50" d="M518.354 285.904H503.305V295.147H518.354V285.904Z" fill="white"/>
                    </g>
                  </mask>
                  <g mask="url(#mask9_3969_17638)">
                    <g id="Group_14">
                      <path id="Vector_51" d="M506.434 286.607H504.008L517.002 294.441L517.654 293.368L506.434 286.607Z" fill="#117BB6"/>
                    </g>
                  </g>
                </g>
                <g id="Group_15">
                  <g id="Clip path group_11">
                    <mask id="mask10_3969_17638" style="mask-type:luminance" maskUnits="userSpaceOnUse" x="493" y="286" width="15" height="10">
                      <g id="clippath-10">
                        <path id="Vector_52" d="M507.169 286.705H493.102V295.352H507.169V286.705Z" fill="white"/>
                      </g>
                    </mask>
                    <g mask="url(#mask10_3969_17638)">
                      <g id="Group_16">
                        <path id="Vector_53" d="M504.056 287.417H504.035L504.028 287.41L493.797 293.581L494.442 294.654L504.035 288.869H506.462L504.056 287.417Z" fill="#117BB6"/>
                      </g>
                    </g>
                  </g>
                  <g id="Clip path group_12">
                    <mask id="mask11_3969_17638" style="mask-type:luminance" maskUnits="userSpaceOnUse" x="503" y="288" width="12" height="8">
                      <g id="clippath-11">
                        <path id="Vector_54" d="M514.904 288.166H503.305V295.333H514.904V288.166Z" fill="white"/>
                      </g>
                    </mask>
                    <g mask="url(#mask11_3969_17638)">
                      <g id="Group_17">
                        <path id="Vector_55" d="M506.434 288.867H504.008L513.559 294.625L514.204 293.552L506.434 288.867Z" fill="#117BB6"/>
                      </g>
                    </g>
                  </g>
                </g>
                <path id="Vector_56" d="M506.662 282.522L504.13 281L501.367 282.662L501.956 283.644L504.039 282.388L506.024 283.588L506.662 282.522Z" fill="#117BB6"/>
                <path id="Vector_57" d="M504.005 283.039L507.96 285.43L507.301 286.496L503.984 284.491L500.492 286.594L499.805 285.543L504.005 283.039Z" fill="#117BB6"/>
                <path id="Vector_58" d="M506.446 301.057H501.242V310.622H506.446V301.057Z" fill="#D72027"/>
                <path id="Vector_59" d="M502.296 306.822C502.567 306.822 502.786 306.602 502.786 306.331C502.786 306.06 502.567 305.84 502.296 305.84C502.024 305.84 501.805 306.06 501.805 306.331C501.805 306.602 502.024 306.822 502.296 306.822Z" fill="#231F20"/>
              </g>
            </g>
            <g id="Roofing System">
              <g id="Content_2">
                <text id="7-Part Solar Roofing System" fill="#002E5D" xml:space="preserve" style="white-space: pre" font-family="Poppins" font-size="12" font-weight="600" letter-spacing="0.0112em"><tspan x="528" y="295.7">7-Part Solar Roofing System</tspan></text>
                <text id="Enjoy peace of mind with a roof that is built to last and is trusted by millions." fill="#002E5D" xml:space="preserve" style="white-space: pre" font-family="Poppins" font-size="10" letter-spacing="0.0112em"><tspan x="528" y="313">Enjoy peace of mind with a roof that is </tspan><tspan x="528" y="328">built to last and is trusted by millions.</tspan></text>
              </g>
            </g>
          </g>
          <g id="4">
            <g id="Illustration_Monitor">
              <g id="Vector_60">
                <path d="M493.29 360.821C493.29 358.234 495.228 356.107 497.71 355.857V357.869C496.316 358.107 495.254 359.338 495.254 360.821C495.254 361.467 495.456 362.066 495.799 362.555L494.399 363.978C493.706 363.118 493.29 362.019 493.29 360.821Z" fill="#D71920"/>
                <path d="M496.494 363.26L495.093 364.683C495.94 365.387 497.022 365.809 498.201 365.809C499.38 365.809 500.462 365.387 501.309 364.683L499.908 363.26C499.427 363.609 498.837 363.814 498.201 363.814C497.565 363.814 496.975 363.609 496.494 363.26Z" fill="#D71920"/>
                <path d="M500.603 362.555L502.003 363.978C502.696 363.118 503.112 362.019 503.112 360.821C503.112 358.234 501.174 356.107 498.692 355.857V357.869C500.085 358.107 501.147 359.338 501.147 360.821C501.147 361.467 500.946 362.066 500.603 362.555Z" fill="#D71920"/>
                <path fill-rule="evenodd" clip-rule="evenodd" d="M497.823 355.73V357.966L497.729 357.982C496.389 358.211 495.368 359.394 495.368 360.821C495.368 361.442 495.562 362.018 495.892 362.488L495.947 362.567L494.39 364.149L494.311 364.05C493.602 363.171 493.177 362.046 493.177 360.821C493.177 358.175 495.159 355.999 497.699 355.742L497.823 355.73ZM498.579 355.73L498.703 355.742C501.242 355.999 503.225 358.175 503.225 360.821C503.225 362.046 502.8 363.171 502.091 364.05L502.012 364.149L500.455 362.567L500.51 362.488C500.84 362.018 501.034 361.442 501.034 360.821C501.034 359.394 500.013 358.211 498.673 357.982L498.579 357.966V355.73ZM497.596 355.985C495.233 356.287 493.404 358.337 493.404 360.821C493.404 361.945 493.778 362.981 494.408 363.805L495.652 362.541C495.329 362.049 495.141 361.457 495.141 360.821C495.141 359.314 496.196 358.058 497.596 357.773V355.985ZM498.805 355.985V357.773C500.206 358.058 501.261 359.314 501.261 360.821C501.261 361.457 501.072 362.049 500.749 362.541L501.994 363.805C502.623 362.981 502.998 361.945 502.998 360.821C502.998 358.337 501.169 356.287 498.805 355.985ZM496.481 363.11L496.56 363.167C497.023 363.502 497.589 363.699 498.201 363.699C498.813 363.699 499.379 363.502 499.842 363.167L499.921 363.11L501.477 364.692L501.381 364.772C500.515 365.492 499.407 365.924 498.201 365.924C496.994 365.924 495.887 365.492 495.021 364.772L494.924 364.692L496.481 363.11ZM496.507 363.409L495.263 364.673C496.075 365.313 497.094 365.694 498.201 365.694C499.308 365.694 500.327 365.313 501.139 364.673L499.895 363.409C499.41 363.737 498.827 363.929 498.201 363.929C497.575 363.929 496.992 363.737 496.507 363.409Z" fill="#101820"/>
                <path d="M505.79 359.838H508.022V363.819H505.79V359.838Z" fill="#002E5D"/>
                <path d="M505.79 364.814H508.022V365.809H505.79V364.814Z" fill="#002E5D"/>
                <path d="M509.138 357.847H511.371V363.819H509.138V357.847Z" fill="#002E5D"/>
                <path d="M512.487 355.857H514.719V363.819H512.487V355.857Z" fill="#002E5D"/>
                <path d="M509.138 364.814H511.371V365.809H509.138V364.814Z" fill="#002E5D"/>
                <path d="M512.487 364.814H514.719V365.809H512.487V364.814Z" fill="#002E5D"/>
                <path fill-rule="evenodd" clip-rule="evenodd" d="M512.373 355.742H514.832V363.934H512.373V355.742ZM512.6 355.972V363.704H514.605V355.972H512.6ZM509.025 357.732H511.484V363.934H509.025V357.732ZM509.252 357.962V363.704H511.257V357.962H509.252ZM505.677 359.723H508.136V363.934H505.677V359.723ZM505.904 359.953V363.704H507.909V359.953H505.904ZM505.677 364.699H508.136V365.924H505.677V364.699ZM505.904 364.929V365.694H507.909V364.929H505.904ZM509.025 364.699H511.484V365.924H509.025V364.699ZM509.252 364.929V365.694H511.257V364.929H509.252ZM512.373 364.699H514.832V365.924H512.373V364.699ZM512.6 364.929V365.694H514.605V364.929H512.6Z" fill="#101820"/>
                <path fill-rule="evenodd" clip-rule="evenodd" d="M489.719 353.143H518.29V370.514H506.862V373.409L509.719 373.409V374.857H498.29V373.409L501.147 373.409V370.514H489.719V353.143ZM491.147 354.59H516.862V367.619H491.147V354.59ZM504.004 369.971C504.399 369.971 504.719 369.647 504.719 369.247C504.719 368.848 504.399 368.524 504.004 368.524C503.61 368.524 503.29 368.848 503.29 369.247C503.29 369.647 503.61 369.971 504.004 369.971Z" fill="#D9D9D6"/>
                <path fill-rule="evenodd" clip-rule="evenodd" d="M501.147 373.409L498.29 373.409V374.857H509.719V373.409L506.862 373.409V370.514H518.29V353.143H489.719V370.514H501.147V373.409ZM490.165 370.062H501.594V373.862L498.737 373.862V374.404H509.272V373.862L506.415 373.862V370.062H517.844V353.595H490.165V370.062ZM517.308 354.138V368.071H504.004H490.701V354.138H517.308ZM504.004 368.071C504.646 368.071 505.165 368.598 505.165 369.247C505.165 369.897 504.646 370.424 504.004 370.424C503.363 370.424 502.844 369.897 502.844 369.247C502.844 368.598 503.363 368.071 504.004 368.071ZM491.147 354.59H516.862V367.619H491.147V354.59ZM504.719 369.247C504.719 369.647 504.399 369.971 504.004 369.971C503.61 369.971 503.29 369.647 503.29 369.247C503.29 368.848 503.61 368.524 504.004 368.524C504.399 368.524 504.719 368.848 504.719 369.247Z" fill="#101820"/>
              </g>
            </g>
            <g id="Monitoring Energy">
              <text id="Energy Production Data" fill="#002E5D" xml:space="preserve" style="white-space: pre" font-family="Poppins" font-size="12" font-weight="600" letter-spacing="0.0112em"><tspan x="528" y="362.7">Energy Production Data </tspan></text>
              <text id="See how much energy your Solar Roof is producing anytime, anywhere." fill="#002E5D" xml:space="preserve" style="white-space: pre" font-family="Poppins" font-size="10" letter-spacing="0.0112em"><tspan x="528" y="380">See how much energy your Solar Roof </tspan><tspan x="528" y="395">is producing anytime, anywhere.</tspan></text>
            </g>
          </g>
          <g id="25 year">
            <g id="Icon_Medal">
              <g id="Vector_61">
                <path d="M503.998 416.366H503.9C501.579 416.389 499.358 417.282 497.708 418.857C496.058 420.431 495.107 422.563 495.057 424.801C495.008 427.039 495.863 429.209 497.441 430.85C499.02 432.491 501.199 433.475 503.517 433.594C503.644 433.6 503.772 433.602 503.9 433.604H503.998C504.435 433.604 504.872 433.573 505.304 433.512C507.531 433.187 509.548 432.063 510.953 430.366C512.357 428.668 513.046 426.522 512.881 424.356C512.716 422.189 511.709 420.163 510.062 418.682C508.416 417.201 506.25 416.374 503.998 416.366Z" fill="#B2B2B5"/>
                <path d="M510.723 430.665C509.326 432.207 507.406 433.217 505.306 433.514C504.874 433.576 504.437 433.607 504 433.607H503.902C503.774 433.607 503.646 433.607 503.519 433.597C501.196 433.479 499.014 432.49 497.436 430.842C497.381 430.785 497.327 430.724 497.275 430.665L493 442.817L497.463 442.045L500.964 446L504 435.985L507.038 445.998L510.539 442.043L515 442.817L510.723 430.665Z" fill="#0075B2"/>
                <path d="M503.957 431.448C507.656 431.448 510.654 428.556 510.654 424.989C510.654 421.422 507.656 418.53 503.957 418.53C500.259 418.53 497.261 421.422 497.261 424.989C497.261 428.556 500.259 431.448 503.957 431.448Z" fill="white"/>
                <path fill-rule="evenodd" clip-rule="evenodd" d="M502.88 420.835H505.738L504.31 424.184H506.76L501.86 430.093L503.289 425.76H501.246L502.88 420.835Z" fill="#FA121A"/>
                <path d="M503.997 433.979H503.894C503.784 433.979 503.64 433.979 503.495 433.968C501.072 433.848 498.794 432.816 497.15 431.093C495.558 429.431 494.674 427.251 494.676 424.989C494.676 422.621 495.644 420.35 497.37 418.667C499.096 416.984 501.44 416.026 503.894 416H503.997C506.468 416.003 508.837 416.951 510.584 418.636C512.331 420.322 513.314 422.607 513.317 424.991C513.316 427.147 512.512 429.232 511.051 430.864C509.59 432.497 507.57 433.569 505.359 433.885C504.907 433.948 504.452 433.979 503.997 433.979ZM503.997 416.737H503.901C501.681 416.761 499.558 417.617 497.981 419.124C496.403 420.63 495.495 422.67 495.448 424.811C495.4 426.951 496.217 429.026 497.727 430.597C499.236 432.167 501.319 433.11 503.536 433.226C503.666 433.233 503.8 433.235 503.902 433.236H503.997C504.415 433.236 504.834 433.206 505.248 433.148C507.379 432.837 509.31 431.761 510.655 430.136C511.999 428.511 512.659 426.457 512.5 424.383C512.342 422.31 511.379 420.37 509.802 418.952C508.225 417.535 506.152 416.743 503.997 416.737ZM503.954 431.817C502.554 431.817 501.185 431.416 500.021 430.666C498.857 429.916 497.949 428.849 497.414 427.602C496.878 426.354 496.738 424.981 497.011 423.656C497.284 422.332 497.958 421.115 498.948 420.16C499.938 419.205 501.2 418.555 502.573 418.291C503.946 418.028 505.369 418.163 506.663 418.68C507.956 419.197 509.062 420.072 509.84 421.195C510.618 422.318 511.033 423.638 511.033 424.989C511.031 426.799 510.285 428.535 508.957 429.815C507.63 431.095 505.831 431.815 503.954 431.817ZM503.954 418.899C502.705 418.899 501.485 419.256 500.446 419.925C499.408 420.594 498.599 421.545 498.121 422.658C497.643 423.771 497.518 424.995 497.762 426.177C498.005 427.358 498.607 428.443 499.49 429.295C500.373 430.146 501.497 430.726 502.722 430.961C503.947 431.196 505.216 431.076 506.37 430.615C507.523 430.154 508.51 429.373 509.203 428.372C509.897 427.37 510.267 426.193 510.267 424.989C510.265 423.374 509.599 421.826 508.416 420.685C507.232 419.543 505.628 418.901 503.954 418.899Z" fill="#03111A"/>
              </g>
            </g>
            <g id="Performance">
              <text id="25-Year Performance Guarantee" fill="#002E5D" xml:space="preserve" style="white-space: pre" font-family="Poppins" font-size="12" font-weight="600" letter-spacing="0.0112em"><tspan x="528" y="429.7">25-Year Performance Guarantee</tspan></text>
              <text id="Ensure the production of your roof with the purchase of the Solar Max Limited Warranty." fill="#002E5D" xml:space="preserve" style="white-space: pre" font-family="Poppins" font-size="10" letter-spacing="0.0112em"><tspan x="528" y="447">Ensure the production of your roof with the </tspan><tspan x="528" y="462">purchase of the Solar Max Limited Warranty.</tspan></text>
            </g>
          </g>
        </g>
      </g>
    </g>
     </svg>
